<svg width="127" height="41" viewBox="0 0 127 41" fill="none" xmlns="http://www.w3.org/2000/svg">
<g clip-path="url(#clip0_462_813)">
<mask id="mask0_462_813" style="mask-type:luminance" maskUnits="userSpaceOnUse" x="0" y="0" width="166" height="41">
<path d="M165.6 0.974609H0V40.8182H165.6V0.974609Z" fill="white"/>
</mask>
<g mask="url(#mask0_462_813)">
<path d="M48.0625 14.7098H51.9005V25.3408H53.9438V14.7098H57.7818V12.8965H48.0625V14.7098Z" fill="white"/>
<path d="M60.6765 25.3938L60.3212 26.2826C60.0369 27.0293 59.6135 27.2071 58.8673 27.2071L58.1363 28.896H59.8236C61.1562 28.896 61.5472 28.2382 62.1158 26.7627L66.2381 16.2383H64.1947L61.7249 23.1538L59.184 16.2383H57.1406L60.6765 25.3938Z" fill="white"/>
<path d="M71.7171 16.1328C70.2956 16.1328 69.3538 16.7906 68.7499 17.5906L68.5187 16.2395H66.8486V28.8972H68.7679V24.0616C69.3364 24.8794 70.3135 25.4483 71.7171 25.4483C74.205 25.4483 76.0172 23.5994 76.0172 20.7905C76.0172 17.875 74.205 16.1328 71.7171 16.1328ZM71.3973 23.8305C69.7983 23.8305 68.7499 22.5683 68.7499 20.755C68.7499 18.995 69.7983 17.7683 71.3973 17.7683C72.9967 17.7683 74.0625 18.995 74.0625 20.7905C74.0625 22.5683 72.9967 23.8305 71.3973 23.8305Z" fill="white"/>
<path d="M81.5206 25.4483C83.7772 25.4483 85.3049 24.0795 85.6248 22.2839H83.706C83.4394 23.2972 82.5864 23.8839 81.4139 23.8839C79.9037 23.8839 78.9261 22.8705 78.8728 21.3238V21.1995H85.7315C85.7668 20.9505 85.7848 20.7017 85.7848 20.4706C85.7315 17.8039 83.9726 16.1328 81.3427 16.1328C78.6595 16.1328 76.8652 17.9995 76.8652 20.8083C76.8652 23.5994 78.6595 25.4483 81.5206 25.4483ZM78.944 19.7951C79.086 18.4972 80.1344 17.6794 81.3606 17.6794C82.693 17.6794 83.6347 18.4439 83.7947 19.7951H78.944Z" fill="white"/>
<path d="M88.7621 25.3405H90.8409L92.831 19.1538L94.7498 25.3405H96.8107L99.8317 16.2383H97.877L95.7275 23.2071L93.7374 16.2383H91.978L89.8992 23.2071L87.8204 16.2383H85.7949L88.7621 25.3405Z" fill="white"/>
<path d="M100.49 25.3405H102.409V16.2383H100.49V25.3405Z" fill="white"/>
<path d="M103.542 22.3374C103.595 24.3108 105.265 25.4485 107.7 25.4485C109.902 25.4485 111.555 24.3463 111.555 22.6041C111.555 20.5774 109.867 20.1508 107.789 19.9019C106.473 19.7597 105.602 19.653 105.602 18.7997C105.602 18.0708 106.349 17.6086 107.486 17.6086C108.623 17.6086 109.406 18.1952 109.512 19.0308H111.395C111.271 17.1641 109.689 16.133 107.45 16.133C105.265 16.1152 103.719 17.2352 103.719 18.9597C103.719 20.8441 105.354 21.2886 107.432 21.5374C108.836 21.7152 109.672 21.7864 109.672 22.7641C109.672 23.493 108.89 23.9552 107.7 23.9552C106.313 23.9552 105.496 23.2797 105.425 22.3374H103.542Z" fill="white"/>
<path d="M117.007 25.4483C119.263 25.4483 120.791 24.0794 121.111 22.2839H119.192C118.925 23.2972 118.072 23.8839 116.9 23.8839C115.39 23.8839 114.412 22.8705 114.359 21.3238V21.1994H121.218C121.253 20.9505 121.271 20.7017 121.271 20.4705C121.218 17.8039 119.458 16.1328 116.829 16.1328C114.146 16.1328 112.352 17.9994 112.352 20.8083C112.352 23.5994 114.146 25.4483 117.007 25.4483ZM114.43 19.795C114.572 18.4972 115.62 17.6794 116.846 17.6794C118.179 17.6794 119.121 18.4439 119.281 19.795H114.43Z" fill="white"/>
<mask id="mask1_462_813" style="mask-type:luminance" maskUnits="userSpaceOnUse" x="0" y="0" width="40" height="41">
<path d="M39.7022 0.974609H0V40.8182H39.7022V0.974609Z" fill="white"/>
</mask>
<g mask="url(#mask1_462_813)">
<path d="M16.7368 40.7122C21.9902 39.6233 27.1678 38.1942 32.2374 36.4343C32.9645 36.1829 33.6249 35.7686 34.1687 35.2228C34.7125 34.677 35.1254 34.0143 35.3759 33.2846C37.1085 28.191 38.5238 22.9944 39.6136 17.7246C39.7659 16.9896 39.7482 16.2294 39.5621 15.5023C39.3758 14.7753 39.0261 14.1007 38.5396 13.5306C35.0005 9.48872 31.2019 5.68361 27.168 2.13945C26.6008 1.65014 25.9278 1.30053 25.2021 1.11849C24.4766 0.936453 23.7186 0.927018 22.9888 1.09094C17.7331 2.17809 12.554 3.60852 7.48405 5.37307C6.75635 5.62341 6.0953 6.03734 5.55134 6.58322C5.00739 7.12912 4.59494 7.79253 4.3455 8.52282C2.6071 13.6134 1.19034 18.809 0.103624 24.0786C-0.0495292 24.8133 -0.0327208 25.5733 0.152755 26.3005C0.338231 27.0276 0.687432 27.7022 1.1735 28.2727C4.7137 32.312 8.51224 36.1157 12.545 39.6595C13.1185 40.1382 13.7918 40.4808 14.5154 40.6623C15.239 40.8438 15.9938 40.8595 16.7242 40.708" fill="#1D58E2"/>
<path d="M17.8662 21.5759C17.7196 21.5388 17.5672 21.5311 17.4177 21.5532C17.2682 21.5754 17.1245 21.6268 16.9949 21.7048C16.8652 21.7828 16.7522 21.8855 16.6622 22.0073C16.5722 22.1291 16.5069 22.2676 16.4703 22.4148L15.5719 26.3404C15.4582 26.8444 15.1971 27.3027 14.8225 27.6571C14.4477 28.0112 13.9761 28.2453 13.4681 28.329C12.9601 28.4128 12.4387 28.3426 11.9707 28.1273C11.5027 27.9119 11.1093 27.5614 10.841 27.1204C10.4863 26.532 10.3711 25.8291 10.5191 25.1576L12.8762 12.3993C12.9141 12.2432 12.9199 12.0808 12.8931 11.9224C12.8662 11.764 12.8073 11.6127 12.7202 11.4779C12.6329 11.3431 12.5191 11.2276 12.3857 11.1386C12.2523 11.0496 12.1023 10.9889 11.9447 10.9603C11.7871 10.9316 11.6253 10.9356 11.4693 10.972C11.3133 11.0084 11.1664 11.0764 11.0375 11.172C10.9087 11.2675 10.8007 11.3884 10.7202 11.5273C10.6397 11.6663 10.5883 11.8203 10.5693 11.9799L9.7209 16.543L6.61161 17.5916C6.46592 17.6392 6.33121 17.7157 6.2154 17.8164C6.0996 17.9172 6.00504 18.0402 5.93728 18.1781C5.86952 18.3161 5.82994 18.4661 5.82086 18.6198C5.8118 18.7733 5.8334 18.9271 5.88443 19.072C5.96549 19.3128 6.12117 19.5212 6.32869 19.6669C6.53623 19.8124 6.78473 19.8876 7.03788 19.8814C7.14691 19.876 7.2549 19.8576 7.35968 19.827L9.24034 19.2062L8.22058 24.6585C8.05794 25.3992 8.0665 26.1672 8.24562 26.904C8.42466 27.6408 8.76954 28.3265 9.2537 28.9088C9.73786 29.4911 10.3485 29.9543 11.0387 30.2631C11.729 30.5717 12.4805 30.7176 13.2356 30.6896C14.0615 30.6485 14.8643 30.402 15.5719 29.9724C16.1242 29.6352 16.6033 29.19 16.9809 28.6633C17.3586 28.1367 17.6269 27.5392 17.7701 26.9066L18.6811 23.002C18.7239 22.8545 18.7367 22.7 18.7186 22.5476C18.7006 22.3952 18.652 22.248 18.5759 22.1149C18.4999 21.9818 18.3977 21.8654 18.2757 21.7728C18.1538 21.6801 18.0145 21.6132 17.8662 21.5759Z" fill="white"/>
<path d="M16.1967 15.5977C16.1486 15.4529 16.0724 15.319 15.9724 15.204C15.8724 15.0888 15.7508 14.9948 15.6144 14.9274C15.4779 14.8598 15.3295 14.8202 15.1776 14.8108C15.0258 14.8014 14.8735 14.8222 14.7298 14.8722L13.6599 15.2203L13.2002 17.8332L15.4528 17.0782C15.7468 16.9806 15.9901 16.7698 16.1296 16.4922C16.269 16.2148 16.2932 15.893 16.1967 15.5977Z" fill="white"/>
<path d="M21.4593 28.491C21.0089 28.5231 20.5565 28.485 20.1178 28.3778C19.4865 28.2351 18.8901 27.9662 18.3645 27.5871C17.8389 27.2081 17.3948 26.7267 17.0587 26.1717C16.715 25.6245 16.4857 25.0131 16.3845 24.3743C16.2831 23.7356 16.312 23.083 16.4694 22.4558C16.5409 22.1559 16.7281 21.897 16.9898 21.7357C17.2517 21.5745 17.5665 21.5242 17.8653 21.596C18.164 21.6678 18.422 21.8556 18.5827 22.1183C18.7433 22.3811 18.7934 22.6971 18.7219 22.9968C18.6445 23.329 18.6329 23.6731 18.6879 24.0097C18.7431 24.3463 18.8637 24.6687 19.043 24.9586C19.2223 25.2483 19.4568 25.4999 19.7329 25.6987C20.0093 25.8974 20.3217 26.0397 20.6527 26.1171C20.9839 26.1956 21.3273 26.2077 21.6633 26.1527C21.9992 26.0977 22.3209 25.9767 22.6101 25.7968C22.8994 25.6167 23.1505 25.3813 23.3488 25.1038C23.5471 24.8263 23.689 24.5122 23.7662 24.1795L24.6773 20.2791C24.7117 20.1298 24.775 19.989 24.864 19.8643C24.9527 19.7398 25.0653 19.6343 25.1949 19.5535C25.3246 19.4727 25.4689 19.4186 25.6196 19.3939C25.7701 19.3694 25.9241 19.375 26.0727 19.4103C26.2211 19.4457 26.3612 19.5102 26.4847 19.6001C26.6082 19.69 26.7129 19.8035 26.7925 19.9342C26.8722 20.0648 26.9253 20.2099 26.9489 20.3612C26.9725 20.5127 26.9661 20.6671 26.9298 20.8159L26.0188 24.6996C25.8749 25.332 25.6064 25.9291 25.2289 26.4557C24.8513 26.9824 24.3724 27.4276 23.8205 27.7655C23.1142 28.2189 22.2977 28.4698 21.4593 28.491Z" fill="white"/>
<path d="M29.6648 26.3145C28.7907 26.3468 27.9235 26.1469 27.151 25.7353C26.3782 25.3237 25.7274 24.7149 25.2642 23.9701C24.921 23.4235 24.6918 22.8128 24.5905 22.1748C24.4893 21.5369 24.518 20.8849 24.6749 20.2583C24.7093 20.1092 24.7728 19.9682 24.8615 19.8437C24.9505 19.7192 25.0629 19.6135 25.1926 19.5328C25.3222 19.4521 25.4666 19.3978 25.6172 19.3733C25.7678 19.3488 25.9219 19.3544 26.0703 19.3897C26.2187 19.4251 26.3588 19.4896 26.4823 19.5795C26.6059 19.6694 26.7106 19.7829 26.7902 19.9136C26.8699 20.0441 26.923 20.1893 26.9466 20.3406C26.9702 20.4919 26.9637 20.6465 26.9276 20.7952C26.8494 21.1274 26.8374 21.4717 26.8923 21.8085C26.9471 22.1453 27.0676 22.4679 27.247 22.7579C27.4265 23.0477 27.6612 23.2993 27.9376 23.498C28.2142 23.6967 28.527 23.8385 28.8583 23.9156C29.5229 24.0693 30.2209 23.9554 30.8029 23.5989C31.385 23.2421 31.8046 22.6707 31.9718 22.0073L32.8828 18.1026C32.9543 17.8029 33.1415 17.5438 33.4034 17.3826C33.6651 17.2213 33.98 17.1711 34.2787 17.2429C34.5774 17.3146 34.8355 17.5025 34.9962 17.7653C35.1567 18.028 35.207 18.3438 35.1354 18.6437L34.2244 22.5441C33.9757 23.5844 33.3962 24.515 32.5735 25.1953C31.7509 25.8755 30.7299 26.2685 29.6648 26.3145Z" fill="white"/>
</g>
</g>
</g>
<defs>
<clipPath id="clip0_462_813">
<rect width="127" height="40" fill="white" transform="translate(0 0.896484)"/>
</clipPath>
</defs>
</svg>
