<svg width="145" height="41" viewBox="0 0 145 41" fill="none" xmlns="http://www.w3.org/2000/svg">
<path d="M16.403 8.25629H37.895L38.201 6.89097C38.6483 4.77238 37.0475 2.77148 34.8818 2.77148H14.002C11.2949 2.77148 8.96445 4.65467 8.37595 7.29115L3.8092 28.383C3.36195 30.5015 4.96265 32.5025 7.12833 32.5025H8.39948L13.0604 10.9398C13.4135 9.3862 14.8023 8.25629 16.403 8.25629Z" fill="#00CDFA"/>
<path d="M39.1665 8.25781H37.8953L33.2343 29.8203C32.9048 31.374 31.516 32.504 29.9153 32.504H8.42332L8.1173 33.8693C7.67005 35.9878 9.27077 37.9888 11.4364 37.9888H32.3163C35.0235 37.9888 37.3538 36.1055 37.9423 33.4691L42.5092 12.4008C42.9563 10.2587 41.3322 8.25781 39.1665 8.25781Z" fill="url(#paint0_linear_462_784)"/>
<path d="M33.234 29.8203L37.8948 8.25781H16.4029C14.8022 8.25781 13.4133 9.3642 13.0838 10.9414L8.42285 32.504H29.9148C31.5155 32.504 32.8808 31.374 33.234 29.8203Z" fill="#3A00FF"/>
<path d="M15.4142 24.2752L13.8589 16.1895H16.2978L17.049 21.2353L19.5145 16.1895H21.158L22.1213 21.2353L24.3835 16.1895H26.8225L22.8723 24.2752H20.8312L19.859 19.5387L17.482 24.2752H15.4142Z" fill="white"/>
<path d="M25.9668 22.9668L27.2393 21.4911C27.8136 22.198 28.5383 22.5603 29.4308 22.5603C30.0051 22.5603 30.5088 22.3218 30.5885 21.9241C30.615 21.6855 30.4558 21.4823 30.0846 21.3055C29.9963 21.2613 29.802 21.1906 29.4926 21.0846C28.883 20.846 28.6178 20.7576 28.0876 20.4218C27.3453 19.9623 26.9918 19.3261 27.1155 18.2303C27.3541 16.7369 28.7238 15.9062 30.4558 15.9062C31.64 15.9062 32.612 16.2951 33.3985 17.0639L32.1436 18.5308C31.6223 18.0448 31.0215 17.8061 30.341 17.8061C29.7931 17.8061 29.4661 17.9651 29.3955 18.3098C29.3336 18.5926 29.4838 18.8312 29.8373 18.9903C29.9521 19.0522 30.1908 19.1493 30.5443 19.2818C30.8976 19.4145 31.1981 19.5293 31.4456 19.6706C32.2408 20.0065 33.1776 20.793 32.8948 21.9948C32.7623 22.7813 32.3646 23.3998 31.693 23.8417C31.0303 24.2835 30.2261 24.5045 29.3248 24.5045C27.8755 24.4956 26.7533 23.9918 25.9668 22.9668Z" fill="white"/>
<path d="M55.5889 27.542H53.305L48.8315 14.0273H51.7982L54.5294 23.1156L57.5902 14.0273H59.309L62.4404 23.1156L65.1245 14.0273H68.091L63.6412 27.542H61.3574L58.4849 18.6891L55.5889 27.542Z" fill="white"/>
<path d="M70.6333 27.5406H68.0435V17.5813H70.5391V18.9233C71.1278 17.8403 72.046 17.3223 73.2703 17.3223C73.6706 17.3223 74.0708 17.3929 74.4711 17.5342L74.2591 20.0063C73.8118 19.8652 73.4351 19.7945 73.082 19.7945C72.3285 19.7945 71.74 20.0535 71.2926 20.5478C70.8688 21.0423 70.6333 21.7958 70.6333 22.8082V27.5406Z" fill="white"/>
<path d="M77.9561 14.8743C77.9561 15.3216 77.8149 15.6983 77.5088 16.0044C77.2028 16.3105 76.8261 16.4517 76.3788 16.4517C75.9313 16.4517 75.5546 16.3105 75.2486 16.0044C74.9424 15.6983 74.8013 15.3216 74.8013 14.8743C74.8013 14.4269 74.9424 14.0502 75.2486 13.7677C75.5546 13.4616 75.9313 13.3203 76.3788 13.3203C76.8261 13.3203 77.2028 13.4616 77.5088 13.7677C77.8149 14.0502 77.9561 14.4269 77.9561 14.8743ZM77.6501 17.5818V27.5413H75.0603V17.5818H77.6501Z" fill="white"/>
<path d="M85.6565 24.9285L86.4335 26.9533C85.6095 27.495 84.6205 27.7775 83.4905 27.7775C82.3366 27.7775 81.4891 27.4478 80.9005 26.7886C80.3118 26.1293 80.0293 25.1405 80.0293 23.8455V19.7251H78.4048V17.559H80.0528V14.0273H82.6193V17.559H85.9155V19.7251H82.6193V23.6806C82.6193 24.858 83.0901 25.4465 84.032 25.4465C84.5028 25.4465 85.0678 25.2816 85.6565 24.9285Z" fill="white"/>
<path d="M96.4392 22.3373C96.4392 22.6433 96.4155 23.0201 96.3449 23.4675H88.8577C89.2345 24.8801 90.1997 25.5865 91.7537 25.5865C92.9074 25.5865 93.9905 25.2568 94.9794 24.574L95.9917 26.387C94.7204 27.3051 93.2842 27.7525 91.636 27.7525C89.8937 27.7525 88.5517 27.2582 87.6099 26.2456C86.6917 25.2568 86.2207 24.009 86.2207 22.5491C86.2207 21.0188 86.6917 19.771 87.657 18.8056C88.6224 17.8166 89.8702 17.3223 91.4005 17.3223C92.8604 17.3223 94.0375 17.7696 94.9794 18.6643C95.9682 19.5825 96.4392 20.8068 96.4392 22.3373ZM91.4477 19.4648C90.8119 19.4648 90.2469 19.6531 89.7995 20.0298C89.3522 20.4066 89.046 20.901 88.8814 21.5603H93.9434C93.8257 20.9246 93.5432 20.4066 93.0957 20.0298C92.6484 19.6531 92.1069 19.4648 91.4477 19.4648Z" fill="white"/>
<path d="M100.771 27.8001C99.0284 27.8001 97.6629 27.1645 96.6504 25.8695L98.0161 24.245C98.3692 24.6688 98.7931 24.9983 99.2874 25.2573C99.7819 25.5163 100.276 25.634 100.771 25.634C101.171 25.634 101.477 25.5398 101.76 25.3515C102.019 25.1631 102.16 24.9276 102.16 24.6451C102.16 24.292 101.924 24.0095 101.454 23.7976C101.312 23.727 100.912 23.5856 100.276 23.3501C99.7112 23.1383 99.2874 22.9735 99.0049 22.8086C97.8512 22.2671 97.2862 21.396 97.2862 20.2188C97.2862 19.3476 97.6157 18.6413 98.2986 18.0526C98.9579 17.4876 99.8761 17.2051 101.006 17.2051C102.419 17.2051 103.596 17.676 104.491 18.6413L103.219 20.313C102.513 19.6536 101.76 19.3241 100.936 19.3241C100.606 19.3241 100.323 19.3946 100.112 19.5595C99.8996 19.7243 99.7819 19.9126 99.7819 20.1481C99.7819 20.572 100.064 20.878 100.653 21.0663C101.948 21.5608 102.749 21.867 103.055 22.0316C104.185 22.6203 104.726 23.468 104.726 24.551C104.726 25.4928 104.35 26.2461 103.62 26.8583C102.913 27.4941 101.972 27.8001 100.771 27.8001Z" fill="white"/>
<path d="M105.195 22.5513C105.195 21.068 105.69 19.8436 106.702 18.8311C107.714 17.8188 108.986 17.3008 110.54 17.3008C112.094 17.3008 113.365 17.8188 114.378 18.8311C115.367 19.8201 115.884 21.068 115.884 22.5513C115.884 24.0346 115.39 25.2825 114.378 26.2713C113.365 27.2836 112.094 27.7781 110.54 27.7781C108.986 27.7781 107.714 27.2836 106.702 26.2713C105.69 25.2825 105.195 24.0346 105.195 22.5513ZM108.562 24.5761C109.08 25.1176 109.739 25.4001 110.54 25.4001C111.317 25.4001 111.953 25.1176 112.494 24.5761C113.036 24.011 113.295 23.3281 113.295 22.5513C113.295 21.7743 113.036 21.0915 112.494 20.55C111.953 20.0085 111.317 19.7258 110.54 19.7258C109.739 19.7258 109.08 20.0085 108.562 20.55C108.044 21.0915 107.785 21.7508 107.785 22.5513C107.785 23.3518 108.044 24.0345 108.562 24.5761Z" fill="white"/>
<path d="M119.535 27.5406H116.945V17.5813H119.464V18.9703C119.723 18.476 120.147 18.0757 120.712 17.7697C121.277 17.4635 121.889 17.3223 122.595 17.3223C123.679 17.3223 124.597 17.6755 125.35 18.4053C126.104 19.1351 126.48 20.1476 126.48 21.4661V27.5642H123.89V22.1725C123.89 21.3955 123.702 20.7833 123.325 20.3595C122.949 19.9356 122.431 19.7003 121.795 19.7003C121.112 19.7003 120.571 19.9357 120.147 20.4067C119.723 20.8775 119.511 21.4896 119.511 22.2195V27.5406H119.535Z" fill="white"/>
<path d="M130.907 14.8743C130.907 15.3216 130.766 15.6983 130.46 16.0044C130.154 16.3105 129.777 16.4517 129.33 16.4517C128.883 16.4517 128.506 16.3105 128.2 16.0044C127.894 15.6983 127.752 15.3216 127.752 14.8743C127.752 14.4269 127.894 14.0502 128.2 13.7677C128.506 13.4616 128.883 13.3203 129.33 13.3203C129.777 13.3203 130.154 13.4616 130.46 13.7677C130.766 14.0502 130.907 14.4269 130.907 14.8743ZM130.601 17.5818V27.5413H128.011V17.5818H130.601Z" fill="white"/>
<path d="M136.935 27.778C135.404 27.778 134.133 27.2835 133.121 26.3181C132.132 25.3528 131.637 24.105 131.637 22.5746C131.637 21.0441 132.132 19.7963 133.144 18.831C134.157 17.8421 135.452 17.3477 137.005 17.3477C138.018 17.3477 138.96 17.5831 139.784 18.0775C140.608 18.572 141.244 19.2548 141.644 20.126L139.572 21.2561C138.96 20.2436 138.112 19.7491 137.029 19.7491C136.205 19.7491 135.522 20.0318 135.004 20.5733C134.463 21.1148 134.204 21.7741 134.204 22.5746C134.204 23.3986 134.463 24.0815 134.981 24.623C135.522 25.1645 136.181 25.4235 136.982 25.4235C137.5 25.4235 137.994 25.2821 138.489 24.9996C138.96 24.7171 139.313 24.364 139.525 23.9166L141.62 25.141C141.196 25.9415 140.561 26.5771 139.737 27.0716C138.889 27.519 137.947 27.778 136.935 27.778Z" fill="white"/>
<defs>
<linearGradient id="paint0_linear_462_784" x1="8.04154" y1="23.1266" x2="42.575" y2="23.1266" gradientUnits="userSpaceOnUse">
<stop stop-color="#FFB3FF"/>
<stop offset="0.5335" stop-color="#FF76DF"/>
<stop offset="1" stop-color="#C239C6"/>
</linearGradient>
</defs>
</svg>
