<svg width="135" height="41" viewBox="0 0 135 41" fill="none" xmlns="http://www.w3.org/2000/svg">
<path fill-rule="evenodd" clip-rule="evenodd" d="M88.5371 16.5094C89.6491 16.5094 90.5217 16.8561 91.1577 17.5505C91.7943 18.2439 92.1339 19.2334 92.1799 20.5175C92.1896 20.6423 92.1947 20.8103 92.1961 21.022L92.1965 21.1543C92.1965 21.4294 92.1915 21.6474 92.1799 21.8077C92.1339 23.0474 91.7898 24.022 91.1494 24.7331C90.5073 25.4441 89.6358 25.7997 88.5371 25.7997C87.4252 25.7997 86.5942 25.4209 86.0451 24.6643V28.466C86.0451 28.5926 86.0047 28.6957 85.9243 28.7756C85.8446 28.8566 85.7415 28.8965 85.6152 28.8965H83.3985C83.2733 28.8965 83.1664 28.8566 83.0811 28.7756C82.9947 28.6957 82.9514 28.5926 82.9514 28.466V17.1112C82.9514 16.9853 82.9947 16.8816 83.0811 16.8023C83.1664 16.7213 83.2733 16.6808 83.3985 16.6808H85.4434C85.5692 16.6808 85.6728 16.7213 85.752 16.8023C85.8335 16.8816 85.8728 16.9853 85.8728 17.1112V17.7308C86.4922 16.916 87.3792 16.5094 88.5371 16.5094ZM55.3714 13.4125C56.3803 13.4125 57.2528 13.5872 57.9925 13.9372C58.731 14.2872 59.2989 14.7226 59.6928 15.244C60.089 15.7665 60.2972 16.2796 60.3211 16.7844C60.3211 16.8875 60.2856 16.9763 60.2175 17.0511C60.1487 17.126 60.0635 17.1632 59.9604 17.1632H57.5537C57.3022 17.1632 57.1072 17.0595 56.9703 16.8531C56.9016 16.6124 56.7227 16.4088 56.4373 16.2424C56.1509 16.076 55.7958 15.9928 55.3714 15.9928C54.8905 15.9928 54.5187 16.0788 54.2544 16.2507C53.9913 16.4232 53.86 16.6751 53.86 17.0079C53.86 17.3412 54.0306 17.6014 54.3752 17.7911C54.7187 17.9802 55.3609 18.1727 56.2988 18.3674C57.3758 18.5627 58.2329 18.8062 58.8679 19.0985C59.5044 19.3908 59.9742 19.7696 60.2779 20.2339C60.5815 20.6987 60.7338 21.2861 60.7338 21.9973C60.7338 22.7777 60.51 23.4544 60.0635 24.0274C59.6163 24.6015 58.9981 25.0402 58.2069 25.3436C57.4163 25.6476 56.5116 25.7996 55.4921 25.7996C54.3802 25.7996 53.435 25.6387 52.6561 25.3181C51.8771 24.9969 51.2865 24.5726 50.8871 24.0446C50.4854 23.5176 50.2726 22.9435 50.2505 22.3245C50.2505 22.2213 50.2887 22.1354 50.3624 22.0665C50.4366 21.9973 50.5258 21.9628 50.6284 21.9628H52.9148C53.0516 21.9628 53.1635 21.9856 53.2489 22.0322C53.3359 22.0776 53.4295 22.1581 53.5325 22.2729C53.681 22.5481 53.9137 22.7749 54.2295 22.9519C54.5437 23.131 54.9647 23.2186 55.4921 23.2186C56.1099 23.2186 56.5858 23.1244 56.9182 22.9352C57.2501 22.7461 57.4163 22.4854 57.4163 22.1525C57.4163 21.9113 57.331 21.7138 57.1592 21.559C56.9869 21.4037 56.7115 21.2661 56.3343 21.1463C55.9564 21.0254 55.4112 20.8912 54.7016 20.7415C53.3142 20.4663 52.2782 20.0475 51.5918 19.4851C50.9037 18.9238 50.5596 18.1206 50.5596 17.0772C50.5596 16.3656 50.7579 15.7321 51.1524 15.1758C51.5486 14.62 52.1092 14.1868 52.8361 13.8773C53.5652 13.5667 54.4096 13.4125 55.3714 13.4125ZM119.813 16.5094C120.799 16.5094 121.632 16.7069 122.313 17.1029C122.996 17.4984 123.505 18.0431 123.843 18.737C124.18 19.4315 124.35 20.2197 124.35 21.1032V21.5325C124.35 21.659 124.307 21.765 124.221 21.8515C124.136 21.937 124.03 21.9802 123.903 21.9802H118.456V22.0833C118.467 22.5998 118.588 23.0158 118.817 23.3309C119.045 23.6464 119.372 23.804 119.796 23.804C120.071 23.804 120.291 23.7496 120.457 23.6398C120.624 23.5317 120.782 23.3908 120.93 23.2183C121.033 23.1045 121.116 23.033 121.178 23.0042C121.243 22.9753 121.343 22.9615 121.479 22.9615H123.731C123.834 22.9615 123.923 22.9925 123.998 23.0557C124.073 23.119 124.109 23.196 124.109 23.2876C124.109 23.5865 123.94 23.9355 123.602 24.3376C123.264 24.7386 122.771 25.0831 122.124 25.3693C121.476 25.656 120.712 25.7997 119.831 25.7997C118.432 25.7997 117.333 25.4237 116.53 24.6732C115.729 23.9216 115.316 22.8294 115.294 21.395V20.8614C115.339 19.4974 115.762 18.4303 116.565 17.6615C117.367 16.8938 118.449 16.5094 119.813 16.5094ZM134.384 13.4125C134.511 13.4125 134.617 13.453 134.702 13.5329C134.788 13.6133 134.831 13.7159 134.831 13.8418V25.1978C134.831 25.3242 134.788 25.4274 134.702 25.5073C134.617 25.5877 134.511 25.6276 134.384 25.6276H132.339C132.224 25.6276 132.125 25.585 132.038 25.499C131.953 25.413 131.909 25.3126 131.909 25.1978V24.6641C131.291 25.4208 130.404 25.7996 129.247 25.7996C128.135 25.7996 127.261 25.4496 126.626 24.7501C125.99 24.0507 125.649 23.0528 125.604 21.7565L125.586 21.1541L125.604 20.5357C125.649 19.2849 125.993 18.3015 126.634 17.5848C127.275 16.8682 128.146 16.5093 129.247 16.5093C130.278 16.5093 131.108 16.8421 131.737 17.5066V13.8418C131.737 13.7159 131.781 13.6133 131.866 13.5329C131.953 13.453 132.054 13.4125 132.168 13.4125H134.384ZM64.7722 16.6807C64.898 16.6807 65.0049 16.7212 65.0897 16.8022C65.1751 16.8815 65.2188 16.9852 65.2188 17.1111V25.1978C65.2188 25.3242 65.1751 25.4274 65.0897 25.5073C65.0049 25.5877 64.898 25.6271 64.7722 25.6271H62.6243C62.5096 25.6271 62.4087 25.585 62.3235 25.499C62.237 25.413 62.1938 25.3126 62.1938 25.1978V17.1111C62.1938 16.9852 62.237 16.8815 62.3235 16.8022C62.4087 16.7212 62.5096 16.6807 62.6243 16.6807H64.7722ZM77.9001 16.5093C78.8398 16.5093 79.6048 16.8271 80.1949 17.4644C80.7838 18.1007 81.0786 19.0498 81.0786 20.3111V25.1978C81.0786 25.3126 81.0398 25.413 80.9589 25.499C80.8786 25.585 80.7755 25.6271 80.6497 25.6271H78.5366C78.4104 25.6271 78.3045 25.5877 78.2176 25.5073C78.1322 25.4274 78.089 25.3242 78.089 25.1978V20.4315C78.089 19.9045 77.9771 19.5173 77.7543 19.2705C77.5306 19.0242 77.2303 18.9005 76.8524 18.9005C76.4973 18.9005 76.2075 19.0242 75.9842 19.2705C75.7605 19.5173 75.6486 19.9045 75.6486 20.4315V25.1978C75.6486 25.3126 75.6092 25.413 75.5283 25.499C75.4485 25.585 75.3449 25.6271 75.2192 25.6271H73.1061C72.9804 25.6271 72.874 25.5877 72.7875 25.5073C72.7017 25.4274 72.6584 25.3242 72.6584 25.1978V20.4315C72.6584 19.9045 72.5438 19.5173 72.316 19.2705C72.0867 19.0242 71.7886 18.9005 71.4224 18.9005C71.0673 18.9005 70.7747 19.0242 70.5454 19.2705C70.3165 19.5173 70.2019 19.8984 70.2019 20.4142V25.1978C70.2019 25.3126 70.1608 25.413 70.0811 25.499C70.0013 25.585 69.8982 25.6271 69.7719 25.6271H67.6074C67.4926 25.6271 67.3918 25.585 67.3065 25.499C67.2201 25.413 67.1768 25.3126 67.1768 25.1978V17.1111C67.1768 16.9852 67.2201 16.8815 67.3065 16.8022C67.3918 16.7212 67.4926 16.6807 67.6074 16.6807H69.6002C69.7259 16.6807 69.8296 16.7212 69.9088 16.8022C69.9891 16.8815 70.0296 16.9852 70.0296 17.1111V17.6957C70.3049 17.3635 70.66 17.0828 71.095 16.8532C71.5299 16.6241 72.0241 16.5093 72.5731 16.5093C73.833 16.5093 74.6978 17.0024 75.167 17.9886C75.443 17.5532 75.8263 17.1976 76.32 16.9225C76.812 16.6468 77.3389 16.5093 77.9001 16.5093ZM96.4427 13.4123C96.5685 13.4123 96.6715 13.4528 96.7519 13.5327C96.8311 13.6131 96.872 13.7163 96.872 13.8422V25.1976C96.872 25.3124 96.8311 25.4128 96.7519 25.4988C96.6715 25.5853 96.5685 25.6275 96.4427 25.6275H94.2941C94.1689 25.6275 94.062 25.5882 93.9773 25.5071C93.8902 25.4273 93.8471 25.3241 93.8471 25.1976V13.8422C93.8471 13.7163 93.8902 13.6131 93.9773 13.5327C94.062 13.4528 94.1689 13.4123 94.2941 13.4123H96.4427ZM101.409 16.6807C101.534 16.6807 101.641 16.7212 101.726 16.8022C101.811 16.8815 101.855 16.9852 101.855 17.1111V25.1978C101.855 25.3242 101.811 25.4274 101.726 25.5073C101.641 25.5877 101.534 25.6271 101.409 25.6271H99.2606C99.1459 25.6271 99.0451 25.585 98.9597 25.499C98.8733 25.413 98.8301 25.3126 98.8301 25.1978V17.1111C98.8301 16.9852 98.8733 16.8815 98.9597 16.8022C99.0451 16.7212 99.1459 16.6807 99.2606 16.6807H101.409ZM113.25 12.8965C113.375 12.8965 113.478 12.9359 113.559 13.0169C113.638 13.0973 113.679 13.2004 113.679 13.3264V14.8062C113.679 14.9211 113.638 15.0209 113.559 15.1069C113.478 15.1934 113.375 15.2356 113.25 15.2356H108.833C108.465 15.2356 108.205 15.3193 108.05 15.4852C107.896 15.6516 107.819 15.9073 107.819 16.2512V16.6805H113.25C113.375 16.6805 113.478 16.7216 113.559 16.802C113.638 16.8819 113.679 16.9856 113.679 17.1115V25.1976C113.679 25.3124 113.638 25.4128 113.559 25.4988C113.478 25.5853 113.375 25.6275 113.25 25.6275H111.151C111.026 25.6275 110.921 25.5882 110.835 25.5071C110.749 25.4273 110.706 25.3241 110.706 25.1976V19.0213H107.819V25.1976C107.819 25.3124 107.779 25.4128 107.699 25.4988C107.618 25.5853 107.514 25.6275 107.388 25.6275H105.292C105.166 25.6275 105.06 25.5882 104.974 25.5071C104.888 25.4273 104.847 25.3241 104.847 25.1976V19.0213H103.556C103.431 19.0213 103.324 18.9814 103.239 18.9009C103.152 18.8199 103.111 18.7173 103.111 18.5908V17.1115C103.111 16.9856 103.152 16.8819 103.239 16.802C103.324 16.7216 103.431 16.6805 103.556 16.6805H104.847V16.1647C104.847 15.0181 105.177 14.1867 105.842 13.6708C106.506 13.1539 107.457 12.8965 108.695 12.8965H113.25ZM130.243 18.9011C129.727 18.9011 129.357 19.0525 129.135 19.3565C128.912 19.6604 128.782 20.0815 128.747 20.6206L128.73 21.1541L128.747 21.6878C128.782 22.2269 128.912 22.6485 129.135 22.9519C129.357 23.2564 129.727 23.409 130.243 23.409C130.734 23.409 131.102 23.2509 131.343 22.9353C131.584 22.6196 131.715 22.2214 131.737 21.7399C131.761 21.4182 131.772 21.2002 131.772 21.0854C131.772 20.9595 131.761 20.7476 131.737 20.4497C131.715 20.0021 131.581 19.6316 131.335 19.3393C131.088 19.0469 130.724 18.9011 130.243 18.9011ZM87.5399 18.9006C87.0474 18.9006 86.6811 19.0582 86.4407 19.3737C86.2002 19.6888 86.0689 20.0882 86.0451 20.5697C86.0354 20.694 86.0303 20.8657 86.0289 21.0857L86.0285 21.2236C86.0285 21.4988 86.0335 21.7112 86.0451 21.8599C86.0689 22.3074 86.203 22.6769 86.449 22.9692C86.6955 23.262 87.059 23.4085 87.5399 23.4085C88.0562 23.4085 88.4252 23.2565 88.6491 22.952C88.8723 22.6486 89.0014 22.2265 89.0347 21.6879C89.0463 21.5736 89.0529 21.395 89.0529 21.1543C89.0529 20.913 89.0463 20.7355 89.0347 20.6207C89.0014 20.0815 88.8723 19.66 88.6491 19.3566C88.4252 19.0526 88.0562 18.9006 87.5399 18.9006ZM119.813 18.4535C119.377 18.4535 119.042 18.6055 118.808 18.9089C118.574 19.2129 118.456 19.6406 118.456 20.1908V20.2252H121.187V20.1908C121.187 19.6406 121.068 19.2129 120.827 18.9089C120.586 18.6055 120.249 18.4535 119.813 18.4535ZM64.7722 12.9477C64.898 12.9477 65.0049 12.991 65.0897 13.0769C65.1751 13.1629 65.2188 13.2688 65.2188 13.3948V14.995C65.2188 15.122 65.1751 15.2274 65.0897 15.3134C65.0049 15.3994 64.898 15.4426 64.7722 15.4426H62.6243C62.4968 15.4426 62.3949 15.3994 62.3134 15.3134C62.2342 15.2274 62.1938 15.122 62.1938 14.995V13.3948C62.1938 13.2688 62.237 13.1629 62.3235 13.0769C62.4087 12.991 62.5096 12.9477 62.6243 12.9477H64.7722ZM101.409 12.9477C101.534 12.9477 101.641 12.991 101.726 13.0769C101.811 13.1629 101.855 13.2688 101.855 13.3948V14.995C101.855 15.122 101.811 15.2274 101.726 15.3134C101.641 15.3994 101.534 15.4426 101.409 15.4426H99.2606C99.1332 15.4426 99.0312 15.3994 98.9498 15.3134C98.8706 15.2274 98.8301 15.122 98.8301 14.995V13.3948C98.8301 13.2688 98.8733 13.1629 98.9597 13.0769C99.0451 12.991 99.1459 12.9477 99.2606 12.9477H101.409Z" fill="white"/>
<circle cx="20.2505" cy="20.8965" r="20" fill="#070906"/>
<path fill-rule="evenodd" clip-rule="evenodd" d="M28.7166 17.7739V24.9114L28.2711 25.3574L24.7062 28.9271L22.4785 31.1574C21.4935 32.1429 19.8979 32.1429 18.9136 31.1574C17.9293 30.1719 17.9293 28.5738 18.9136 27.5883L21.1413 25.3574L24.7062 21.789L25.1517 21.3429L28.7166 17.7739ZM27.8257 16.8816L24.2608 20.4506L23.8152 20.8967L20.2503 24.4658L19.8048 24.9118H12.6751L16.6855 20.8967L20.2503 17.3276L20.6959 16.8816H27.8257ZM18.0222 10.6356C19.0066 9.65011 20.6028 9.65011 21.5871 10.6356C22.5715 11.6211 22.5715 13.2192 21.5871 14.2047L15.3484 20.4507L11.7842 24.0191V16.8816L12.2297 16.4349L15.794 12.8665L18.0222 10.6356Z" fill="#FFAD00"/>
</svg>
