<svg width="118" height="41" viewBox="0 0 118 41" fill="none" xmlns="http://www.w3.org/2000/svg">
<g clip-path="url(#clip0_462_800)">
<path d="M49.4751 16.5201C49.842 16.3733 50.2823 16.1531 50.6492 16.0064C51.0895 15.7862 51.4564 15.5661 51.8967 15.346C52.683 14.888 53.3997 14.3196 54.0247 13.6582H56.1527V27.5272H53.1441V17.474C52.7292 17.7616 52.2867 18.0074 51.8233 18.2078C51.3472 18.4349 50.857 18.631 50.3557 18.7949L49.4751 16.5201Z" fill="white"/>
<path d="M70.1684 20.4812C70.1684 22.8294 69.7281 24.5905 68.8475 25.838C68.4203 26.4076 67.8664 26.8699 67.2295 27.1883C66.5927 27.5067 65.8905 27.6725 65.1785 27.6725C64.4665 27.6725 63.7643 27.5067 63.1274 27.1883C62.4906 26.8699 61.9366 26.4076 61.5094 25.838C60.6289 24.5905 60.1886 22.8294 60.1886 20.4812C60.1842 19.4427 60.3074 18.4076 60.5555 17.3992C60.7625 16.5868 61.1102 15.8169 61.5828 15.1244C61.9924 14.5289 62.5484 14.0487 63.1972 13.7302C63.8344 13.4057 64.5369 13.23 65.2519 13.2165C65.9687 13.1868 66.6813 13.3396 67.3231 13.6604C67.9648 13.9813 68.5145 14.4598 68.9209 15.051C69.8015 16.2985 70.1684 18.2064 70.1684 20.4812ZM67.0864 20.4812C67.1 19.8444 67.0755 19.2072 67.013 18.5733C66.965 18.0754 66.8667 17.5837 66.7195 17.1057C66.6031 16.7452 66.4018 16.4181 66.1324 16.1517C65.8724 15.9131 65.5314 15.782 65.1785 15.7848C64.8281 15.7954 64.4917 15.9248 64.2245 16.1517C63.9552 16.4181 63.7539 16.7452 63.6375 17.1057C63.4554 17.5742 63.3561 18.0708 63.344 18.5733C63.2799 19.2071 63.2554 19.8443 63.2706 20.4812C63.2554 21.1181 63.2799 21.7553 63.344 22.3891C63.3844 22.8881 63.4829 23.3806 63.6375 23.8567C63.7539 24.2172 63.9552 24.5444 64.2245 24.8107C64.4846 25.0493 64.8255 25.1804 65.1785 25.1776C65.5289 25.167 65.8653 25.0376 66.1324 24.8107C66.4018 24.5444 66.6031 24.2172 66.7195 23.8567C66.8667 23.3787 66.965 22.887 67.013 22.3891C67.0786 21.7554 67.1031 21.1181 67.0864 20.4812Z" fill="white"/>
<path d="M81.7628 15.1258C81.9095 15.6395 82.1297 16.2999 82.2764 16.9603C82.4966 17.6208 82.6433 18.3546 82.8635 19.0884L83.5239 21.2898C83.744 22.0236 83.9642 22.684 84.1843 23.3445C84.3311 22.684 84.5512 21.9502 84.698 21.143C84.8448 20.3358 85.0649 19.5287 85.2117 18.6481C85.3584 17.7675 85.5052 16.9603 85.6519 16.0798C85.7987 15.1992 85.9455 14.392 86.0922 13.6582H89.321C88.8807 16.0064 88.2936 18.3546 87.7066 20.7028C87.1196 23.1243 86.4591 25.3257 85.7253 27.5272H82.8635C82.4232 26.2797 81.9095 24.8855 81.4692 23.4912C81.029 22.097 80.5887 20.7028 80.1484 19.2351C79.7081 20.6294 79.2678 22.0236 78.9009 23.4912C78.534 24.9588 78.0203 26.2063 77.5801 27.5272H74.7182C73.9844 25.3991 73.324 23.1243 72.7369 20.7028C72.1499 18.2812 71.5628 15.933 71.1226 13.6582H74.4981L74.9384 16.0798C75.0851 16.9603 75.2319 17.7675 75.452 18.6481C75.5988 19.5287 75.8189 20.3358 75.9657 21.143C76.1085 21.8899 76.3047 22.6256 76.5527 23.3445C76.7729 22.684 76.993 22.0236 77.2865 21.2898L77.947 19.0884C78.1671 18.3546 78.3872 17.6208 78.534 16.9603C78.6808 16.2999 78.9009 15.6395 79.0477 15.1258H81.7628Z" fill="white"/>
<path d="M90.0547 22.3159C90.015 20.776 90.5665 19.2793 91.5957 18.1332C92.0571 17.6829 92.6068 17.333 93.2101 17.1059C93.7959 16.8786 94.4165 16.7545 95.0446 16.739C95.6975 16.7039 96.3503 16.8103 96.9582 17.0509C97.5661 17.2916 98.1149 17.6608 98.5669 18.1332C99.5228 19.2513 99.9977 20.7022 99.8878 22.1691V22.7562C99.8997 22.9547 99.8748 23.1537 99.8144 23.3432H93.0634C93.0977 23.6363 93.194 23.9187 93.3458 24.1717C93.4976 24.4248 93.7015 24.6426 93.9439 24.8108C94.5571 25.1955 95.2766 25.3753 95.9986 25.3245C96.5394 25.312 97.0788 25.263 97.613 25.1777C98.0664 25.1091 98.5099 24.9859 98.9338 24.8108L99.3007 27.2324C99.0887 27.3281 98.8674 27.4019 98.6403 27.4525L97.7597 27.6727C97.4244 27.7626 97.0795 27.8119 96.7324 27.8194C96.3688 27.8804 96.0001 27.905 95.6317 27.8928C94.7794 27.909 93.932 27.7595 93.1367 27.4525C92.4718 27.1928 91.871 26.7923 91.3756 26.2784C90.9072 25.7745 90.5564 25.1731 90.3483 24.5173C90.1428 23.8019 90.0439 23.0601 90.0547 22.3159ZM97.0259 21.1418C97.0125 20.8914 96.9631 20.6443 96.8791 20.408C96.7854 20.1731 96.6621 19.9512 96.5122 19.7476C96.3704 19.5402 96.164 19.3854 95.9252 19.3073C95.6517 19.1752 95.3461 19.1243 95.0446 19.1605C94.7456 19.1675 94.4491 19.2169 94.1641 19.3073C93.9555 19.4361 93.759 19.5834 93.577 19.7476C93.4123 19.9413 93.2876 20.1658 93.2101 20.408C93.1367 20.7015 93.0633 20.9217 92.99 21.1418H97.0259Z" fill="white"/>
<path d="M111.996 22.2432C111.993 23.016 111.869 23.7836 111.629 24.518C111.405 25.1834 111.028 25.7868 110.528 26.2791C110.063 26.7772 109.484 27.1549 108.84 27.3798C108.082 27.626 107.289 27.7498 106.492 27.7467C106.124 27.7588 105.755 27.7343 105.391 27.6733C105.024 27.6 104.584 27.6 104.217 27.5266L103.117 27.3064C102.75 27.2331 102.456 27.1597 102.163 27.0863V12.4101L105.171 11.8965V17.1065C105.859 16.7762 106.61 16.6009 107.373 16.5928C108.05 16.5944 108.721 16.7187 109.354 16.9598C109.901 17.2419 110.397 17.614 110.822 18.0605C111.216 18.5915 111.514 19.1876 111.702 19.8216C111.912 20.6112 112.011 21.4262 111.996 22.2432ZM108.987 22.1698C108.987 20.2619 108.253 19.3079 106.859 19.3079C106.561 19.321 106.265 19.3703 105.978 19.4547C105.718 19.5075 105.469 19.6069 105.245 19.7482V25.1784C105.391 25.1784 105.611 25.2518 105.832 25.2518H106.565C106.913 25.2663 107.258 25.201 107.576 25.0611C107.894 24.9212 108.176 24.7103 108.4 24.4446C108.791 23.7507 108.994 22.9663 108.987 22.1698Z" fill="white"/>
<path d="M6.13839 13.5028L19.4902 0.150947C19.6563 -0.0121418 19.8798 -0.103516 20.1125 -0.103516C20.3453 -0.103516 20.5688 -0.0121418 20.7349 0.150947L39.9705 19.4998C40.1336 19.6658 40.225 19.8893 40.225 20.1221C40.225 20.3549 40.1336 20.5783 39.9705 20.7444L39.8574 20.8576C39.09 21.6187 38.0529 22.0459 36.972 22.0459C35.8912 22.0459 34.8541 21.6187 34.0867 20.8576L20.5086 7.27946C20.3425 7.11637 20.119 7.025 19.8862 7.025C19.6535 7.025 19.43 7.11637 19.2639 7.27946L11.6828 14.8606C10.9154 15.6218 9.87831 16.0489 8.79744 16.0489C7.71657 16.0489 6.67948 15.6218 5.91209 14.8606C5.8339 14.6333 5.81364 14.3901 5.85316 14.153C5.89267 13.9159 5.99071 13.6924 6.13839 13.5028Z" fill="white"/>
<path d="M34.1998 26.2893L20.8479 39.6411C20.6819 39.8042 20.4584 39.8956 20.2256 39.8956C19.9928 39.8956 19.7694 39.8042 19.6033 39.6411L0.254463 20.2923C0.0913739 20.1262 0 19.9028 0 19.67C0 19.4372 0.0913739 19.2137 0.254463 19.0477C1.02186 18.2865 2.05894 17.8594 3.13981 17.8594C4.22069 17.8594 5.25777 18.2865 6.02516 19.0477L19.4901 32.5126C19.6562 32.6757 19.8797 32.7671 20.1125 32.7671C20.3452 32.7671 20.5687 32.6757 20.7348 32.5126L28.3159 24.9315C29.0833 24.1703 30.1204 23.7432 31.2013 23.7432C32.2821 23.7432 33.3192 24.1703 34.0866 24.9315C34.1866 25.0109 34.2693 25.1099 34.3295 25.2225C34.3898 25.335 34.4263 25.4587 34.4369 25.5859C34.4475 25.7132 34.432 25.8412 34.3912 25.9622C34.3504 26.0832 34.2852 26.1945 34.1998 26.2893Z" fill="white"/>
<path d="M21.527 19.5L18.2457 16.2187C17.8083 15.7392 17.5659 15.1137 17.5659 14.4648C17.5659 13.8159 17.8083 13.1904 18.2457 12.711L18.3588 12.5978C18.583 12.3568 18.8544 12.1647 19.1562 12.0332C19.4579 11.9018 19.7835 11.834 20.1126 11.834C20.4418 11.834 20.7674 11.9018 21.0691 12.0332C21.3709 12.1647 21.6423 12.3568 21.8665 12.5978L28.6555 19.3869C28.8186 19.553 28.91 19.7764 28.91 20.0092C28.91 20.242 28.8186 20.4655 28.6555 20.6315L22.0928 27.1943C21.8686 27.4353 21.5972 27.6275 21.2954 27.7589C20.9937 27.8903 20.6681 27.9581 20.339 27.9581C20.0098 27.9581 19.6842 27.8903 19.3825 27.7589C19.0807 27.6275 18.8093 27.4353 18.5851 27.1943C18.3441 26.9701 18.1519 26.6987 18.0205 26.3969C17.8891 26.0952 17.8213 25.7696 17.8213 25.4405C17.8213 25.1113 17.8891 24.7857 18.0205 24.484C18.1519 24.1822 18.3441 23.9108 18.5851 23.6866L21.6402 20.6315C21.7588 20.4602 21.8126 20.2523 21.7919 20.045C21.7711 19.8376 21.6773 19.6444 21.527 19.5Z" fill="white"/>
<path d="M17.4532 19.161L16.3217 18.0295C16.0975 17.7885 15.8261 17.5963 15.5243 17.4649C15.2226 17.3335 14.897 17.2656 14.5679 17.2656C14.2387 17.2656 13.9131 17.3335 13.6114 17.4649C13.3096 17.5963 13.0382 17.7885 12.814 18.0295C12.3767 18.5089 12.1343 19.1344 12.1343 19.7833C12.1343 20.4322 12.3767 21.0577 12.814 21.5371C13.0382 21.7781 13.3096 21.9703 13.6114 22.1017C13.9131 22.2332 14.2387 22.301 14.5679 22.301C14.897 22.301 15.2226 22.2332 15.5243 22.1017C15.8261 21.9703 16.0975 21.7781 16.3217 21.5371L17.4532 20.4056C17.6163 20.2395 17.7077 20.0161 17.7077 19.7833C17.7077 19.5505 17.6163 19.3271 17.4532 19.161Z" fill="white"/>
</g>
<defs>
<clipPath id="clip0_462_800">
<rect width="118" height="40" fill="white" transform="translate(0 0.326172)"/>
</clipPath>
</defs>
</svg>
