<svg width="177" height="41" viewBox="0 0 177 41" fill="none" xmlns="http://www.w3.org/2000/svg">
<path d="M50 28.8965V12.8965H53.0168V26.149H59.3237L59.1082 28.8965H50Z" fill="white"/>
<path d="M78.2085 28.8965H74.976L73.4407 24.6945H67.3801L65.8448 28.8965H62.7202L68.7269 12.8965H72.2286L78.2085 28.8965ZM72.6327 22.2702L71.0165 17.9335C70.8908 17.5923 70.7831 17.2691 70.6933 16.9638C70.6215 16.6585 70.5496 16.3623 70.4778 16.0749H70.343C70.2712 16.3623 70.1905 16.6585 70.1007 16.9638C70.0289 17.2691 69.9301 17.5923 69.8043 17.9335L68.1343 22.2702H72.6327Z" fill="white"/>
<path d="M92.9928 12.8965L87.1476 28.8965H83.6191L77.7739 12.8965H81.0332L84.8581 23.6439C84.9659 23.9852 85.0647 24.3263 85.1544 24.6675C85.2442 25.0087 85.325 25.3229 85.3969 25.6103H85.5046C85.5764 25.3229 85.6573 25.0087 85.747 24.6675C85.8368 24.3263 85.9356 23.9852 86.0433 23.6439L89.8951 12.8965H92.9928Z" fill="white"/>
<path d="M106.519 12.8965L106.276 15.5901H99.1384V19.5228H105.064V22.1625H99.1384V26.2029H106.654V28.8965H96.1216V12.8965H106.519Z" fill="white"/>
<path d="M124.898 12.8965V28.8965H122.258L115.497 19.4419C115.264 19.1367 115.049 18.8224 114.851 18.4992C114.653 18.176 114.474 17.8707 114.312 17.5834H114.205V28.8965H111.295V12.8965H114.258L120.696 21.8931C120.93 22.2164 121.145 22.5396 121.343 22.8628C121.558 23.168 121.738 23.4644 121.881 23.7517H121.988V12.8965H124.898Z" fill="white"/>
<path d="M144.158 20.8964C144.158 22.4768 143.799 23.8684 143.08 25.0716C142.362 26.2747 141.339 27.2175 140.01 27.8998C138.681 28.5643 137.101 28.8965 135.27 28.8965H129.855V12.8965H135.27C137.101 12.8965 138.681 13.2377 140.01 13.9201C141.339 14.5845 142.362 15.5183 143.08 16.7214C143.799 17.9066 144.158 19.2983 144.158 20.8964ZM141.007 20.8964C141.007 19.7651 140.773 18.7954 140.306 17.9874C139.839 17.1793 139.175 16.5598 138.314 16.1288C137.451 15.6978 136.437 15.4823 135.27 15.4823H132.873V26.3106H135.27C136.455 26.3106 137.469 26.0951 138.314 25.6642C139.175 25.2332 139.839 24.6136 140.306 23.8055C140.773 22.9795 141.007 22.0098 141.007 20.8964Z" fill="white"/>
<path d="M158.921 12.8965L158.677 15.5901H151.54V19.5228H157.466V22.1625H151.54V26.2029H159.055V28.8965H148.522V12.8965H158.921Z" fill="white"/>
<path d="M175.201 18.149C175.201 19.2624 174.886 20.2051 174.258 20.9773C173.647 21.7315 172.875 22.2522 171.941 22.5396L176.25 28.8965H172.722L168.951 23.2668H166.419V28.8965H163.403V12.8965H168.736C170.083 12.8965 171.241 13.103 172.211 13.516C173.18 13.9111 173.916 14.5037 174.419 15.2938C174.94 16.066 175.201 17.0177 175.201 18.149ZM172.13 18.149C172.13 17.5025 171.978 16.9818 171.672 16.5867C171.384 16.1737 170.981 15.8774 170.46 15.6978C169.939 15.5003 169.329 15.4015 168.628 15.4015H166.419V20.8964H168.628C169.329 20.8964 169.939 20.7977 170.46 20.6002C170.981 20.4026 171.384 20.1064 171.672 19.7113C171.978 19.2983 172.13 18.7775 172.13 18.149Z" fill="white"/>
<circle cx="20" cy="20.8965" r="20" fill="#7E54E2"/>
<path d="M19.0282 30.6209C16.9539 29.6015 15.5947 26.5872 15.4818 23.618C15.3689 20.6488 16.0676 18.6648 18.2438 17.194C18.8969 16.7527 19.2858 15.8487 20.5389 16.2039C21.7919 16.5591 23.3133 18.1224 23.961 20.701C24.6087 23.2797 24.0828 25.8074 23.3759 27.4544C22.669 29.1014 21.1025 31.6404 19.0282 30.6209Z" fill="white"/>
<path d="M14.9307 26.6897C14.3125 24.7222 14.2881 22.3511 14.5943 21.3651C14.6376 21.2508 14.5943 21.1401 14.4643 21.1172C14.2039 21.0466 13.7817 20.9552 13.0874 20.8816C12.0415 20.7708 9.66812 20.4546 8.54294 21.7785C7.41776 23.1023 7.80864 24.3032 9.58272 27.6026C11.3568 30.9021 12.6364 31.8521 14.059 31.8959C15.012 31.9253 16.0459 31.2336 16.6247 30.7738C16.9001 30.555 16.9406 30.1659 16.7469 29.8723C16.1998 29.0433 15.1579 27.413 14.9307 26.6897Z" fill="white"/>
<path d="M7.71589 17.6878C7.83208 18.9861 8.2845 20.0422 8.44798 20.3887C8.47914 20.4547 8.56001 20.4784 8.62493 20.445C8.93952 20.2831 9.87082 19.8683 11.2447 19.8152C12.9572 19.749 13.9858 20.3072 14.6635 20.2523C14.8727 20.2353 14.9603 19.5844 14.8629 19.2488C14.7654 18.9132 13.6182 17.3775 12.561 16.4257C11.347 15.3326 10.0855 14.0823 9.00845 14.2171C7.93142 14.3518 7.5733 16.0948 7.71589 17.6878Z" fill="white"/>
<path d="M20.1263 15.1017C19.2416 15.1448 18.6783 15.3777 18.3084 15.7467C18.2322 15.8228 18.0738 15.7546 18.09 15.6481C18.3234 14.1179 18.6875 12.2148 19.8516 11.6947C21.4698 10.9717 22.1574 11.261 23.7869 10.643C25.3632 10.0452 26.0237 11.2135 25.842 13.2062C25.7037 14.7235 24.7491 16.8547 24.1128 18.0985C24.0747 18.1729 23.9682 18.1701 23.9301 18.0957C23.0392 16.3559 21.2516 15.0469 20.1263 15.1017Z" fill="white"/>
<path d="M24.387 31.6305C23.9815 31.6678 23.1746 31.4249 22.8267 30.9982C22.6489 30.7801 22.6872 30.4705 22.8066 30.2156C23.1942 29.3888 24.0964 28.4664 24.4229 27.648C25.0811 25.9981 25.3034 24.5462 25.2029 23.6174C25.0608 22.3047 25.9147 21.5901 27.746 20.81C30.2367 19.749 31.9235 22.151 31.5556 23.5003C31.1414 25.0198 31.1003 26.7292 29.4613 28.6855C28.1838 30.2103 25.5799 31.5207 24.387 31.6305Z" fill="white"/>
<path d="M29.8858 16.9023C31.9293 16.9398 33.152 17.9592 31.291 20.2863C31.24 20.35 31.1463 20.362 31.0804 20.3139C30.4761 19.8726 29.4715 19.3163 28.0935 19.6634C27.1098 19.9111 25.9342 20.5881 25.2025 21.3961C25.1652 21.4372 25.0947 21.4164 25.0872 21.3614C25.0446 21.0492 24.9266 20.2975 24.712 19.7319C24.6587 19.5912 24.6546 19.433 24.7238 19.2994C26.0124 16.8114 28.6328 16.8792 29.8858 16.9023Z" fill="white"/>
<path d="M32.2868 11.8552C32.5223 13.6941 31.1983 14.8845 30.1422 15.2309C29.0861 15.5773 27.5229 15.3778 27.4465 14.5786C27.37 13.7795 28.9412 12.1156 29.5764 10.6469C30.2116 9.1783 32.0513 10.0163 32.2868 11.8552Z" fill="white"/>
</svg>
