<svg width="150" height="37" viewBox="0 0 150 37" fill="none" xmlns="http://www.w3.org/2000/svg">
<path d="M43.832 24.3226H54.5321V21.0827H47.6351V8.87891H43.832V24.3226Z" fill="white"/>
<path d="M60.8716 22.1624C59.3461 22.1624 58.5511 20.8232 58.5511 18.8144C58.5511 16.8057 59.3461 15.4449 60.8716 15.4449C62.3971 15.4449 63.2136 16.8057 63.2136 18.8144C63.2136 20.8232 62.3971 22.1624 60.8716 22.1624ZM60.8931 24.6679C64.4383 24.6679 66.7588 22.1408 66.7588 18.8144C66.7588 15.4881 64.4383 12.9609 60.8931 12.9609C57.3693 12.9609 55.0059 15.4881 55.0059 18.8144C55.0059 22.1408 57.3693 24.6679 60.8931 24.6679Z" fill="white"/>
<path d="M72.896 28.1475C74.5289 28.1475 75.9685 27.7803 76.9354 26.9163C77.8163 26.1171 78.3964 24.9076 78.3964 23.2444V13.2654H75.0446V14.4534H75.0016C74.357 13.5246 73.3687 12.9414 71.9076 12.9414C69.1789 12.9414 67.2881 15.231 67.2881 18.4709C67.2881 21.862 69.5871 23.7196 72.058 23.7196C73.3902 23.7196 74.2281 23.1796 74.8727 22.4452H74.9586V23.5468C74.9586 24.886 74.3355 25.6636 72.853 25.6636C71.6927 25.6636 71.1126 25.1668 70.9192 24.5836H67.5244C67.8682 26.8947 69.8664 28.1475 72.896 28.1475ZM72.8745 21.106C71.5638 21.106 70.7044 20.0261 70.7044 18.3629C70.7044 16.6781 71.5638 15.5982 72.8745 15.5982C74.3355 15.5982 75.109 16.8509 75.109 18.3413C75.109 19.8965 74.4 21.106 72.8745 21.106Z" fill="white"/>
<path d="M85.2876 22.1624C83.7621 22.1624 82.9671 20.8232 82.9671 18.8144C82.9671 16.8057 83.7621 15.4449 85.2876 15.4449C86.8131 15.4449 87.6296 16.8057 87.6296 18.8144C87.6296 20.8232 86.8131 22.1624 85.2876 22.1624ZM85.3091 24.6679C88.8543 24.6679 91.1743 22.1408 91.1743 18.8144C91.1743 15.4881 88.8543 12.9609 85.3091 12.9609C81.7853 12.9609 79.4219 15.4881 79.4219 18.8144C79.4219 22.1408 81.7853 24.6679 85.3091 24.6679Z" fill="white"/>
<path d="M92.1973 24.3226H95.6995V13.2636H92.1973V24.3226ZM92.1973 11.73H95.6995V8.87891H92.1973V11.73Z" fill="white"/>
<path d="M97.2197 27.9747H100.722V23.1796H100.765C101.452 24.1084 102.462 24.67 103.88 24.67C106.76 24.67 108.672 22.3804 108.672 18.7949C108.672 15.4686 106.888 12.9414 103.966 12.9414C102.462 12.9414 101.388 13.611 100.636 14.6046H100.572V13.2654H97.2197V27.9747ZM102.978 21.9484C101.474 21.9484 100.615 20.7173 100.615 18.9245C100.615 17.1317 101.388 15.771 102.914 15.771C104.418 15.771 105.127 17.0237 105.127 18.9245C105.127 20.8037 104.31 21.9484 102.978 21.9484Z" fill="white"/>
<path d="M114.373 24.67C117.253 24.67 119.38 23.4172 119.38 20.998C119.38 18.1685 117.102 17.6717 115.168 17.3477C113.772 17.0885 112.526 16.9805 112.526 16.2029C112.526 15.5118 113.192 15.1878 114.051 15.1878C115.018 15.1878 115.684 15.4902 115.813 16.4837H119.036C118.864 14.3022 117.188 12.9414 114.073 12.9414C111.473 12.9414 109.324 14.151 109.324 16.4837C109.324 19.0757 111.365 19.5941 113.278 19.9181C114.739 20.1773 116.071 20.2853 116.071 21.2788C116.071 21.9916 115.405 22.3804 114.352 22.3804C113.192 22.3804 112.461 21.8404 112.332 20.7389H109.023C109.131 23.1796 111.151 24.67 114.373 24.67Z" fill="white"/>
<path d="M124.137 24.6447C125.663 24.6447 126.629 24.0399 127.424 22.9599H127.489V24.3207H130.841V13.2617H127.338V19.4392C127.338 20.7568 126.608 21.664 125.405 21.664C124.287 21.664 123.75 20.9944 123.75 19.7848V13.2617H120.27V20.5192C120.27 22.9815 121.602 24.6447 124.137 24.6447Z" fill="white"/>
<path d="M132.364 24.3244H135.867V18.1253C135.867 16.8077 136.511 15.8789 137.607 15.8789C138.66 15.8789 139.154 16.5701 139.154 17.7581V24.3244H142.656V18.1253C142.656 16.8077 143.279 15.8789 144.397 15.8789C145.449 15.8789 145.944 16.5701 145.944 17.7581V24.3244H149.446V17.1317C149.446 14.6478 148.2 12.9414 145.707 12.9414C144.289 12.9414 143.107 13.5462 142.248 14.8854H142.205C141.646 13.6974 140.55 12.9414 139.111 12.9414C137.521 12.9414 136.468 13.6974 135.781 14.8422H135.716V13.2654H132.364V24.3244Z" fill="white"/>
<path d="M22.4642 1.46017L18.9432 0.511719L15.976 11.6441L13.2971 1.59371L9.77595 2.54217L12.6703 13.4009L5.46113 6.15369L2.88352 8.74491L10.7911 16.6943L0.943472 14.0417L0 17.5813L10.7597 20.4796C10.6366 19.9455 10.5714 19.3889 10.5714 18.8171C10.5714 14.7693 13.8355 11.488 17.862 11.488C21.8885 11.488 25.1526 14.7693 25.1526 18.8171C25.1526 19.3852 25.0882 19.9383 24.9666 20.4693L34.7452 23.1033L35.6886 19.5637L24.8861 16.6539L34.7344 14.0011L33.7908 10.4614L22.9888 13.3711L30.1979 6.12393L27.6203 3.53272L19.8224 11.3718L22.4642 1.46017Z" fill="url(#paint0_linear_31_328)"/>
<path d="M24.9573 20.5117C24.6554 21.7947 24.018 22.9473 23.1436 23.8708L30.2277 30.9925L32.8053 28.4012L24.9573 20.5117Z" fill="url(#paint1_linear_31_328)"/>
<path d="M23.0722 23.9492C22.1872 24.8579 21.0687 25.5361 19.8145 25.8855L22.3923 35.5567L25.9133 34.6082L23.0722 23.9492Z" fill="url(#paint2_linear_31_328)"/>
<path d="M19.683 25.92C19.1011 26.0704 18.4912 26.1503 17.8626 26.1503C17.1892 26.1503 16.5371 26.0585 15.918 25.8867L13.3379 35.5667L16.8589 36.5152L19.683 25.92Z" fill="url(#paint3_linear_31_328)"/>
<path d="M15.7925 25.8517C14.5574 25.4848 13.4588 24.798 12.5918 23.8867L5.49023 31.0258L8.06785 33.6171L15.7925 25.8517Z" fill="url(#paint4_linear_31_328)"/>
<path d="M12.5338 23.8214C11.6817 22.9043 11.0611 21.7671 10.7656 20.5039L0.955078 23.1465L1.89854 26.6862L12.5338 23.8214Z" fill="url(#paint5_linear_31_328)"/>
<defs>
<linearGradient id="paint0_linear_31_328" x1="0.0906747" y1="11.7923" x2="35.6886" y2="11.7991" gradientUnits="userSpaceOnUse">
<stop stop-color="#A93E17"/>
<stop offset="1" stop-color="#15399A"/>
</linearGradient>
<linearGradient id="paint1_linear_31_328" x1="23.1681" y1="25.7451" x2="32.8053" y2="25.7461" gradientUnits="userSpaceOnUse">
<stop stop-color="#A93E17"/>
<stop offset="1" stop-color="#15399A"/>
</linearGradient>
<linearGradient id="paint2_linear_31_328" x1="19.8299" y1="29.7452" x2="25.9133" y2="29.7456" gradientUnits="userSpaceOnUse">
<stop stop-color="#A93E17"/>
<stop offset="1" stop-color="#15399A"/>
</linearGradient>
<linearGradient id="paint3_linear_31_328" x1="13.354" y1="31.1938" x2="19.683" y2="31.1943" gradientUnits="userSpaceOnUse">
<stop stop-color="#A93E17"/>
<stop offset="1" stop-color="#15399A"/>
</linearGradient>
<linearGradient id="paint4_linear_31_328" x1="5.51641" y1="28.7454" x2="15.7925" y2="28.7467" gradientUnits="userSpaceOnUse">
<stop stop-color="#A93E17"/>
<stop offset="1" stop-color="#15399A"/>
</linearGradient>
<linearGradient id="paint5_linear_31_328" x1="0.984496" y1="23.5909" x2="12.5338" y2="23.5935" gradientUnits="userSpaceOnUse">
<stop stop-color="#A93E17"/>
<stop offset="1" stop-color="#15399A"/>
</linearGradient>
</defs>
</svg>
