<svg width="151" height="37" viewBox="0 0 151 37" fill="none" xmlns="http://www.w3.org/2000/svg">
<path d="M44.0547 24.3426H54.8823V21.0641H47.9031V8.71484H44.0547V24.3426Z" fill="white"/>
<path d="M61.2989 22.1588C59.7552 22.1588 58.9508 20.8036 58.9508 18.7709C58.9508 16.7382 59.7552 15.3612 61.2989 15.3612C62.8426 15.3612 63.6688 16.7382 63.6688 18.7709C63.6688 20.8036 62.8426 22.1588 61.2989 22.1588ZM61.3207 24.6942C64.9081 24.6942 67.2563 22.1369 67.2563 18.7709C67.2563 15.4049 64.9081 12.8477 61.3207 12.8477C57.7549 12.8477 55.3633 15.4049 55.3633 18.7709C55.3633 22.1369 57.7549 24.6942 61.3207 24.6942Z" fill="white"/>
<path d="M73.4638 28.2116C75.1162 28.2116 76.5729 27.84 77.5513 26.9657C78.4428 26.157 79.0298 24.933 79.0298 23.25V13.1521H75.638V14.3542H75.5945C74.9423 13.4144 73.9421 12.8242 72.4637 12.8242C69.7024 12.8242 67.7891 15.1411 67.7891 18.4196C67.7891 21.8512 70.1155 23.7309 72.6159 23.7309C73.9639 23.7309 74.8118 23.1845 75.4641 22.4413H75.5511V23.556C75.5511 24.9112 74.9205 25.698 73.4203 25.698C72.2462 25.698 71.6592 25.1953 71.4635 24.6052H68.0282C68.3761 26.9439 70.3981 28.2116 73.4638 28.2116ZM73.4421 21.0862C72.1158 21.0862 71.2461 19.9933 71.2461 18.3103C71.2461 16.6055 72.1158 15.5126 73.4421 15.5126C74.9205 15.5126 75.7033 16.7803 75.7033 18.2885C75.7033 19.8622 74.9858 21.0862 73.4421 21.0862Z" fill="white"/>
<path d="M86.006 22.1588C84.4623 22.1588 83.6578 20.8036 83.6578 18.7709C83.6578 16.7382 84.4623 15.3612 86.006 15.3612C87.5497 15.3612 88.3759 16.7382 88.3759 18.7709C88.3759 20.8036 87.5497 22.1588 86.006 22.1588ZM86.0277 24.6942C89.6152 24.6942 91.9629 22.1369 91.9629 18.7709C91.9629 15.4049 89.6152 12.8477 86.0277 12.8477C82.462 12.8477 80.0703 15.4049 80.0703 18.7709C80.0703 22.1369 82.462 24.6942 86.0277 24.6942Z" fill="white"/>
<path d="M92.9961 24.3426H96.5401V13.1518H92.9961V24.3426ZM92.9961 11.6H96.5401V8.71484H92.9961V11.6Z" fill="white"/>
<path d="M98.0781 28.0367H101.622V23.1845H101.666C102.361 24.1243 103.383 24.6926 104.818 24.6926C107.732 24.6926 109.667 22.3757 109.667 18.7475C109.667 15.3815 107.862 12.8242 104.905 12.8242C103.383 12.8242 102.296 13.5018 101.535 14.5072H101.47V13.1521H98.0781V28.0367ZM103.905 21.9386C102.383 21.9386 101.513 20.6928 101.513 18.8786C101.513 17.0645 102.296 15.6875 103.84 15.6875C105.362 15.6875 106.079 16.9552 106.079 18.8786C106.079 20.7802 105.253 21.9386 103.905 21.9386Z" fill="white"/>
<path d="M115.437 24.6926C118.351 24.6926 120.503 23.4249 120.503 20.9769C120.503 18.1136 118.199 17.6109 116.242 17.2831C114.828 17.0208 113.567 16.9115 113.567 16.1246C113.567 15.4252 114.241 15.0974 115.111 15.0974C116.09 15.0974 116.764 15.4034 116.894 16.4088H120.155C119.981 14.2012 118.286 12.8242 115.133 12.8242C112.502 12.8242 110.328 14.0482 110.328 16.4088C110.328 19.0316 112.393 19.5562 114.328 19.884C115.807 20.1463 117.155 20.2556 117.155 21.261C117.155 21.9823 116.481 22.3758 115.416 22.3758C114.241 22.3758 113.502 21.8293 113.372 20.7146H110.023C110.132 23.1845 112.176 24.6926 115.437 24.6926Z" fill="white"/>
<path d="M125.316 24.671C126.86 24.671 127.838 24.059 128.643 22.9662H128.708V24.3432H132.1V13.1523H128.556V19.4035C128.556 20.7367 127.816 21.6547 126.599 21.6547C125.468 21.6547 124.925 20.9772 124.925 19.7532V13.1523H121.402V20.4963C121.402 22.988 122.75 24.671 125.316 24.671Z" fill="white"/>
<path d="M133.643 24.3429H137.187V18.0699C137.187 16.7366 137.839 15.7968 138.948 15.7968C140.013 15.7968 140.513 16.4962 140.513 17.6983V24.3429H144.057V18.0699C144.057 16.7366 144.688 15.7968 145.818 15.7968C146.884 15.7968 147.384 16.4962 147.384 17.6983V24.3429H150.928V17.0645C150.928 14.5509 149.667 12.8242 147.145 12.8242C145.71 12.8242 144.514 13.4362 143.644 14.7914H143.601C143.035 13.5892 141.926 12.8242 140.47 12.8242C138.861 12.8242 137.795 13.5892 137.1 14.7476H137.034V13.1521H133.643V24.3429Z" fill="white"/>
<path fill-rule="evenodd" clip-rule="evenodd" d="M7.65704 3.7498C6.37621 4.65012 5.21799 5.7146 4.21255 6.91288C8.32124 6.52942 13.5412 7.15556 19.6015 10.2017C26.073 13.4545 31.2843 13.5645 34.911 12.8612C34.5819 11.8596 34.1676 10.897 33.6769 9.98186C29.5252 10.4221 24.2028 9.83939 18 6.7217C14.0611 4.74188 10.5891 3.92633 7.65704 3.7498ZM31.2517 6.5117C27.9731 2.82922 23.2085 0.511719 17.9055 0.511719C16.3481 0.511719 14.8371 0.711615 13.3966 1.08725C15.3476 1.6224 17.4201 2.40531 19.6015 3.50176C24.1428 5.78439 28.0636 6.51936 31.2517 6.5117ZM35.6864 16.377C31.3049 17.2468 25.2546 17.0681 18 13.4217C11.2178 10.0126 5.81967 10.0556 2.17901 10.8689C1.99109 10.9108 1.8076 10.9549 1.62853 11.0008C1.15188 12.043 0.771399 13.1388 0.498401 14.2768C0.789978 14.1985 1.09128 14.124 1.40214 14.0545C5.8189 13.0679 12.0594 13.1107 19.6015 16.9017C26.3838 20.3107 31.7819 20.2678 35.4226 19.4545C35.5473 19.4266 35.6702 19.3978 35.7911 19.3681C35.8043 19.0844 35.8109 18.7988 35.8109 18.5117C35.8109 17.7895 35.7687 17.0771 35.6864 16.377ZM35.2065 23.1668C30.8675 23.9294 24.9933 23.6367 18 20.1216C11.2178 16.7126 5.81967 16.7555 2.17901 17.5689C1.37089 17.7493 0.643916 17.9692 0.00262315 18.2013C0.000874684 18.3045 0 18.408 0 18.5117C0 28.4528 8.01655 36.5117 17.9055 36.5117C26.1931 36.5117 33.1657 30.8515 35.2065 23.1668Z" fill="url(#paint0_linear_31_363)"/>
<defs>
<linearGradient id="paint0_linear_31_363" x1="0.0909855" y1="18.4875" x2="35.8109" y2="18.4918" gradientUnits="userSpaceOnUse">
<stop stop-color="#A93E17"/>
<stop offset="1" stop-color="#15399A"/>
</linearGradient>
</defs>
</svg>
