<svg width="152" height="37" viewBox="0 0 152 37" fill="none" xmlns="http://www.w3.org/2000/svg">
<path d="M44.2188 24.3426H55.0464V21.0641H48.0671V8.71484H44.2188V24.3426Z" fill="white"/>
<path d="M61.461 22.1588C59.9173 22.1588 59.1129 20.8036 59.1129 18.7709C59.1129 16.7382 59.9173 15.3612 61.461 15.3612C63.0047 15.3612 63.8309 16.7382 63.8309 18.7709C63.8309 20.8036 63.0047 22.1588 61.461 22.1588ZM61.4828 24.6942C65.0702 24.6942 67.4184 22.1369 67.4184 18.7709C67.4184 15.4049 65.0702 12.8477 61.4828 12.8477C57.917 12.8477 55.5254 15.4049 55.5254 18.7709C55.5254 22.1369 57.917 24.6942 61.4828 24.6942Z" fill="white"/>
<path d="M73.6279 28.2116C75.2803 28.2116 76.737 27.84 77.7154 26.9657C78.6068 26.157 79.1939 24.933 79.1939 23.25V13.1521H75.8021V14.3542H75.7586C75.1063 13.4144 74.1062 12.8242 72.6277 12.8242C69.8664 12.8242 67.9531 15.1411 67.9531 18.4196C67.9531 21.8512 70.2796 23.7309 72.7799 23.7309C74.1279 23.7309 74.9759 23.1845 75.6281 22.4413H75.7151V23.556C75.7151 24.9112 75.0846 25.698 73.5844 25.698C72.4103 25.698 71.8232 25.1953 71.6276 24.6052H68.1923C68.5402 26.9439 70.5622 28.2116 73.6279 28.2116ZM73.6061 21.0862C72.2798 21.0862 71.4101 19.9933 71.4101 18.3103C71.4101 16.6055 72.2798 15.5126 73.6061 15.5126C75.0846 15.5126 75.8673 16.7803 75.8673 18.2885C75.8673 19.8622 75.1498 21.0862 73.6061 21.0862Z" fill="white"/>
<path d="M86.1681 22.1588C84.6244 22.1588 83.8199 20.8036 83.8199 18.7709C83.8199 16.7382 84.6244 15.3612 86.1681 15.3612C87.7118 15.3612 88.538 16.7382 88.538 18.7709C88.538 20.8036 87.7118 22.1588 86.1681 22.1588ZM86.1898 24.6942C89.7773 24.6942 92.125 22.1369 92.125 18.7709C92.125 15.4049 89.7773 12.8477 86.1898 12.8477C82.6241 12.8477 80.2324 15.4049 80.2324 18.7709C80.2324 22.1369 82.6241 24.6942 86.1898 24.6942Z" fill="white"/>
<path d="M93.1602 24.3426H96.7041V13.1518H93.1602V24.3426ZM93.1602 11.6H96.7041V8.71484H93.1602V11.6Z" fill="white"/>
<path d="M98.2422 28.0367H101.786V23.1845H101.83C102.525 24.1243 103.547 24.6926 104.982 24.6926C107.896 24.6926 109.831 22.3757 109.831 18.7475C109.831 15.3815 108.026 12.8242 105.069 12.8242C103.547 12.8242 102.46 13.5018 101.699 14.5072H101.634V13.1521H98.2422V28.0367ZM104.069 21.9386C102.547 21.9386 101.677 20.6928 101.677 18.8786C101.677 17.0645 102.46 15.6875 104.004 15.6875C105.526 15.6875 106.243 16.9552 106.243 18.8786C106.243 20.7802 105.417 21.9386 104.069 21.9386Z" fill="white"/>
<path d="M115.601 24.6926C118.515 24.6926 120.667 23.4249 120.667 20.9769C120.667 18.1136 118.363 17.6109 116.406 17.2831C114.993 17.0208 113.731 16.9115 113.731 16.1246C113.731 15.4252 114.405 15.0974 115.275 15.0974C116.254 15.0974 116.928 15.4034 117.058 16.4088H120.319C120.145 14.2012 118.45 12.8242 115.297 12.8242C112.666 12.8242 110.492 14.0482 110.492 16.4088C110.492 19.0316 112.557 19.5562 114.492 19.884C115.971 20.1463 117.319 20.2556 117.319 21.261C117.319 21.9823 116.645 22.3758 115.58 22.3758C114.406 22.3758 113.666 21.8293 113.536 20.7146H110.188C110.296 23.1845 112.34 24.6926 115.601 24.6926Z" fill="white"/>
<path d="M125.48 24.671C127.024 24.671 128.002 24.059 128.807 22.9662H128.872V24.3432H132.264V13.1523H128.72V19.4035C128.72 20.7367 127.98 21.6547 126.763 21.6547C125.632 21.6547 125.089 20.9772 125.089 19.7532V13.1523H121.566V20.4963C121.566 22.988 122.914 24.671 125.48 24.671Z" fill="white"/>
<path d="M133.807 24.3429H137.351V18.0699C137.351 16.7366 138.003 15.7968 139.112 15.7968C140.177 15.7968 140.677 16.4962 140.677 17.6983V24.3429H144.221V18.0699C144.221 16.7366 144.852 15.7968 145.982 15.7968C147.048 15.7968 147.548 16.4962 147.548 17.6983V24.3429H151.092V17.0645C151.092 14.5509 149.831 12.8242 147.309 12.8242C145.874 12.8242 144.678 13.4362 143.808 14.7914H143.765C143.199 13.5892 142.09 12.8242 140.634 12.8242C139.025 12.8242 137.959 13.5892 137.264 14.7476H137.198V13.1521H133.807V24.3429Z" fill="white"/>
<path fill-rule="evenodd" clip-rule="evenodd" d="M22.8794 11.0285C21.4071 10.0396 19.6762 9.51172 17.9055 9.51172V0.511719C21.4468 0.511719 24.9087 1.5674 27.8532 3.54527C30.7978 5.52313 33.0927 8.33435 34.448 11.6234C35.8032 14.9124 36.1578 18.5317 35.4669 22.0233C34.776 25.515 33.0707 28.7223 30.5665 31.2396C28.0625 33.757 24.872 35.4713 21.3987 36.1659C17.9254 36.8604 14.3251 36.5039 11.0533 35.1416C7.78154 33.7791 4.98509 31.4721 3.01762 28.512C1.05014 25.5519 0 22.0718 0 18.5117H8.95274C8.95274 20.2917 9.47782 22.0318 10.4615 23.5119C11.4453 24.9919 12.8435 26.1454 14.4794 26.8266C16.1153 27.5079 17.9154 27.6861 19.6521 27.3387C21.3887 26.9915 22.9839 26.1344 24.2361 24.8757C25.4881 23.617 26.3408 22.0134 26.6862 20.2675C27.0316 18.5217 26.8544 16.7121 26.1767 15.0676C25.4991 13.423 24.3516 12.0174 22.8794 11.0285Z" fill="url(#paint0_linear_31_377)"/>
<path fill-rule="evenodd" clip-rule="evenodd" d="M8.95274 0.511724C8.95274 1.69362 8.72117 2.86394 8.27125 3.95588C7.82133 5.0478 7.16188 6.03996 6.33054 6.87569C5.49921 7.71142 4.51227 8.37435 3.42607 8.82664C2.33987 9.27893 1.17569 9.51172 3.91333e-07 9.51172L0 18.5117C2.35138 18.5117 4.67974 18.0462 6.85214 17.1416C9.02454 16.237 10.9984 14.9111 12.6611 13.2396C14.3238 11.5682 15.6427 9.5839 16.5425 7.40003C17.4424 5.21616 17.9055 2.87551 17.9055 0.511719L8.95274 0.511724Z" fill="url(#paint1_linear_31_377)"/>
<defs>
<linearGradient id="paint0_linear_31_377" x1="0.0909855" y1="18.4875" x2="35.811" y2="18.4918" gradientUnits="userSpaceOnUse">
<stop stop-color="#A93E17"/>
<stop offset="1" stop-color="#15399A"/>
</linearGradient>
<linearGradient id="paint1_linear_31_377" x1="0.0454928" y1="9.49964" x2="17.9055" y2="9.50178" gradientUnits="userSpaceOnUse">
<stop stop-color="#A93E17"/>
<stop offset="1" stop-color="#15399A"/>
</linearGradient>
</defs>
</svg>
