<svg width="152" height="37" viewBox="0 0 152 37" fill="none" xmlns="http://www.w3.org/2000/svg">
<path d="M44.4551 24.3895H55.2827V21.111H48.3035V8.76172H44.4551V24.3895Z" fill="white"/>
<path d="M61.6974 22.2056C60.1537 22.2056 59.3492 20.8505 59.3492 18.8178C59.3492 16.7851 60.1537 15.4081 61.6974 15.4081C63.2411 15.4081 64.0673 16.7851 64.0673 18.8178C64.0673 20.8505 63.2411 22.2056 61.6974 22.2056ZM61.7191 24.7411C65.3066 24.7411 67.6547 22.1838 67.6547 18.8178C67.6547 15.4518 65.3066 12.8945 61.7191 12.8945C58.1534 12.8945 55.7617 15.4518 55.7617 18.8178C55.7617 22.1838 58.1534 24.7411 61.7191 24.7411Z" fill="white"/>
<path d="M73.8652 28.2585C75.5176 28.2585 76.9743 27.8869 77.9527 27.0126C78.8441 26.2039 79.4312 24.9799 79.4312 23.2969V13.199H76.0394V14.4011H75.9959C75.3436 13.4612 74.3435 12.8711 72.865 12.8711C70.1038 12.8711 68.1904 15.1879 68.1904 18.4665C68.1904 21.8981 70.5169 23.7778 73.0172 23.7778C74.3652 23.7778 75.2132 23.2313 75.8655 22.4882H75.9524V23.6029C75.9524 24.958 75.3219 25.7449 73.8217 25.7449C72.6476 25.7449 72.0606 25.2422 71.8649 24.652H68.4296C68.7775 26.9907 70.7995 28.2585 73.8652 28.2585ZM73.8434 21.1331C72.5171 21.1331 71.6475 20.0402 71.6475 18.3572C71.6475 16.6524 72.5171 15.5595 73.8434 15.5595C75.3219 15.5595 76.1046 16.8272 76.1046 18.3354C76.1046 19.9091 75.3871 21.1331 73.8434 21.1331Z" fill="white"/>
<path d="M86.4044 22.2056C84.8607 22.2056 84.0562 20.8505 84.0562 18.8178C84.0562 16.7851 84.8607 15.4081 86.4044 15.4081C87.9481 15.4081 88.7743 16.7851 88.7743 18.8178C88.7743 20.8505 87.9481 22.2056 86.4044 22.2056ZM86.4261 24.7411C90.0136 24.7411 92.3613 22.1838 92.3613 18.8178C92.3613 15.4518 90.0136 12.8945 86.4261 12.8945C82.8604 12.8945 80.4688 15.4518 80.4688 18.8178C80.4688 22.1838 82.8604 24.7411 86.4261 24.7411Z" fill="white"/>
<path d="M93.3975 24.3895H96.9414V13.1987H93.3975V24.3895ZM93.3975 11.6468H96.9414V8.76172H93.3975V11.6468Z" fill="white"/>
<path d="M98.4785 28.0836H102.023V23.2313H102.066C102.762 24.1712 103.784 24.7395 105.219 24.7395C108.132 24.7395 110.067 22.4226 110.067 18.7944C110.067 15.4284 108.263 12.8711 105.306 12.8711C103.784 12.8711 102.697 13.5487 101.936 14.5541H101.87V13.199H98.4785V28.0836ZM104.305 21.9855C102.783 21.9855 101.914 20.7396 101.914 18.9255C101.914 17.1114 102.697 15.7344 104.24 15.7344C105.762 15.7344 106.48 17.0021 106.48 18.9255C106.48 20.8271 105.653 21.9855 104.305 21.9855Z" fill="white"/>
<path d="M115.837 24.7395C118.75 24.7395 120.903 23.4718 120.903 21.0238C120.903 18.1605 118.598 17.6578 116.641 17.3299C115.228 17.0676 113.967 16.9584 113.967 16.1715C113.967 15.4721 114.641 15.1442 115.511 15.1442C116.489 15.1442 117.163 15.4502 117.293 16.4557H120.555C120.381 14.2481 118.685 12.8711 115.532 12.8711C112.901 12.8711 110.727 14.0951 110.727 16.4557C110.727 19.0785 112.793 19.6031 114.728 19.9309C116.206 20.1932 117.554 20.3025 117.554 21.3079C117.554 22.0292 116.88 22.4226 115.815 22.4226C114.641 22.4226 113.902 21.8762 113.771 20.7615H110.423C110.532 23.2313 112.575 24.7395 115.837 24.7395Z" fill="white"/>
<path d="M125.717 24.7179C127.261 24.7179 128.239 24.1059 129.044 23.013H129.109V24.39H132.501V13.1992H128.957V19.4503C128.957 20.7836 128.218 21.7016 127 21.7016C125.87 21.7016 125.326 21.024 125.326 19.8V13.1992H121.804V20.5432C121.804 23.0349 123.152 24.7179 125.717 24.7179Z" fill="white"/>
<path d="M134.043 24.3898H137.587V18.1168C137.587 16.7835 138.239 15.8437 139.348 15.8437C140.413 15.8437 140.914 16.5431 140.914 17.7452V24.3898H144.458V18.1168C144.458 16.7835 145.088 15.8437 146.219 15.8437C147.284 15.8437 147.784 16.5431 147.784 17.7452V24.3898H151.328V17.1114C151.328 14.5978 150.067 12.8711 147.545 12.8711C146.11 12.8711 144.914 13.4831 144.044 14.8382H144.001C143.436 13.6361 142.327 12.8711 140.87 12.8711C139.261 12.8711 138.196 13.6361 137.5 14.7945H137.435V13.199H134.043V24.3898Z" fill="white"/>
<path fill-rule="evenodd" clip-rule="evenodd" d="M17.9055 36.5117C27.7944 36.5117 35.811 28.4528 35.811 18.5117C35.811 8.5706 27.7944 0.511719 17.9055 0.511719C8.01655 0.511719 0 8.5706 0 18.5117C0 28.4528 8.01655 36.5117 17.9055 36.5117ZM23.4914 8.89688C23.7633 7.92597 22.826 7.35184 21.9701 7.96489L10.0209 16.5223C9.0926 17.1872 9.23862 18.5117 10.2403 18.5117H13.3868V18.4872H19.5192L14.5224 20.2596L12.3196 28.1266C12.0477 29.0975 12.9849 29.6716 13.841 29.0585L25.7901 20.5012C26.7184 19.8363 26.5723 18.5117 25.5708 18.5117H20.7991L23.4914 8.89688Z" fill="url(#paint0_linear_31_314)"/>
<defs>
<linearGradient id="paint0_linear_31_314" x1="0.0909856" y1="18.4875" x2="35.811" y2="18.4918" gradientUnits="userSpaceOnUse">
<stop stop-color="#A93E17"/>
<stop offset="1" stop-color="#15399A"/>
</linearGradient>
</defs>
</svg>
