<svg width="152" height="37" viewBox="0 0 152 37" fill="none" xmlns="http://www.w3.org/2000/svg">
<path d="M44.4551 24.3895H55.2827V21.111H48.3035V8.76172H44.4551V24.3895Z" fill="white"/>
<path d="M61.6974 22.2056C60.1537 22.2056 59.3492 20.8505 59.3492 18.8178C59.3492 16.7851 60.1537 15.4081 61.6974 15.4081C63.2411 15.4081 64.0673 16.7851 64.0673 18.8178C64.0673 20.8505 63.2411 22.2056 61.6974 22.2056ZM61.7191 24.7411C65.3066 24.7411 67.6547 22.1838 67.6547 18.8178C67.6547 15.4518 65.3066 12.8945 61.7191 12.8945C58.1534 12.8945 55.7617 15.4518 55.7617 18.8178C55.7617 22.1838 58.1534 24.7411 61.7191 24.7411Z" fill="white"/>
<path d="M73.8661 28.2585C75.5186 28.2585 76.9753 27.8869 77.9537 27.0126C78.8451 26.2039 79.4322 24.9799 79.4322 23.2969V13.199H76.0404V14.4011H75.9969C75.3446 13.4612 74.3445 12.8711 72.866 12.8711C70.1047 12.8711 68.1914 15.1879 68.1914 18.4665C68.1914 21.8981 70.5178 23.7778 73.0182 23.7778C74.3662 23.7778 75.2142 23.2313 75.8664 22.4882H75.9534V23.6029C75.9534 24.958 75.3229 25.7449 73.8227 25.7449C72.6486 25.7449 72.0615 25.2422 71.8659 24.652H68.4306C68.7784 26.9907 70.8005 28.2585 73.8661 28.2585ZM73.8444 21.1331C72.5181 21.1331 71.6484 20.0402 71.6484 18.3572C71.6484 16.6524 72.5181 15.5595 73.8444 15.5595C75.3229 15.5595 76.1056 16.8272 76.1056 18.3354C76.1056 19.9091 75.3881 21.1331 73.8444 21.1331Z" fill="white"/>
<path d="M86.4044 22.2056C84.8607 22.2056 84.0562 20.8505 84.0562 18.8178C84.0562 16.7851 84.8607 15.4081 86.4044 15.4081C87.9481 15.4081 88.7743 16.7851 88.7743 18.8178C88.7743 20.8505 87.9481 22.2056 86.4044 22.2056ZM86.4261 24.7411C90.0136 24.7411 92.3613 22.1838 92.3613 18.8178C92.3613 15.4518 90.0136 12.8945 86.4261 12.8945C82.8604 12.8945 80.4688 15.4518 80.4688 18.8178C80.4688 22.1838 82.8604 24.7411 86.4261 24.7411Z" fill="white"/>
<path d="M93.3965 24.3895H96.9405V13.1987H93.3965V24.3895ZM93.3965 11.6468H96.9405V8.76172H93.3965V11.6468Z" fill="white"/>
<path d="M98.4785 28.0836H102.023V23.2313H102.066C102.762 24.1712 103.784 24.7395 105.219 24.7395C108.132 24.7395 110.067 22.4226 110.067 18.7944C110.067 15.4284 108.263 12.8711 105.306 12.8711C103.784 12.8711 102.697 13.5487 101.936 14.5541H101.87V13.199H98.4785V28.0836ZM104.305 21.9855C102.783 21.9855 101.914 20.7396 101.914 18.9255C101.914 17.1114 102.697 15.7344 104.24 15.7344C105.762 15.7344 106.48 17.0021 106.48 18.9255C106.48 20.8271 105.653 21.9855 104.305 21.9855Z" fill="white"/>
<path d="M115.836 24.7395C118.749 24.7395 120.902 23.4718 120.902 21.0238C120.902 18.1605 118.597 17.6578 116.64 17.3299C115.227 17.0676 113.966 16.9584 113.966 16.1715C113.966 15.4721 114.64 15.1442 115.51 15.1442C116.488 15.1442 117.162 15.4502 117.292 16.4557H120.554C120.38 14.2481 118.684 12.8711 115.531 12.8711C112.9 12.8711 110.726 14.0951 110.726 16.4557C110.726 19.0785 112.792 19.6031 114.727 19.9309C116.205 20.1932 117.553 20.3025 117.553 21.3079C117.553 22.0292 116.879 22.4226 115.814 22.4226C114.64 22.4226 113.901 21.8762 113.77 20.7615H110.422C110.531 23.2313 112.574 24.7395 115.836 24.7395Z" fill="white"/>
<path d="M125.718 24.7179C127.262 24.7179 128.24 24.1059 129.045 23.013H129.11V24.39H132.502V13.1992H128.958V19.4503C128.958 20.7836 128.219 21.7016 127.001 21.7016C125.87 21.7016 125.327 21.024 125.327 19.8V13.1992H121.805V20.5432C121.805 23.0349 123.153 24.7179 125.718 24.7179Z" fill="white"/>
<path d="M134.043 24.3898H137.587V18.1168C137.587 16.7835 138.239 15.8437 139.348 15.8437C140.413 15.8437 140.914 16.5431 140.914 17.7452V24.3898H144.458V18.1168C144.458 16.7835 145.088 15.8437 146.219 15.8437C147.284 15.8437 147.784 16.5431 147.784 17.7452V24.3898H151.328V17.1114C151.328 14.5978 150.067 12.8711 147.545 12.8711C146.11 12.8711 144.914 13.4831 144.044 14.8382H144.001C143.436 13.6361 142.327 12.8711 140.87 12.8711C139.261 12.8711 138.196 13.6361 137.5 14.7945H137.435V13.199H134.043V24.3898Z" fill="white"/>
<path fill-rule="evenodd" clip-rule="evenodd" d="M17.9055 36.5117C27.7944 36.5117 35.811 28.4528 35.811 18.5117C35.811 8.5706 27.7944 0.511719 17.9055 0.511719C8.01655 0.511719 0 8.5706 0 18.5117C0 28.4528 8.01655 36.5117 17.9055 36.5117ZM23.4914 8.89688C23.7633 7.92597 22.826 7.35184 21.9701 7.96489L10.0209 16.5223C9.0926 17.1872 9.23862 18.5117 10.2403 18.5117H13.3868V18.4872H19.5192L14.5224 20.2596L12.3196 28.1266C12.0477 29.0975 12.9849 29.6716 13.841 29.0585L25.7901 20.5012C26.7184 19.8363 26.5723 18.5117 25.5708 18.5117H20.7991L23.4914 8.89688Z" fill="url(#paint0_linear_31_393)"/>
<defs>
<linearGradient id="paint0_linear_31_393" x1="0.0909856" y1="18.4875" x2="35.811" y2="18.4918" gradientUnits="userSpaceOnUse">
<stop stop-color="#A93E17"/>
<stop offset="1" stop-color="#15399A"/>
</linearGradient>
</defs>
</svg>
