<svg width="21" height="21" viewBox="0 0 21 21" fill="none" xmlns="http://www.w3.org/2000/svg">
<path d="M10.4512 0.0117188C15.974 0.0117188 20.4512 4.48887 20.4512 10.0117C20.4512 15.5346 15.974 20.0117 10.4512 20.0117C4.92832 20.0117 0.451172 15.5346 0.451172 10.0117C0.451172 4.48887 4.92832 0.0117188 10.4512 0.0117188ZM10.4512 1.01172C5.48061 1.01172 1.45117 5.04116 1.45117 10.0117C1.45117 14.9823 5.48061 19.0117 10.4512 19.0117C15.4217 19.0117 19.4512 14.9823 19.4512 10.0117C19.4512 5.04116 15.4217 1.01172 10.4512 1.01172ZM10.4512 7.01172C12.108 7.01172 13.4512 8.35486 13.4512 10.0117C13.4512 11.6686 12.108 13.0117 10.4512 13.0117C8.79432 13.0117 7.45117 11.6686 7.45117 10.0117C7.45117 8.35486 8.79432 7.01172 10.4512 7.01172Z" fill="#A03028"/>
</svg>
