<svg width="60" height="60" viewBox="0 0 60 60" fill="none" xmlns="http://www.w3.org/2000/svg">
<path d="M19.2854 55.7154C28.7532 55.7154 36.4283 48.0403 36.4283 38.5725C36.4283 29.1048 28.7532 21.4297 19.2854 21.4297C9.8177 21.4297 2.14258 29.1048 2.14258 38.5725C2.14258 48.0403 9.8177 55.7154 19.2854 55.7154Z" stroke="#A03028" stroke-width="1.5" stroke-linecap="round" stroke-linejoin="round"/>
<path d="M40.7141 55.7154C50.1819 55.7154 57.857 48.0403 57.857 38.5725C57.857 29.1048 50.1819 21.4297 40.7141 21.4297C31.2464 21.4297 23.5713 29.1048 23.5713 38.5725C23.5713 48.0403 31.2464 55.7154 40.7141 55.7154Z" stroke="#A03028" stroke-width="1.5" stroke-linecap="round" stroke-linejoin="round"/>
<path d="M29.9993 38.5709C39.467 38.5709 47.1422 30.8958 47.1422 21.428C47.1422 11.9603 39.467 4.28516 29.9993 4.28516C20.5316 4.28516 12.8564 11.9603 12.8564 21.428C12.8564 30.8958 20.5316 38.5709 29.9993 38.5709Z" stroke="#A03028" stroke-width="1.5" stroke-linecap="round" stroke-linejoin="round"/>
</svg>
