<svg width="41" height="41" viewBox="0 0 41 41" fill="none" xmlns="http://www.w3.org/2000/svg">
<g clip-path="url(#clip0_31_688)">
<path d="M15.7667 24.2109H3.62388C2.83491 24.2109 2.19531 24.8505 2.19531 25.6395V37.7824C2.19531 38.5713 2.83491 39.2109 3.62388 39.2109H15.7667C16.5557 39.2109 17.1953 38.5713 17.1953 37.7824V25.6395C17.1953 24.8505 16.5557 24.2109 15.7667 24.2109Z" stroke="#A03028" stroke-width="1.5" stroke-linecap="round" stroke-linejoin="round"/>
<path d="M37.9074 24.2109H25.7645C24.9755 24.2109 24.3359 24.8505 24.3359 25.6395V37.7824C24.3359 38.5713 24.9755 39.2109 25.7645 39.2109H37.9074C38.6963 39.2109 39.3359 38.5713 39.3359 37.7824V25.6395C39.3359 24.8505 38.6963 24.2109 37.9074 24.2109Z" stroke="#A03028" stroke-width="1.5" stroke-linecap="round" stroke-linejoin="round"/>
<path d="M26.8527 2.07031H14.7098C13.9208 2.07031 13.2812 2.70991 13.2812 3.49888V15.6417C13.2812 16.4307 13.9208 17.0703 14.7098 17.0703H26.8527C27.6417 17.0703 28.2812 16.4307 28.2812 15.6417V3.49888C28.2812 2.70991 27.6417 2.07031 26.8527 2.07031Z" stroke="#A03028" stroke-width="1.5" stroke-linecap="round" stroke-linejoin="round"/>
</g>
<defs>
<clipPath id="clip0_31_688">
<rect width="40" height="40" fill="white" transform="translate(0.765625 0.640625)"/>
</clipPath>
</defs>
</svg>
