<svg width="40" height="41" viewBox="0 0 40 41" fill="none" xmlns="http://www.w3.org/2000/svg">
<path d="M14.9433 6.85156L16.1719 3.68013C16.3791 3.14317 16.7436 2.68131 17.2178 2.35503C17.6919 2.02875 18.2535 1.85326 18.829 1.85156H21.1719C21.7474 1.85326 22.3091 2.02875 22.7832 2.35503C23.2573 2.68131 23.6218 3.14317 23.829 3.68013L25.0576 6.85156L29.229 9.25156L32.6005 8.73728C33.1618 8.66108 33.7332 8.75349 34.2419 9.00277C34.7507 9.25205 35.1738 9.64695 35.4576 10.1373L36.6005 12.1373C36.8933 12.6354 37.0282 13.2106 36.9874 13.7871C36.9466 14.3635 36.732 14.9139 36.3719 15.3658L34.2862 18.023V22.823L36.429 25.4801C36.7892 25.932 37.0038 26.4825 37.0446 27.0589C37.0854 27.6353 36.9505 28.2106 36.6576 28.7087L35.5148 30.7087C35.231 31.199 34.8078 31.5939 34.2991 31.8432C33.7904 32.0925 33.219 32.1849 32.6576 32.1087L29.2862 31.5944L25.1148 33.9944L23.8862 37.1658C23.679 37.7028 23.3145 38.1647 22.8403 38.491C22.3662 38.8172 21.8046 38.9927 21.229 38.9944H18.829C18.2535 38.9927 17.6919 38.8172 17.2178 38.491C16.7436 38.1647 16.3791 37.7028 16.1719 37.1658L14.9433 33.9944L10.7719 31.5944L7.40047 32.1087C6.83909 32.1849 6.26773 32.0925 5.75899 31.8432C5.25025 31.5939 4.82711 31.199 4.54333 30.7087L3.40047 28.7087C3.10762 28.2106 2.97269 27.6353 3.0135 27.0589C3.0543 26.4825 3.26893 25.932 3.62904 25.4801L5.71475 22.823V18.023L3.5719 15.3658C3.21178 14.9139 2.99716 14.3635 2.95635 13.7871C2.91555 13.2106 3.05047 12.6354 3.34333 12.1373L4.48618 10.1373C4.76996 9.64695 5.19311 9.25205 5.70185 9.00277C6.21058 8.75349 6.78195 8.66108 7.34333 8.73728L10.7148 9.25156L14.9433 6.85156Z" stroke="#A03028" stroke-width="1.5" stroke-linecap="round" stroke-linejoin="round"/>
<path d="M20.0011 28.9944C24.735 28.9944 28.5725 25.1569 28.5725 20.423C28.5725 15.6891 24.735 11.8516 20.0011 11.8516C15.2672 11.8516 11.4297 15.6891 11.4297 20.423C11.4297 25.1569 15.2672 28.9944 20.0011 28.9944Z" stroke="#A03028" stroke-width="1.5" stroke-linecap="round" stroke-linejoin="round"/>
<path d="M20 11.8516V20.423H28.5714" stroke="#A03028" stroke-width="1.5" stroke-linecap="round" stroke-linejoin="round"/>
<path d="M20.0025 20.4219L13.9453 26.479" stroke="#A03028" stroke-width="1.5" stroke-linecap="round" stroke-linejoin="round"/>
</svg>
