<svg width="60" height="60" viewBox="0 0 60 60" fill="none" xmlns="http://www.w3.org/2000/svg">
<path d="M30 57.3838C32.814 57.3838 35.6005 56.8295 38.2004 55.7527C40.8002 54.6758 43.1625 53.0974 45.1523 51.1075C47.1421 49.1177 48.7205 46.7554 49.7974 44.1556C50.8743 41.5558 51.4286 38.7693 51.4286 35.9552V24.041C51.4289 18.7768 49.4914 13.6966 45.9857 9.76953" stroke="#A03028" stroke-width="1.5" stroke-linecap="round" stroke-linejoin="round"/>
<path d="M8.57129 28.7969V35.954C8.56985 40.1724 9.81352 44.2974 12.1464 47.812C14.4793 51.3266 17.7977 54.0744 21.6856 55.7112" stroke="#A03028" stroke-width="1.5" stroke-linecap="round" stroke-linejoin="round"/>
<path d="M40.7143 5.48412C35.7926 2.64264 29.9437 1.87261 24.4543 3.34343C18.9649 4.81424 14.2846 8.40541 11.4429 13.327C10.2728 15.3478 9.4472 17.5493 9 19.8413" stroke="#A03028" stroke-width="1.5" stroke-linecap="round" stroke-linejoin="round"/>
<path d="M27.7715 15.041C29.3478 14.7137 30.9774 14.7445 32.5402 15.1309C34.103 15.5173 35.5592 16.2496 36.8013 17.2738C38.0434 18.2979 39.0398 19.5878 39.7171 21.0483C40.3943 22.5088 40.7351 24.1027 40.7143 25.7124V32.6124" stroke="#A03028" stroke-width="1.5" stroke-linecap="round" stroke-linejoin="round"/>
<path d="M37.9713 41.6115C36.5131 43.2358 34.5935 44.3759 32.4696 44.8794C30.3456 45.3828 28.1185 45.2255 26.0864 44.4285C24.0543 43.6315 22.3141 42.2329 21.0987 40.4197C19.8833 38.6066 19.2507 36.4655 19.2855 34.2829V25.7115C19.2774 24.2396 19.569 22.7814 20.1427 21.4258" stroke="#A03028" stroke-width="1.5" stroke-linecap="round" stroke-linejoin="round"/>
<path d="M30 26.1836V33.3407" stroke="#A03028" stroke-width="1.5" stroke-linecap="round" stroke-linejoin="round"/>
</svg>
