<svg width="30" height="31" viewBox="0 0 30 31" fill="none" xmlns="http://www.w3.org/2000/svg">
<g clip-path="url(#clip0_31_283)">
<path d="M6.96415 13.2779C10.2187 13.2779 12.857 10.6396 12.857 7.38504C12.857 4.13051 10.2187 1.49219 6.96415 1.49219C3.70961 1.49219 1.07129 4.13051 1.07129 7.38504C1.07129 10.6396 3.70961 13.2779 6.96415 13.2779Z" stroke="#A03028" stroke-width="1.5" stroke-linecap="round" stroke-linejoin="round"/>
<path d="M23.0354 13.2779C26.29 13.2779 28.9283 10.6396 28.9283 7.38504C28.9283 4.13051 26.29 1.49219 23.0354 1.49219C19.7809 1.49219 17.1426 4.13051 17.1426 7.38504C17.1426 10.6396 19.7809 13.2779 23.0354 13.2779Z" stroke="#A03028" stroke-width="1.5" stroke-linecap="round" stroke-linejoin="round"/>
<path d="M6.96415 29.3482C10.2187 29.3482 12.857 26.7099 12.857 23.4554C12.857 20.2008 10.2187 17.5625 6.96415 17.5625C3.70961 17.5625 1.07129 20.2008 1.07129 23.4554C1.07129 26.7099 3.70961 29.3482 6.96415 29.3482Z" stroke="#A03028" stroke-width="1.5" stroke-linecap="round" stroke-linejoin="round"/>
<path d="M23.0354 29.3482C26.29 29.3482 28.9283 26.7099 28.9283 23.4554C28.9283 20.2008 26.29 17.5625 23.0354 17.5625C19.7809 17.5625 17.1426 20.2008 17.1426 23.4554C17.1426 26.7099 19.7809 29.3482 23.0354 29.3482Z" stroke="#A03028" stroke-width="1.5" stroke-linecap="round" stroke-linejoin="round"/>
</g>
<defs>
<clipPath id="clip0_31_283">
<rect width="30" height="30" fill="white" transform="translate(0 0.421875)"/>
</clipPath>
</defs>
</svg>
