<svg width="41" height="41" viewBox="0 0 41 41" fill="none" xmlns="http://www.w3.org/2000/svg">
<g clip-path="url(#clip0_20_1303)">
<path d="M21.6614 20.2243C21.2377 20.4083 20.7806 20.5033 20.3186 20.5033C19.8566 20.5033 19.3995 20.4083 18.9757 20.2243L2.69 12.6814C2.42555 12.548 2.20331 12.3439 2.04804 12.0916C1.89276 11.8394 1.81055 11.549 1.81055 11.2529C1.81055 10.9567 1.89276 10.6663 2.04804 10.4141C2.20331 10.1618 2.42555 9.95767 2.69 9.82429L18.9757 2.22429C19.3995 2.04027 19.8566 1.94531 20.3186 1.94531C20.7806 1.94531 21.2377 2.04027 21.6614 2.22429L37.9471 9.76714C38.2116 9.90053 38.4338 10.1047 38.5891 10.3569C38.7444 10.6092 38.8266 10.8995 38.8266 11.1957C38.8266 11.4919 38.7444 11.7823 38.5891 12.0345C38.4338 12.2867 38.2116 12.4909 37.9471 12.6243L21.6614 20.2243Z" stroke="#A03028" stroke-width="1.5" stroke-linecap="round" stroke-linejoin="round"/>
<path d="M38.8899 21.5117L21.4614 29.5403C21.0891 29.7101 20.6848 29.7979 20.2756 29.7979C19.8665 29.7979 19.4622 29.7101 19.0899 29.5403L1.74707 21.5117" stroke="#A03028" stroke-width="1.5" stroke-linecap="round" stroke-linejoin="round"/>
<path d="M38.8899 30.7969L21.4614 38.8254C21.0891 38.9952 20.6848 39.0831 20.2756 39.0831C19.8665 39.0831 19.4622 38.9952 19.0899 38.8254L1.74707 30.7969" stroke="#A03028" stroke-width="1.5" stroke-linecap="round" stroke-linejoin="round"/>
</g>
<defs>
<clipPath id="clip0_20_1303">
<rect width="40" height="40" fill="white" transform="translate(0.318359 0.511719)"/>
</clipPath>
</defs>
</svg>
