<svg width="40" height="41" viewBox="0 0 40 41" fill="none" xmlns="http://www.w3.org/2000/svg">
<path d="M35.7154 1.82812H4.28683C2.70887 1.82812 1.42969 3.10731 1.42969 4.68527V36.1138C1.42969 37.6918 2.70887 38.971 4.28683 38.971H35.7154C37.2934 38.971 38.5725 37.6918 38.5725 36.1138V4.68527C38.5725 3.10731 37.2934 1.82812 35.7154 1.82812Z" stroke="#A03028" stroke-width="1.5" stroke-linecap="round" stroke-linejoin="round"/>
<path d="M20 33.2578C25.5228 33.2578 30 28.7807 30 23.2578C30 17.735 25.5228 13.2578 20 13.2578C14.4772 13.2578 10 17.735 10 23.2578C10 28.7807 14.4772 33.2578 20 33.2578Z" stroke="#A03028" stroke-width="1.5" stroke-linecap="round" stroke-linejoin="round"/>
<path d="M1.42969 10.3984H10.0011" stroke="#A03028" stroke-width="1.5" stroke-linecap="round" stroke-linejoin="round"/>
<path d="M30 10.3984H38.5714" stroke="#A03028" stroke-width="1.5" stroke-linecap="round" stroke-linejoin="round"/>
<path d="M20 23.1719V33.1719" stroke="#A03028" stroke-width="1.5" stroke-linecap="round" stroke-linejoin="round"/>
<path d="M11.4297 18.1133L20.0011 23.1704" stroke="#A03028" stroke-width="1.5" stroke-linecap="round" stroke-linejoin="round"/>
<path d="M28.5714 18.1133L20 23.1704" stroke="#A03028" stroke-width="1.5" stroke-linecap="round" stroke-linejoin="round"/>
</svg>
