<svg width="60" height="60" viewBox="0 0 60 60" fill="none" xmlns="http://www.w3.org/2000/svg">
<path d="M19.2854 2.14453H6.42829C4.06136 2.14453 2.14258 4.06331 2.14258 6.43025V19.2874C2.14258 21.6543 4.06136 23.5731 6.42829 23.5731H19.2854C21.6524 23.5731 23.5711 21.6543 23.5711 19.2874V6.43025C23.5711 4.06331 21.6524 2.14453 19.2854 2.14453Z" stroke="#A03028" stroke-width="1.5" stroke-linecap="round" stroke-linejoin="round"/>
<path d="M50.7141 2.14453H37.857C35.4901 2.14453 33.5713 4.06331 33.5713 6.43025V19.2874C33.5713 21.6543 35.4901 23.5731 37.857 23.5731H50.7141C53.0811 23.5731 54.9999 21.6543 54.9999 19.2874V6.43025C54.9999 4.06331 53.0811 2.14453 50.7141 2.14453Z" stroke="#A03028" stroke-width="1.5" stroke-linecap="round" stroke-linejoin="round"/>
<path d="M19.2854 33.5742H6.42829C4.06136 33.5742 2.14258 35.493 2.14258 37.8599V50.7171C2.14258 53.084 4.06136 55.0028 6.42829 55.0028H19.2854C21.6524 55.0028 23.5711 53.084 23.5711 50.7171V37.8599C23.5711 35.493 21.6524 33.5742 19.2854 33.5742Z" stroke="#A03028" stroke-width="1.5" stroke-linecap="round" stroke-linejoin="round"/>
<path d="M50.7141 33.5742H37.857C35.4901 33.5742 33.5713 35.493 33.5713 37.8599V50.7171C33.5713 53.084 35.4901 55.0028 37.857 55.0028H50.7141C53.0811 55.0028 54.9999 53.084 54.9999 50.7171V37.8599C54.9999 35.493 53.0811 33.5742 50.7141 33.5742Z" stroke="#A03028" stroke-width="1.5" stroke-linecap="round" stroke-linejoin="round"/>
</svg>
