<svg width="60" height="60" viewBox="0 0 60 60" fill="none" xmlns="http://www.w3.org/2000/svg">
<path d="M45.6004 6.60156H14.4004C13.6811 6.62131 12.9766 6.81006 12.3437 7.15254C11.7109 7.49502 11.1675 7.98162 10.7576 8.57299L2.95757 19.373C2.37839 20.1915 2.08914 21.1799 2.13572 22.1815C2.18231 23.1831 2.56206 24.1404 3.21472 24.9016L26.6147 51.8587C27.0153 52.3749 27.5287 52.7926 28.1155 53.08C28.7023 53.3674 29.347 53.5168 30.0004 53.5168C30.6538 53.5168 31.2986 53.3674 31.8854 53.08C32.4722 52.7926 32.9855 52.3749 33.3861 51.8587L56.7861 24.9016C57.4388 24.1404 57.8186 23.1831 57.8651 22.1815C57.9117 21.1799 57.6225 20.1915 57.0433 19.373L49.2433 8.57299C48.8333 7.98162 48.29 7.49502 47.6571 7.15254C47.0243 6.81006 46.3197 6.62131 45.6004 6.60156V6.60156Z" stroke="#A03028" stroke-width="1.5" stroke-linecap="round" stroke-linejoin="round"/>
<path d="M27.7716 6.55859L17.3145 22.7586L30.0002 53.4015" stroke="#A03028" stroke-width="1.5" stroke-linecap="round" stroke-linejoin="round"/>
<path d="M32.3571 6.55859L42.7714 22.7586L30 53.4015" stroke="#A03028" stroke-width="1.5" stroke-linecap="round" stroke-linejoin="round"/>
<path d="M2.22852 22.7578H57.7714" stroke="#A03028" stroke-width="1.5" stroke-linecap="round" stroke-linejoin="round"/>
</svg>
