<svg width="30" height="31" viewBox="0 0 30 31" fill="none" xmlns="http://www.w3.org/2000/svg">
<path d="M22.8012 3.72266H7.20119C6.84154 3.73253 6.48926 3.82691 6.17284 3.99814C5.85642 4.16938 5.58474 4.41268 5.37976 4.70837L1.47976 10.1084C1.19017 10.5176 1.04554 11.0118 1.06884 11.5126C1.09213 12.0134 1.28201 12.4921 1.60834 12.8727L13.3083 26.3512C13.5086 26.6093 13.7653 26.8182 14.0587 26.9619C14.3521 27.1056 14.6745 27.1803 15.0012 27.1803C15.3279 27.1803 15.6503 27.1056 15.9437 26.9619C16.2371 26.8182 16.4937 26.6093 16.6941 26.3512L28.3941 12.8727C28.7204 12.4921 28.9103 12.0134 28.9335 11.5126C28.9568 11.0118 28.8122 10.5176 28.5226 10.1084L24.6226 4.70837C24.4176 4.41268 24.146 4.16938 23.8295 3.99814C23.5131 3.82691 23.1608 3.73253 22.8012 3.72266V3.72266Z" stroke="#A03028" stroke-width="1.5" stroke-linecap="round" stroke-linejoin="round"/>
<path d="M13.8868 3.70312L8.6582 11.8031L15.0011 27.1246" stroke="#A03028" stroke-width="1.5" stroke-linecap="round" stroke-linejoin="round"/>
<path d="M16.1805 3.70312L21.3877 11.8031L15.002 27.1246" stroke="#A03028" stroke-width="1.5" stroke-linecap="round" stroke-linejoin="round"/>
<path d="M1.11523 11.8047H28.8867" stroke="#A03028" stroke-width="1.5" stroke-linecap="round" stroke-linejoin="round"/>
</svg>
