<svg width="92" height="30" viewBox="0 0 92 30" fill="none" xmlns="http://www.w3.org/2000/svg">
<g clip-path="url(#clip0_31_966)">
<mask id="mask0_31_966" style="mask-type:luminance" maskUnits="userSpaceOnUse" x="0" y="0" width="120" height="30">
<path d="M119.962 0.316406H0V29.203H119.962V0.316406Z" fill="white"/>
</mask>
<g mask="url(#mask0_31_966)">
<path d="M34.8174 10.2717H37.5977V17.9792H39.0779V10.2717H41.8582V8.95703H34.8174V10.2717Z" fill="white"/>
<path d="M43.955 18.0205L43.6976 18.665C43.4916 19.2063 43.185 19.3352 42.6444 19.3352L42.1148 20.5597H43.3371C44.3025 20.5597 44.5857 20.0828 44.9976 19.013L47.9838 11.3828H46.5036L44.7144 16.3966L42.8738 11.3828H41.3936L43.955 18.0205Z" fill="white"/>
<path d="M51.9526 11.3047C50.9228 11.3047 50.2406 11.7816 49.8031 12.3616L49.6356 11.382H48.4258V20.5589H49.8161V17.0531C50.2279 17.646 50.9358 18.0584 51.9526 18.0584C53.7548 18.0584 55.0676 16.718 55.0676 14.6815C55.0676 12.5678 53.7548 11.3047 51.9526 11.3047ZM51.7208 16.8855C50.5625 16.8855 49.8031 15.9704 49.8031 14.6558C49.8031 13.3798 50.5625 12.4904 51.7208 12.4904C52.8795 12.4904 53.6516 13.3798 53.6516 14.6815C53.6516 15.9704 52.8795 16.8855 51.7208 16.8855Z" fill="white"/>
<path d="M59.054 18.0584C60.6888 18.0584 61.7954 17.066 62.0272 15.7642H60.6372C60.444 16.4989 59.8261 16.9242 58.9768 16.9242C57.8827 16.9242 57.1745 16.1895 57.1359 15.0682V14.978H62.1044C62.13 14.7975 62.143 14.6171 62.143 14.4496C62.1044 12.5162 60.8303 11.3047 58.9252 11.3047C56.9814 11.3047 55.6816 12.658 55.6816 14.6944C55.6816 16.718 56.9814 18.0584 59.054 18.0584ZM57.1875 13.9598C57.2904 13.0189 58.0498 12.426 58.9381 12.426C59.9033 12.426 60.5855 12.9803 60.7014 13.9598H57.1875Z" fill="white"/>
<path d="M64.2999 17.9819H65.8058L67.2474 13.4966L68.6374 17.9819H70.1303L72.3188 11.3828H70.9028L69.3456 16.4352L67.904 11.3828H66.6294L65.1236 16.4352L63.6177 11.3828H62.1504L64.2999 17.9819Z" fill="white"/>
<path d="M72.7959 17.9819H74.1856V11.3828H72.7959V17.9819Z" fill="white"/>
<path d="M75.0068 15.803C75.0451 17.2337 76.255 18.0586 78.0186 18.0586C79.6144 18.0586 80.8117 17.2595 80.8117 15.9964C80.8117 14.527 79.5888 14.2177 78.0832 14.0373C77.1303 13.9342 76.4994 13.8568 76.4994 13.2382C76.4994 12.7098 77.0404 12.3746 77.8641 12.3746C78.6875 12.3746 79.2545 12.7999 79.3314 13.4057H80.6958C80.6056 12.0524 79.4599 11.3048 77.8381 11.3048C76.255 11.2919 75.1353 12.104 75.1353 13.3542C75.1353 14.7204 76.3196 15.0426 77.8251 15.223C78.842 15.352 79.4473 15.4035 79.4473 16.1124C79.4473 16.6408 78.8809 16.9759 78.0186 16.9759C77.0145 16.9759 76.4225 16.4862 76.3709 15.803H75.0068Z" fill="white"/>
<path d="M84.761 18.0584C86.3951 18.0584 87.5025 17.066 87.7338 15.7642H86.3438C86.1507 16.4989 85.5328 16.9242 84.6834 16.9242C83.5894 16.9242 82.8812 16.1895 82.8429 15.0682V14.9779H87.8115C87.8371 14.7975 87.8501 14.6171 87.8501 14.4495C87.8115 12.5162 86.5366 11.3047 84.6322 11.3047C82.6885 11.3047 81.3887 12.658 81.3887 14.6944C81.3887 16.718 82.6885 18.0584 84.761 18.0584ZM82.8942 13.9597C82.9974 13.0189 83.7565 12.426 84.6445 12.426C85.6104 12.426 86.2922 12.9802 86.4081 13.9597H82.8942Z" fill="white"/>
<mask id="mask1_31_966" style="mask-type:luminance" maskUnits="userSpaceOnUse" x="0" y="0" width="29" height="30">
<path d="M28.7606 0.316406H0V29.203H28.7606V0.316406Z" fill="white"/>
</mask>
<g mask="url(#mask1_31_966)">
<path d="M12.1243 29.1262C15.9299 28.3367 19.6806 27.3006 23.353 26.0247C23.8798 25.8424 24.3582 25.542 24.7521 25.1463C25.146 24.7507 25.4451 24.2702 25.6266 23.7411C26.8817 20.0483 27.907 16.2808 28.6965 12.4602C28.8068 11.9273 28.794 11.3761 28.6591 10.849C28.5242 10.3219 28.2709 9.83284 27.9184 9.41947C25.3547 6.48914 22.603 3.73043 19.6808 1.16092C19.2699 0.806164 18.7823 0.552699 18.2566 0.420721C17.7311 0.288743 17.182 0.281902 16.6533 0.400743C12.846 1.18893 9.09424 2.22599 5.42151 3.50529C4.89436 3.68679 4.4155 3.98689 4.02145 4.38265C3.6274 4.77842 3.32861 5.2594 3.14792 5.78886C1.88861 9.4795 0.862291 13.2463 0.0750662 17.0668C-0.0358795 17.5994 -0.0237033 18.1504 0.110657 18.6777C0.245018 19.2048 0.497982 19.6939 0.850092 20.1075C3.41465 23.036 6.16635 25.7937 9.08775 28.363C9.50315 28.71 9.99094 28.9584 10.5151 29.09C11.0392 29.2216 11.5861 29.233 12.1152 29.1231" fill="#1D58E2"/>
<path d="M12.942 15.253C12.8359 15.2261 12.7255 15.2205 12.6172 15.2365C12.5088 15.2526 12.4048 15.2899 12.3109 15.3464C12.2169 15.4029 12.1351 15.4774 12.0699 15.5658C12.0047 15.654 11.9574 15.7544 11.9309 15.8611L11.28 18.7072C11.1977 19.0726 11.0086 19.4049 10.7372 19.6618C10.4657 19.9186 10.124 20.0883 9.75603 20.149C9.38803 20.2098 9.0103 20.1588 8.67128 20.0028C8.33225 19.8466 8.0473 19.5925 7.85292 19.2727C7.59602 18.8461 7.51251 18.3365 7.61978 17.8497L9.32724 8.59995C9.35471 8.48674 9.35888 8.36905 9.33947 8.25416C9.32 8.13932 9.27735 8.02964 9.21423 7.93191C9.15101 7.83418 9.06854 7.75048 8.97193 7.68593C8.87533 7.62143 8.76661 7.57741 8.65244 7.55665C8.53827 7.53588 8.42109 7.53878 8.30809 7.56517C8.19508 7.59156 8.08868 7.64086 7.99531 7.71012C7.90201 7.77937 7.82377 7.86706 7.76542 7.96775C7.70712 8.0685 7.66991 8.18015 7.65612 8.29586L7.04153 11.6041L4.78913 12.3643C4.68359 12.3989 4.58601 12.4543 4.50211 12.5274C4.41822 12.6004 4.34973 12.6896 4.30064 12.7896C4.25155 12.8896 4.22288 12.9984 4.2163 13.1098C4.20974 13.2211 4.22539 13.3326 4.26235 13.4376C4.32107 13.6122 4.43385 13.7633 4.58418 13.869C4.73452 13.9745 4.91454 14.029 5.09793 14.0245C5.1769 14.0205 5.25513 14.0072 5.33104 13.985L6.69341 13.5349L5.95468 17.4879C5.83686 18.0248 5.84306 18.5817 5.97282 19.1158C6.10252 19.65 6.35235 20.1472 6.70308 20.5694C7.05381 20.9915 7.49617 21.3273 7.99618 21.5512C8.4962 21.7749 9.04061 21.8807 9.58762 21.8604C10.1859 21.8306 10.7675 21.6519 11.28 21.3405C11.6801 21.0959 12.0272 20.7732 12.3007 20.3914C12.5743 20.0095 12.7687 19.5764 12.8724 19.1177L13.5324 16.2869C13.5634 16.18 13.5726 16.0679 13.5595 15.9574C13.5465 15.8469 13.5113 15.7403 13.4562 15.6438C13.4011 15.5472 13.3271 15.4629 13.2387 15.3957C13.1504 15.3285 13.0495 15.28 12.942 15.253Z" fill="white"/>
<path d="M11.7332 10.9197C11.6983 10.8148 11.6432 10.7177 11.5707 10.6343C11.4983 10.5508 11.4102 10.4827 11.3113 10.4338C11.2125 10.3848 11.105 10.3561 10.9949 10.3493C10.885 10.3424 10.7746 10.3575 10.6706 10.3937L9.8955 10.6462L9.5625 12.5405L11.1943 11.9932C11.4073 11.9223 11.5835 11.7695 11.6846 11.5683C11.7856 11.3672 11.8031 11.1339 11.7332 10.9197Z" fill="white"/>
<path d="M15.5454 20.2625C15.2191 20.2858 14.8913 20.2581 14.5736 20.1804C14.1162 20.077 13.6842 19.882 13.3034 19.6072C12.9227 19.3324 12.601 18.9834 12.3575 18.581C12.1086 18.1843 11.9425 17.7411 11.8691 17.2779C11.7957 16.8149 11.8166 16.3417 11.9306 15.887C11.9824 15.6696 12.1181 15.4818 12.3076 15.3649C12.4973 15.2481 12.7254 15.2116 12.9418 15.2637C13.1582 15.3157 13.3451 15.4519 13.4615 15.6423C13.5779 15.8328 13.6142 16.0619 13.5624 16.2792C13.5063 16.52 13.4979 16.7696 13.5377 17.0136C13.5777 17.2576 13.6651 17.4914 13.795 17.7015C13.9249 17.9116 14.0947 18.0939 14.2948 18.2381C14.4949 18.3821 14.7213 18.4853 14.9611 18.5415C15.201 18.5984 15.4498 18.6071 15.6931 18.5672C15.9365 18.5274 16.1695 18.4397 16.379 18.3092C16.5886 18.1787 16.7705 18.008 16.9141 17.8068C17.0578 17.6056 17.1606 17.3779 17.2165 17.1367L17.8765 14.3089C17.9014 14.2006 17.9473 14.0985 18.0117 14.0082C18.076 13.9179 18.1576 13.8414 18.2514 13.7828C18.3454 13.7243 18.45 13.685 18.5591 13.6671C18.6682 13.6493 18.7797 13.6534 18.8874 13.679C18.9949 13.7047 19.0963 13.7514 19.1858 13.8166C19.2753 13.8818 19.3512 13.9641 19.4088 14.0588C19.4665 14.1535 19.505 14.2587 19.5221 14.3684C19.5392 14.4782 19.5345 14.5902 19.5083 14.698L18.8483 17.5138C18.7441 17.9723 18.5495 18.4052 18.2761 18.7869C18.0025 19.1688 17.6556 19.4916 17.2559 19.7365C16.7442 20.0652 16.1527 20.2471 15.5454 20.2625Z" fill="white"/>
<path d="M21.4893 18.686C20.8561 18.7094 20.2279 18.5645 19.6682 18.2661C19.1085 17.9677 18.637 17.5263 18.3015 16.9864C18.0528 16.59 17.8868 16.1473 17.8134 15.6847C17.7401 15.2223 17.7609 14.7495 17.8746 14.2953C17.8995 14.1872 17.9455 14.085 18.0098 13.9947C18.0742 13.9044 18.1556 13.8278 18.2496 13.7693C18.3435 13.7108 18.4481 13.6714 18.5572 13.6536C18.6663 13.6359 18.7779 13.6399 18.8854 13.6656C18.9929 13.6912 19.0944 13.7379 19.1839 13.8031C19.2734 13.8683 19.3492 13.9506 19.4069 14.0453C19.4647 14.14 19.5031 14.2453 19.5202 14.355C19.5373 14.4646 19.5326 14.5767 19.5064 14.6845C19.4498 14.9254 19.4411 15.175 19.4809 15.4191C19.5206 15.6633 19.6079 15.8972 19.7378 16.1075C19.8678 16.3176 20.0379 16.5 20.2381 16.644C20.4384 16.7881 20.6651 16.8909 20.9051 16.9468C21.3865 17.0582 21.8921 16.9757 22.3137 16.7172C22.7354 16.4586 23.0394 16.0443 23.1605 15.5633L23.8204 12.7324C23.8723 12.5151 24.0079 12.3273 24.1975 12.2104C24.3872 12.0935 24.6153 12.057 24.8317 12.1091C25.0481 12.1611 25.235 12.2973 25.3514 12.4878C25.4677 12.6783 25.5041 12.9073 25.4523 13.1247L24.7923 15.9524C24.6121 16.7067 24.1923 17.3814 23.5964 17.8746C23.0005 18.3677 22.2609 18.6526 21.4893 18.686Z" fill="white"/>
</g>
</g>
</g>
<defs>
<clipPath id="clip0_31_966">
<rect width="92" height="29" fill="white" transform="translate(0 0.261719)"/>
</clipPath>
</defs>
</svg>
