<svg width="138" height="30" viewBox="0 0 138 30" fill="none" xmlns="http://www.w3.org/2000/svg">
<path d="M50.7458 20.812C47.5945 20.812 45.0402 18.2012 45.0402 14.9801C45.0402 11.7594 47.5945 9.14825 50.7461 9.14825C53.8974 9.14825 56.4514 11.7594 56.4514 14.9801C56.4514 18.2012 53.897 20.812 50.7458 20.812ZM56.4697 21.5516C56.4697 22.0858 57.3849 23.586 58.5063 23.586H59.2324C59.5141 23.586 59.7442 23.3555 59.7442 23.0742V7.11427H59.7416C59.7345 6.98384 59.6779 6.86104 59.5832 6.77103C59.4886 6.68103 59.3631 6.63062 59.2324 6.63015H56.9822C56.7099 6.63015 56.4876 6.84568 56.4723 7.11427H56.4697V8.41123C55.0913 6.71307 52.9172 6.00819 50.7372 6.00819C45.782 6.00819 41.7656 10.025 41.7656 14.9805C41.7656 19.936 45.782 23.9528 50.7372 23.9528C52.9172 23.9528 55.293 23.1071 56.4697 21.5497V21.5523V21.5516ZM65.1211 19.2662C66.6231 20.3066 68.263 20.812 69.8386 20.812C71.3403 20.812 72.8917 20.0335 72.8917 18.679C72.8917 16.871 69.5099 16.5894 67.3855 15.8673C65.26 15.1452 63.4296 13.6521 63.4296 11.2345C63.4296 7.53563 66.7259 6.00781 69.8024 6.00781C71.7516 6.00781 73.7624 6.65032 75.0665 7.57149C75.5159 7.91142 75.242 8.30253 75.242 8.30253L73.9974 10.0799C73.8577 10.2801 73.5678 10.44 73.2619 10.2364C72.4232 9.68205 71.4894 9.14787 69.802 9.14787C67.7135 9.14787 66.795 10.0149 66.795 11.0892C66.795 12.378 68.2641 12.7829 69.9851 13.2222C72.9847 14.0302 76.257 15.0025 76.257 18.6794C76.257 21.9386 73.2081 23.9528 69.8386 23.9528C67.2854 23.9528 65.1114 23.2247 63.2881 21.887C62.9085 21.5068 63.1738 21.1538 63.1738 21.1538L64.4121 19.3854C64.6642 19.0544 64.9817 19.1702 65.1211 19.2662ZM93.1336 21.552C93.1336 22.0858 94.0484 23.586 95.1694 23.586H95.896C96.1776 23.586 96.4081 23.3555 96.4081 23.0742V7.11427H96.4051C96.3979 6.9839 96.3412 6.86121 96.2466 6.77124C96.1519 6.68127 96.0266 6.6308 95.896 6.63015H93.6457C93.373 6.63015 93.1511 6.84568 93.1362 7.11427H93.1336V8.41123C91.7548 6.71307 89.5807 6.00819 87.4011 6.00819C82.4459 6.00819 78.4288 10.025 78.4288 14.9801C78.4288 19.9352 82.4459 23.9524 87.4011 23.9524C89.5807 23.9524 91.9565 23.1067 93.1332 21.5494V21.552H93.1336ZM87.4097 20.8123C84.258 20.8123 81.7037 18.2012 81.7037 14.9801C81.7037 11.7594 84.258 9.14825 87.4097 9.14825C90.5606 9.14825 93.1153 11.7594 93.1153 14.9801C93.1153 18.2012 90.5606 20.812 87.4097 20.812V20.8123ZM116.57 22.1003L116.569 13.8423C116.569 9.1871 113.632 6.04629 108.949 6.04629C106.714 6.04629 104.885 7.33915 104.237 8.44971V8.43402L104.234 8.44672C104.232 7.32308 103.321 6.66862 102.197 6.66862H101.475C101.193 6.66862 100.962 6.89948 100.962 7.18113V23.1414H100.965C100.98 23.4104 101.203 23.6259 101.475 23.6259H103.725C103.759 23.6259 103.793 23.6218 103.826 23.6158C103.841 23.6125 103.854 23.6065 103.869 23.6024C103.886 23.5975 103.903 23.5934 103.919 23.5867C103.94 23.5785 103.958 23.5673 103.976 23.5568C103.985 23.5512 103.995 23.5475 104.004 23.5419C104.026 23.5267 104.047 23.51 104.067 23.4918C104.07 23.4884 104.074 23.4862 104.077 23.4832C104.171 23.3936 104.227 23.2713 104.234 23.1414H104.237V13.7141C104.237 11.214 106.264 9.18672 108.765 9.18672C111.265 9.18672 113.292 11.214 113.292 13.7141L113.294 21.5946L113.294 21.5916C113.294 21.5987 113.296 21.6061 113.296 21.6132V23.1414H113.299C113.314 23.4104 113.536 23.6259 113.808 23.6259H116.058C116.093 23.6259 116.126 23.6218 116.159 23.6158C116.173 23.6128 116.185 23.6072 116.198 23.6043C116.216 23.5986 116.235 23.5938 116.253 23.5867C116.271 23.5792 116.288 23.5684 116.305 23.5587C116.316 23.5531 116.327 23.5486 116.337 23.5419C116.358 23.5277 116.377 23.5116 116.396 23.4952C116.401 23.4914 116.406 23.4877 116.411 23.4829C116.432 23.4627 116.451 23.4403 116.468 23.4171C116.527 23.3374 116.562 23.2421 116.567 23.1429L116.568 23.1414H116.57L116.57 22.1003ZM134.12 21.552C134.12 22.0858 135.034 23.586 136.156 23.586H136.882C137.164 23.586 137.394 23.3555 137.394 23.0742V7.11427H137.392C137.384 6.98387 137.328 6.86117 137.233 6.77121C137.138 6.68125 137.013 6.6308 136.882 6.63015H134.632C134.502 6.63053 134.376 6.68089 134.281 6.77091C134.187 6.86092 134.13 6.98377 134.123 7.11427H134.12V8.41123C132.74 6.71307 130.567 6.00819 128.387 6.00819C123.432 6.00819 119.415 10.025 119.415 14.9801C119.415 19.9352 123.432 23.9524 128.387 23.9524C130.567 23.9524 132.942 23.1067 134.119 21.5494L134.12 21.552ZM128.396 20.8123C125.245 20.8123 122.69 18.2012 122.69 14.9801C122.69 11.7594 125.245 9.14825 128.396 9.14825C131.546 9.14825 134.101 11.7594 134.101 14.9801C134.101 18.2012 131.546 20.812 128.396 20.812V20.8123Z" fill="white"/>
<path d="M25.1609 15.8332C21.3919 15.8332 18.3371 18.888 18.3371 22.6564C18.3371 26.425 21.3919 29.4805 25.1609 29.4805C28.9292 29.4805 31.984 26.425 31.984 22.6564C31.984 18.888 28.9292 15.8332 25.1609 15.8332ZM7.43283 15.8336C3.6645 15.8339 0.609375 18.888 0.609375 22.6567C0.609375 26.425 3.6645 29.4801 7.43283 29.4801C11.2015 29.4801 14.2566 26.425 14.2566 22.6567C14.2566 18.888 11.2018 15.8336 7.43283 15.8336ZM23.1202 7.30392C23.1202 11.0723 20.0654 14.128 16.297 14.128C12.5281 14.128 9.47325 11.0723 9.47325 7.30392C9.47325 3.53559 12.5281 0.480469 16.297 0.480469C20.0654 0.480469 23.1198 3.53559 23.1198 7.30392H23.1202Z" fill="url(#paint0_radial_31_1009)"/>
<defs>
<radialGradient id="paint0_radial_31_1009" cx="0" cy="0" r="1" gradientUnits="userSpaceOnUse" gradientTransform="translate(16.2967 1585.39) scale(2078.98 1921.63)">
<stop stop-color="#FFB900"/>
<stop offset="0.6" stop-color="#F95D8F"/>
<stop offset="0.9991" stop-color="#F95353"/>
</radialGradient>
</defs>
</svg>
