<svg width="86" height="30" viewBox="0 0 86 30" fill="none" xmlns="http://www.w3.org/2000/svg">
<g clip-path="url(#clip0_31_1021)">
<path d="M36.0586 12.0006C36.326 11.8942 36.6469 11.7346 36.9143 11.6282C37.2352 11.4686 37.5026 11.309 37.8235 11.1494C38.3966 10.8174 38.9189 10.4053 39.3744 9.92578H40.9254V19.9808H38.7326V12.6922C38.4302 12.9008 38.1077 13.079 37.77 13.2242C37.423 13.3889 37.0658 13.5311 36.7004 13.6499L36.0586 12.0006Z" fill="white"/>
<path d="M51.1407 14.8711C51.1407 16.5735 50.8198 17.8504 50.178 18.7548C49.8667 19.1677 49.4629 19.5029 48.9988 19.7338C48.5347 19.9646 48.0229 20.0848 47.504 20.0848C46.9851 20.0848 46.4733 19.9646 46.0091 19.7338C45.545 19.5029 45.1413 19.1677 44.8299 18.7548C44.1882 17.8504 43.8673 16.5735 43.8673 14.8711C43.864 14.1182 43.9538 13.3678 44.1347 12.6367C44.2855 12.0476 44.5389 11.4894 44.8834 10.9874C45.1819 10.5556 45.5871 10.2075 46.06 9.9766C46.5244 9.74133 47.0364 9.61399 47.5575 9.60419C48.0799 9.58268 48.5993 9.69341 49.067 9.92603C49.5346 10.1587 49.9353 10.5055 50.2315 10.9342C50.8733 11.8386 51.1407 13.2219 51.1407 14.8711ZM48.8945 14.8711C48.9044 14.4094 48.8866 13.9475 48.841 13.4879C48.806 13.1269 48.7343 12.7704 48.6271 12.4238C48.5423 12.1625 48.3955 11.9253 48.1992 11.7322C48.0097 11.5592 47.7612 11.4642 47.504 11.4662C47.2486 11.4739 47.0034 11.5677 46.8087 11.7322C46.6124 11.9253 46.4657 12.1625 46.3809 12.4238C46.2482 12.7635 46.1758 13.1236 46.167 13.4879C46.1203 13.9474 46.1024 14.4094 46.1135 14.8711C46.1024 15.3328 46.1203 15.7948 46.167 16.2543C46.1965 16.6161 46.2682 16.9731 46.3809 17.3183C46.4657 17.5797 46.6124 17.8169 46.8087 18.01C46.9983 18.183 47.2467 18.278 47.504 18.276C47.7593 18.2683 48.0045 18.1745 48.1992 18.01C48.3955 17.8169 48.5423 17.5797 48.6271 17.3183C48.7343 16.9718 48.806 16.6153 48.841 16.2543C48.8888 15.7949 48.9067 15.3328 48.8945 14.8711Z" fill="white"/>
<path d="M59.5907 10.9898C59.6976 11.3622 59.8581 11.841 59.965 12.3198C60.1255 12.7986 60.2324 13.3306 60.3929 13.8627L60.8742 15.4587C61.0346 15.9907 61.1951 16.4695 61.3555 16.9483C61.4625 16.4695 61.6229 15.9375 61.7299 15.3523C61.8369 14.7671 61.9973 14.1819 62.1043 13.5435C62.2112 12.905 62.3182 12.3198 62.4251 11.6814C62.5321 11.043 62.6391 10.4578 62.746 9.92578H65.0992C64.7783 11.6282 64.3505 13.3306 63.9226 15.0331C63.4948 16.7887 63.0134 18.3847 62.4786 19.9808H60.3929C60.072 19.0764 59.6976 18.0655 59.3767 17.0547C59.0559 16.0439 58.735 15.0331 58.4141 13.9691C58.0932 14.9799 57.7723 15.9907 57.5049 17.0547C57.2375 18.1187 56.8631 19.0232 56.5423 19.9808H54.4565C53.9217 18.4379 53.4404 16.7887 53.0125 15.0331C52.5847 13.2774 52.1568 11.575 51.8359 9.92578H54.2961L54.6169 11.6814C54.7239 12.3198 54.8309 12.905 54.9913 13.5435C55.0983 14.1819 55.2587 14.7671 55.3657 15.3523C55.4698 15.8938 55.6127 16.4272 55.7935 16.9483C55.954 16.4695 56.1144 15.9907 56.3283 15.4587L56.8097 13.8627C56.9701 13.3306 57.1305 12.7986 57.2375 12.3198C57.3445 11.841 57.5049 11.3622 57.6119 10.9898H59.5907Z" fill="white"/>
<path d="M65.6343 16.2043C65.6053 15.0878 66.0072 14.0027 66.7574 13.1718C67.0936 12.8453 67.4942 12.5917 67.934 12.427C68.3609 12.2622 68.8132 12.1722 69.271 12.161C69.7468 12.1356 70.2225 12.2127 70.6656 12.3872C71.1087 12.5616 71.5086 12.8293 71.8381 13.1718C72.5348 13.9824 72.8808 15.0343 72.8007 16.0979V16.5235C72.8094 16.6674 72.7913 16.8117 72.7472 16.9491H67.827C67.852 17.1616 67.9222 17.3663 68.0328 17.5498C68.1435 17.7332 68.2921 17.8911 68.4688 18.0131C68.9156 18.292 69.44 18.4224 69.9662 18.3855C70.3604 18.3765 70.7535 18.3409 71.1428 18.2791C71.4733 18.2293 71.7965 18.14 72.1055 18.0131L72.3729 19.7687C72.2183 19.8381 72.057 19.8916 71.8915 19.9283L71.2498 20.0879C71.0054 20.1531 70.754 20.1889 70.501 20.1943C70.2361 20.2385 69.9673 20.2563 69.6988 20.2475C69.0776 20.2593 68.4601 20.1509 67.8805 19.9283C67.3959 19.74 66.958 19.4497 66.5969 19.0771C66.2556 18.7118 65.9999 18.2757 65.8482 17.8003C65.6985 17.2816 65.6264 16.7438 65.6343 16.2043ZM70.715 15.353C70.7052 15.1715 70.6692 14.9923 70.608 14.821C70.5397 14.6508 70.4498 14.4899 70.3406 14.3422C70.2372 14.1919 70.0868 14.0797 69.9127 14.023C69.7134 13.9273 69.4907 13.8903 69.271 13.9166C69.0531 13.9217 68.837 13.9575 68.6292 14.023C68.4772 14.1164 68.334 14.2232 68.2014 14.3422C68.0813 14.4827 67.9904 14.6454 67.934 14.821C67.8805 15.0338 67.827 15.1934 67.7735 15.353H70.715Z" fill="white"/>
<path d="M81.6235 16.1498C81.6216 16.7101 81.5314 17.2666 81.3561 17.799C81.1934 18.2815 80.9185 18.7189 80.5539 19.0758C80.2148 19.4369 79.7927 19.7108 79.3238 19.8739C78.7711 20.0523 78.1934 20.1421 77.6124 20.1399C77.3439 20.1486 77.0752 20.1308 76.8102 20.0867C76.5428 20.0335 76.2219 20.0335 75.9545 19.9803L75.1523 19.8207C74.8849 19.7674 74.671 19.7142 74.457 19.661V9.02084L76.6497 8.64844V12.4257C77.1507 12.1863 77.6984 12.0591 78.2542 12.0533C78.7477 12.0544 79.2369 12.1446 79.6982 12.3193C80.0971 12.5238 80.4587 12.7936 80.7678 13.1173C81.0551 13.5023 81.2723 13.9345 81.4095 14.3941C81.5628 14.9666 81.6348 15.5575 81.6235 16.1498ZM79.4308 16.0966C79.4308 14.7134 78.8959 14.0217 77.8798 14.0217C77.6623 14.0312 77.4468 14.0669 77.238 14.1281C77.0483 14.1664 76.8671 14.2385 76.7032 14.3409V18.2778C76.8102 18.2778 76.9706 18.331 77.1311 18.331H77.6659C77.9189 18.3415 78.1709 18.2942 78.4027 18.1928C78.6344 18.0913 78.8398 17.9384 79.0029 17.7458C79.288 17.2427 79.4356 16.6741 79.4308 16.0966Z" fill="white"/>
<path d="M4.47416 9.81377L14.2051 0.133704C14.3262 0.0154648 14.4891 -0.0507812 14.6587 -0.0507812C14.8284 -0.0507812 14.9912 0.0154648 15.1123 0.133704L29.1315 14.1616C29.2503 14.282 29.3169 14.444 29.3169 14.6128C29.3169 14.7815 29.2503 14.9436 29.1315 15.064L29.049 15.146C28.4897 15.6979 27.7339 16.0075 26.9461 16.0075C26.1584 16.0075 25.4025 15.6979 24.8433 15.146L14.9473 5.30187C14.8263 5.18364 14.6634 5.11739 14.4938 5.11739C14.3241 5.11739 14.1613 5.18364 14.0402 5.30187L8.51499 10.7982C7.95571 11.35 7.19987 11.6597 6.41211 11.6597C5.62436 11.6597 4.86852 11.35 4.30923 10.7982C4.25224 10.6334 4.23748 10.4571 4.26628 10.2852C4.29508 10.1133 4.36653 9.95126 4.47416 9.81377Z" fill="white"/>
<path d="M24.9252 19.0844L15.1943 28.7644C15.0732 28.8827 14.9103 28.9489 14.7407 28.9489C14.571 28.9489 14.4082 28.8827 14.2871 28.7644L0.185456 14.7365C0.0665945 14.6161 0 14.4541 0 14.2854C0 14.1166 0.0665945 13.9546 0.185456 13.8342C0.744743 13.2823 1.50059 12.9727 2.28834 12.9727C3.07609 12.9727 3.83193 13.2823 4.39122 13.8342L14.2047 23.5963C14.3257 23.7145 14.4886 23.7807 14.6582 23.7807C14.8279 23.7807 14.9907 23.7145 15.1118 23.5963L20.637 18.1C21.1963 17.5481 21.9521 17.2384 22.7399 17.2384C23.5276 17.2384 24.2835 17.5481 24.8428 18.1C24.9157 18.1575 24.9759 18.2293 25.0198 18.3109C25.0637 18.3925 25.0904 18.4822 25.0981 18.5744C25.1058 18.6666 25.0945 18.7595 25.0648 18.8472C25.035 18.9349 24.9875 19.0156 24.9252 19.0844Z" fill="white"/>
<path d="M15.6896 14.1634L13.2981 11.7844C12.9794 11.4368 12.8027 10.9833 12.8027 10.5128C12.8027 10.0424 12.9794 9.58887 13.2981 9.24129L13.3806 9.15925C13.544 8.98454 13.7418 8.8452 13.9617 8.74992C14.1817 8.65464 14.419 8.60547 14.6588 8.60547C14.8987 8.60547 15.136 8.65464 15.3559 8.74992C15.5758 8.8452 15.7737 8.98454 15.937 9.15925L20.885 14.0813C21.0039 14.2017 21.0705 14.3637 21.0705 14.5325C21.0705 14.7013 21.0039 14.8633 20.885 14.9837L16.102 19.7417C15.9386 19.9164 15.7408 20.0557 15.5209 20.151C15.3009 20.2463 15.0636 20.2955 14.8238 20.2955C14.5839 20.2955 14.3466 20.2463 14.1267 20.151C13.9067 20.0557 13.7089 19.9164 13.5455 19.7417C13.3699 19.5792 13.2298 19.3824 13.1341 19.1636C13.0383 18.9448 12.9888 18.7088 12.9888 18.4702C12.9888 18.2315 13.0383 17.9955 13.1341 17.7767C13.2298 17.5579 13.3699 17.3612 13.5455 17.1986L15.7721 14.9837C15.8586 14.8595 15.8978 14.7087 15.8827 14.5584C15.8676 14.4081 15.7991 14.268 15.6896 14.1634Z" fill="white"/>
<path d="M12.7203 13.9132L11.8956 13.0928C11.7322 12.9181 11.5344 12.7788 11.3145 12.6835C11.0945 12.5882 10.8572 12.5391 10.6174 12.5391C10.3775 12.5391 10.1402 12.5882 9.92028 12.6835C9.70036 12.7788 9.50254 12.9181 9.33915 13.0928C9.02043 13.4404 8.84375 13.8939 8.84375 14.3644C8.84375 14.8348 9.02043 15.2883 9.33915 15.6359C9.50254 15.8106 9.70036 15.95 9.92028 16.0452C10.1402 16.1405 10.3775 16.1897 10.6174 16.1897C10.8572 16.1897 11.0945 16.1405 11.3145 16.0452C11.5344 15.95 11.7322 15.8106 11.8956 15.6359L12.7203 14.8156C12.8391 14.6952 12.9057 14.5331 12.9057 14.3644C12.9057 14.1956 12.8391 14.0336 12.7203 13.9132Z" fill="white"/>
</g>
<defs>
<clipPath id="clip0_31_1021">
<rect width="86" height="29" fill="white" transform="translate(0 0.261719)"/>
</clipPath>
</defs>
</svg>
