<svg width="109" height="31" viewBox="0 0 109 31" fill="none" xmlns="http://www.w3.org/2000/svg">
<path d="M12.3304 5.78157H28.4864L28.7164 4.75758C29.0527 3.16864 27.8493 1.66797 26.2213 1.66797H10.5254C8.49043 1.66797 6.73858 3.08036 6.29619 5.05772L2.86325 20.8766C2.52705 22.4655 3.73033 23.9662 5.35833 23.9662H6.31388L9.8176 7.79423C10.083 6.62901 11.1271 5.78157 12.3304 5.78157Z" fill="#00CDFA"/>
<path d="M29.442 5.78125H28.4864L24.9826 21.9531C24.7349 23.1184 23.6909 23.9659 22.4876 23.9659H6.33157L6.10153 24.9899C5.76533 26.5787 6.96862 28.0795 8.59661 28.0795H24.2925C26.3276 28.0795 28.0793 26.667 28.5217 24.6898L31.9547 8.88852C32.2909 7.28192 31.07 5.78125 29.442 5.78125Z" fill="url(#paint0_linear_31_991)"/>
<path d="M24.9832 21.9531L28.4868 5.78125H12.3308C11.1275 5.78125 10.0835 6.61104 9.83574 7.79391L6.33203 23.9659H22.4881C23.6913 23.9659 24.7177 23.1184 24.9832 21.9531Z" fill="#3A00FF"/>
<path d="M11.5871 17.7947L10.418 11.7305H12.2514L12.8161 15.5149L14.6694 11.7305H15.9049L16.6291 15.5149L18.3296 11.7305H20.163L17.1936 17.7947H15.6592L14.9284 14.2424L13.1416 17.7947H11.5871Z" fill="white"/>
<path d="M19.5195 16.815L20.4761 15.7082C20.9078 16.2383 21.4526 16.5101 22.1235 16.5101C22.5552 16.5101 22.9339 16.3312 22.9937 16.033C23.0137 15.854 22.894 15.7016 22.615 15.569C22.5486 15.5358 22.4025 15.4828 22.17 15.4033C21.7117 15.2243 21.5124 15.1581 21.1138 14.9062C20.5558 14.5616 20.29 14.0845 20.383 13.2626C20.5624 12.1425 21.592 11.5195 22.894 11.5195C23.7842 11.5195 24.5149 11.8111 25.1061 12.3877L24.1628 13.488C23.7709 13.1235 23.3192 12.9445 22.8077 12.9445C22.3959 12.9445 22.1501 13.0637 22.0969 13.3222C22.0505 13.5343 22.1633 13.7132 22.4291 13.8326C22.5154 13.879 22.6948 13.9518 22.9605 14.0512C23.2262 14.1507 23.452 14.2368 23.6381 14.3428C24.2358 14.5947 24.9401 15.1846 24.7275 16.086C24.6279 16.6758 24.3289 17.1397 23.824 17.4711C23.3259 17.8025 22.7214 17.9682 22.0438 17.9682C20.9543 17.9616 20.1108 17.5837 19.5195 16.815Z" fill="white"/>
<path d="M41.7877 20.2453H40.0708L36.708 10.1094H38.9381L40.9912 16.9256L43.2921 10.1094H44.5842L46.9381 16.9256L48.9559 10.1094H51.1858L47.8408 20.2453H46.124L43.9647 13.6057L41.7877 20.2453Z" fill="white"/>
<path d="M53.0972 20.2458H51.1504V12.7763H53.0264V13.7828C53.469 12.9706 54.1592 12.582 55.0795 12.582C55.3805 12.582 55.6813 12.635 55.9822 12.741L55.8229 14.5951C55.4866 14.4892 55.2034 14.4362 54.938 14.4362C54.3715 14.4362 53.9291 14.6304 53.5929 15.0012C53.2743 15.3721 53.0972 15.9372 53.0972 16.6964V20.2458Z" fill="white"/>
<path d="M58.6011 10.7436C58.6011 11.0791 58.4949 11.3616 58.2648 11.5912C58.0348 11.8207 57.7516 11.9267 57.4153 11.9267C57.0789 11.9267 56.7958 11.8207 56.5658 11.5912C56.3356 11.3616 56.2295 11.0791 56.2295 10.7436C56.2295 10.4081 56.3356 10.1255 56.5658 9.91364C56.7958 9.68408 57.0789 9.57812 57.4153 9.57812C57.7516 9.57812 58.0348 9.68408 58.2648 9.91364C58.4949 10.1255 58.6011 10.4081 58.6011 10.7436ZM58.371 12.7743V20.2439H56.4242V12.7743H58.371Z" fill="white"/>
<path d="M64.3897 18.2852L64.9738 19.8038C64.3544 20.2101 63.6109 20.422 62.7615 20.422C61.8941 20.422 61.257 20.1747 60.8145 19.6803C60.372 19.1858 60.1597 18.4442 60.1597 17.473V14.3827H58.9385V12.7582H60.1773V10.1094H62.1066V12.7582H64.5844V14.3827H62.1066V17.3493C62.1066 18.2323 62.4606 18.6737 63.1686 18.6737C63.5225 18.6737 63.9472 18.5501 64.3897 18.2852Z" fill="white"/>
<path d="M72.4959 16.3433C72.4959 16.5728 72.4782 16.8554 72.425 17.1909H66.7968C67.08 18.2504 67.8056 18.7802 68.9737 18.7802C69.841 18.7802 70.6552 18.5329 71.3986 18.0208L72.1596 19.3806C71.2039 20.0692 70.1243 20.4047 68.8853 20.4047C67.5755 20.4047 66.5667 20.0339 65.8587 19.2746C65.1685 18.5329 64.8145 17.5971 64.8145 16.5022C64.8145 15.3544 65.1685 14.4186 65.8942 13.6946C66.6198 12.9528 67.5579 12.582 68.7083 12.582C69.8057 12.582 70.6906 12.9176 71.3986 13.5886C72.1419 14.2772 72.4959 15.1954 72.4959 16.3433ZM68.7437 14.1889C68.2657 14.1889 67.841 14.3302 67.5047 14.6127C67.1685 14.8953 66.9383 15.2661 66.8145 15.7606H70.6198C70.5313 15.2838 70.319 14.8953 69.9826 14.6127C69.6463 14.3302 69.2392 14.1889 68.7437 14.1889Z" fill="white"/>
<path d="M75.7516 20.4385C74.4419 20.4385 73.4154 19.9617 72.6543 18.9905L73.6809 17.7721C73.9464 18.09 74.265 18.3371 74.6366 18.5314C75.0083 18.7256 75.38 18.8139 75.7516 18.8139C76.0526 18.8139 76.2826 18.7432 76.495 18.602C76.6897 18.4607 76.7959 18.2841 76.7959 18.0722C76.7959 17.8074 76.6189 17.5955 76.265 17.4366C76.1587 17.3836 75.8579 17.2776 75.38 17.101C74.9552 16.9421 74.6366 16.8185 74.4242 16.6949C73.557 16.2887 73.1323 15.6354 73.1323 14.7525C73.1323 14.0991 73.38 13.5694 73.8933 13.1279C74.3889 12.7041 75.0791 12.4922 75.9287 12.4922C76.9906 12.4922 77.8755 12.8454 78.5482 13.5694L77.5924 14.8231C77.0614 14.3286 76.495 14.0815 75.8756 14.0815C75.6277 14.0815 75.4154 14.1344 75.2561 14.258C75.0968 14.3816 75.0083 14.5229 75.0083 14.6995C75.0083 15.0174 75.2207 15.2469 75.6632 15.3881C76.6367 15.759 77.2384 15.9886 77.4685 16.1121C78.318 16.5536 78.7251 17.1894 78.7251 18.0016C78.7251 18.708 78.4419 19.273 77.8933 19.7321C77.3623 20.209 76.6543 20.4385 75.7516 20.4385Z" fill="white"/>
<path d="M79.0781 16.5043C79.0781 15.3918 79.4497 14.4735 80.2109 13.7142C80.9718 12.9549 81.9277 12.5664 83.0958 12.5664C84.2639 12.5664 85.2197 12.9549 85.9807 13.7142C86.7242 14.4559 87.1134 15.3918 87.1134 16.5043C87.1134 17.6168 86.7418 18.5527 85.9807 19.2943C85.2197 20.0535 84.2639 20.4244 83.0958 20.4244C81.9277 20.4244 80.9718 20.0535 80.2109 19.2943C79.4497 18.5527 79.0781 17.6168 79.0781 16.5043ZM81.6091 18.0229C81.9984 18.429 82.4941 18.6409 83.0958 18.6409C83.6799 18.6409 84.1578 18.429 84.5648 18.0229C84.9719 17.599 85.1666 17.0869 85.1666 16.5043C85.1666 15.9215 84.9719 15.4094 84.5648 15.0033C84.1578 14.5972 83.6799 14.3852 83.0958 14.3852C82.4941 14.3852 81.9984 14.5972 81.6091 15.0033C81.2197 15.4094 81.025 15.9039 81.025 16.5043C81.025 17.1047 81.2197 17.6167 81.6091 18.0229Z" fill="white"/>
<path d="M89.857 20.2458H87.9102V12.7763H89.804V13.8181C89.9987 13.4473 90.3172 13.1471 90.742 12.9176C91.1667 12.688 91.6269 12.582 92.1579 12.582C92.9721 12.582 93.6623 12.8469 94.2288 13.3943C94.7951 13.9417 95.0782 14.7011 95.0782 15.6899V20.2634H93.1314V16.2197C93.1314 15.6369 92.9898 15.1778 92.7067 14.8599C92.4234 14.5421 92.034 14.3656 91.5561 14.3656C91.0428 14.3656 90.6358 14.5421 90.3172 14.8953C89.9987 15.2484 89.8393 15.7076 89.8393 16.2549V20.2458H89.857Z" fill="white"/>
<path d="M98.4059 10.7436C98.4059 11.0791 98.2996 11.3616 98.0695 11.5912C97.8395 11.8207 97.5563 11.9267 97.22 11.9267C96.8838 11.9267 96.6005 11.8207 96.3705 11.5912C96.1403 11.3616 96.0342 11.0791 96.0342 10.7436C96.0342 10.4081 96.1403 10.1255 96.3705 9.91364C96.6005 9.68408 96.8838 9.57812 97.22 9.57812C97.5563 9.57812 97.8395 9.68408 98.0695 9.91364C98.2996 10.1255 98.4059 10.4081 98.4059 10.7436ZM98.1757 12.7743V20.2439H96.2289V12.7743H98.1757Z" fill="white"/>
<path d="M102.936 20.4243C101.786 20.4243 100.83 20.0534 100.069 19.3294C99.3258 18.6054 98.9541 17.6695 98.9541 16.5218C98.9541 15.3739 99.3258 14.438 100.087 13.714C100.848 12.9724 101.821 12.6016 102.989 12.6016C103.751 12.6016 104.459 12.7782 105.078 13.1489C105.697 13.5198 106.175 14.0319 106.476 14.6853L104.919 15.5329C104.459 14.7735 103.821 14.4027 103.007 14.4027C102.388 14.4027 101.874 14.6147 101.485 15.0208C101.078 15.4269 100.883 15.9214 100.883 16.5218C100.883 17.1398 101.078 17.6519 101.467 18.058C101.874 18.4642 102.37 18.6584 102.972 18.6584C103.361 18.6584 103.733 18.5524 104.105 18.3405C104.459 18.1287 104.724 17.8638 104.883 17.5283L106.459 18.4465C106.14 19.0469 105.662 19.5237 105.043 19.8945C104.405 20.23 103.697 20.4243 102.936 20.4243Z" fill="white"/>
<defs>
<linearGradient id="paint0_linear_31_991" x1="6.04458" y1="16.9329" x2="32.0042" y2="16.9329" gradientUnits="userSpaceOnUse">
<stop stop-color="#FFB3FF"/>
<stop offset="0.5335" stop-color="#FF76DF"/>
<stop offset="1" stop-color="#C239C6"/>
</linearGradient>
</defs>
</svg>
