<svg width="101" height="31" viewBox="0 0 101 31" fill="none" xmlns="http://www.w3.org/2000/svg">
<path fill-rule="evenodd" clip-rule="evenodd" d="M66.215 11.9714C67.049 11.9714 67.7034 12.2314 68.1804 12.7522C68.6579 13.2723 68.9126 14.0144 68.9471 14.9775C68.9543 15.0711 68.9581 15.1971 68.9592 15.3559L68.9595 15.4551C68.9595 15.6614 68.9558 15.8249 68.9471 15.9451C68.9126 16.8749 68.6545 17.6059 68.1742 18.1392C67.6926 18.6725 67.0389 18.9391 66.215 18.9391C65.381 18.9391 64.7578 18.655 64.346 18.0876V20.9389C64.346 21.0338 64.3156 21.1111 64.2554 21.1711C64.1956 21.2318 64.1183 21.2617 64.0235 21.2617H62.361C62.2671 21.2617 62.1869 21.2318 62.1229 21.1711C62.0581 21.1111 62.0257 21.0338 62.0257 20.9389V12.4228C62.0257 12.3283 62.0581 12.2505 62.1229 12.1911C62.1869 12.1303 62.2671 12.1 62.361 12.1H63.8947C63.989 12.1 64.0667 12.1303 64.1261 12.1911C64.1873 12.2505 64.2167 12.3283 64.2167 12.4228V12.8875C64.6813 12.2763 65.3465 11.9714 66.215 11.9714ZM41.3407 9.6487C42.0973 9.6487 42.7518 9.77973 43.3065 10.0422C43.8604 10.3047 44.2863 10.6313 44.5817 11.0224C44.8789 11.4142 45.0351 11.7991 45.0529 12.1776C45.0529 12.255 45.0264 12.3216 44.9753 12.3777C44.9237 12.4339 44.8597 12.4618 44.7825 12.4618H42.9774C42.7888 12.4618 42.6425 12.384 42.5398 12.2292C42.4883 12.0487 42.3542 11.896 42.1401 11.7712C41.9253 11.6464 41.659 11.584 41.3407 11.584C40.98 11.584 40.7012 11.6485 40.5029 11.7774C40.3056 11.9068 40.2071 12.0957 40.2071 12.3453C40.2071 12.5953 40.3351 12.7904 40.5935 12.9327C40.8512 13.0745 41.3328 13.2189 42.0363 13.3649C42.844 13.5113 43.4868 13.694 43.963 13.9132C44.4404 14.1324 44.7928 14.4166 45.0206 14.7648C45.2482 15.1134 45.3625 15.5539 45.3625 16.0873C45.3625 16.6726 45.1946 17.1802 44.8597 17.6099C44.5244 18.0405 44.0607 18.3695 43.4673 18.597C42.8743 18.825 42.1958 18.9391 41.4312 18.9391C40.5973 18.9391 39.8884 18.8184 39.3042 18.5779C38.72 18.337 38.277 18.0188 37.9775 17.6228C37.6762 17.2276 37.5166 16.797 37.5 16.3327C37.5 16.2553 37.5287 16.1909 37.5839 16.1393C37.6396 16.0873 37.7065 16.0615 37.7834 16.0615H39.4982C39.6008 16.0615 39.6848 16.0785 39.7488 16.1135C39.814 16.1476 39.8843 16.2079 39.9615 16.294C40.0729 16.5004 40.2474 16.6705 40.4843 16.8033C40.7199 16.9376 41.0357 17.0033 41.4312 17.0033C41.8946 17.0033 42.2515 16.9326 42.5008 16.7907C42.7497 16.6489 42.8743 16.4534 42.8743 16.2038C42.8743 16.0228 42.8104 15.8747 42.6815 15.7586C42.5523 15.6422 42.3458 15.539 42.0628 15.4491C41.7794 15.3584 41.3706 15.2577 40.8383 15.1454C39.7978 14.9391 39.0208 14.625 38.5059 14.2032C37.9899 13.7822 37.7318 13.1798 37.7318 12.3973C37.7318 11.8635 37.8806 11.3884 38.1765 10.9712C38.4736 10.5543 38.8941 10.2294 39.4392 9.99731C39.9861 9.76434 40.6193 9.6487 41.3407 9.6487ZM89.6718 11.9714C90.411 11.9714 91.0361 12.1195 91.5472 12.4165C92.0588 12.7131 92.4406 13.1217 92.6945 13.6421C92.947 14.163 93.0743 14.7541 93.0743 15.4168V15.7388C93.0743 15.8336 93.0426 15.9131 92.978 15.978C92.914 16.0421 92.8343 16.0745 92.7393 16.0745H88.6542V16.1519C88.6625 16.5392 88.7531 16.8512 88.9251 17.0875C89.0959 17.3242 89.3415 17.4423 89.659 17.4423C89.8657 17.4423 90.0306 17.4016 90.1552 17.3192C90.2798 17.2381 90.3985 17.1324 90.5093 17.0031C90.5871 16.9177 90.6491 16.8641 90.6959 16.8425C90.744 16.8208 90.8192 16.8104 90.9214 16.8104H92.6107C92.6879 16.8104 92.7545 16.8337 92.8105 16.8811C92.8666 16.9286 92.8936 16.9864 92.8936 17.0551C92.8936 17.2793 92.767 17.541 92.5138 17.8426C92.2599 18.1433 91.8907 18.4017 91.4054 18.6164C90.9194 18.8314 90.3464 18.9391 89.6855 18.9391C88.6363 18.9391 87.812 18.6571 87.2099 18.0943C86.6086 17.5306 86.2995 16.7114 86.2829 15.6356V15.2354C86.3161 14.2124 86.6339 13.412 87.2361 12.8355C87.8373 12.2597 88.6492 11.9714 89.6718 11.9714ZM100.6 9.64873C100.695 9.64873 100.775 9.67911 100.838 9.73901C100.903 9.79933 100.935 9.87629 100.935 9.97073V18.4877C100.935 18.5825 100.903 18.6599 100.838 18.7198C100.775 18.7801 100.695 18.8101 100.6 18.8101H99.0661C98.9803 18.8101 98.9058 18.7781 98.8405 18.7136C98.7772 18.6491 98.7436 18.5738 98.7436 18.4877V18.0875C98.2807 18.6549 97.6148 18.9391 96.747 18.9391C95.9136 18.9391 95.2581 18.6766 94.7814 18.152C94.3047 17.6274 94.0488 16.879 94.0152 15.9068L94.0014 15.455L94.0152 14.9912C94.0488 14.0531 94.3067 13.3154 94.788 12.778C95.268 12.2405 95.9215 11.9713 96.747 11.9713C97.5205 11.9713 98.1429 12.2209 98.615 12.7193V9.97073C98.615 9.87629 98.648 9.79933 98.7113 9.73901C98.7772 9.67911 98.8524 9.64873 98.9381 9.64873H100.6ZM48.3913 12.0999C48.4857 12.0999 48.5658 12.1302 48.6294 12.191C48.6934 12.2505 48.7263 12.3283 48.7263 12.4227V18.4877C48.7263 18.5825 48.6934 18.6599 48.6294 18.7198C48.5658 18.7801 48.4857 18.8097 48.3913 18.8097H46.7804C46.6943 18.8097 46.6187 18.7781 46.5547 18.7136C46.4899 18.6491 46.4575 18.5738 46.4575 18.4877V12.4227C46.4575 12.3283 46.4899 12.2505 46.5547 12.191C46.6187 12.1302 46.6943 12.0999 46.7804 12.0999H48.3913ZM58.2372 11.9713C58.942 11.9713 59.5158 12.2097 59.9583 12.6877C60.4 13.1648 60.6211 13.8767 60.6211 14.8227V18.4877C60.6211 18.5738 60.592 18.6491 60.5313 18.7136C60.4711 18.7781 60.3938 18.8097 60.2994 18.8097H58.7146C58.6199 18.8097 58.5405 18.7801 58.4753 18.7198C58.4113 18.6599 58.3789 18.5825 58.3789 18.4877V14.913C58.3789 14.5177 58.295 14.2273 58.1279 14.0422C57.9601 13.8575 57.7348 13.7647 57.4514 13.7647C57.1851 13.7647 56.9678 13.8575 56.8003 14.0422C56.6325 14.2273 56.5485 14.5177 56.5485 14.913V18.4877C56.5485 18.5738 56.519 18.6491 56.4583 18.7136C56.3985 18.7781 56.3208 18.8097 56.2265 18.8097H54.6417C54.5474 18.8097 54.4676 18.7801 54.4028 18.7198C54.3384 18.6599 54.3059 18.5825 54.3059 18.4877V14.913C54.3059 14.5177 54.2199 14.2273 54.0492 14.0422C53.8771 13.8575 53.6536 13.7647 53.3789 13.7647C53.1126 13.7647 52.8931 13.8575 52.7212 14.0422C52.5495 14.2273 52.4636 14.5132 52.4636 14.9V18.4877C52.4636 18.5738 52.4328 18.6491 52.373 18.7136C52.3131 18.7781 52.2358 18.8097 52.1411 18.8097H50.5177C50.4316 18.8097 50.356 18.7781 50.292 18.7136C50.2272 18.6491 50.1948 18.5738 50.1948 18.4877V12.4227C50.1948 12.3283 50.2272 12.2505 50.292 12.191C50.356 12.1302 50.4316 12.0999 50.5177 12.0999H52.0123C52.1066 12.0999 52.1843 12.1302 52.2437 12.191C52.304 12.2505 52.3343 12.3283 52.3343 12.4227V12.8612C52.5408 12.612 52.8072 12.4015 53.1334 12.2292C53.4596 12.0574 53.8302 11.9713 54.242 11.9713C55.1869 11.9713 55.8355 12.3412 56.1874 13.0808C56.3944 12.7542 56.6819 12.4876 57.0521 12.2812C57.4211 12.0745 57.8163 11.9713 58.2372 11.9713ZM72.1441 9.64861C72.2385 9.64861 72.3158 9.67898 72.376 9.73889C72.4354 9.79921 72.4662 9.87658 72.4662 9.97102V18.4876C72.4662 18.5737 72.4354 18.649 72.376 18.7135C72.3158 18.7784 72.2385 18.8099 72.1441 18.8099H70.5327C70.4388 18.8099 70.3587 18.7805 70.2951 18.7197C70.2298 18.6598 70.1974 18.5824 70.1974 18.4876V9.97102C70.1974 9.87658 70.2298 9.79921 70.2951 9.73889C70.3587 9.67898 70.4388 9.64861 70.5327 9.64861H72.1441ZM75.8686 12.0999C75.9629 12.0999 76.0426 12.1302 76.1067 12.191C76.1706 12.2505 76.2035 12.3283 76.2035 12.4227V18.4877C76.2035 18.5825 76.1706 18.6599 76.1067 18.7198C76.0426 18.7801 75.9629 18.8097 75.8686 18.8097H74.2576C74.1716 18.8097 74.096 18.7781 74.0319 18.7136C73.9671 18.6491 73.9347 18.5738 73.9347 18.4877V12.4227C73.9347 12.3283 73.9671 12.2505 74.0319 12.191C74.096 12.1302 74.1716 12.0999 74.2576 12.0999H75.8686ZM84.7497 9.26172C84.8436 9.26172 84.9205 9.29126 84.9811 9.35199C85.041 9.41231 85.0713 9.48969 85.0713 9.58413V10.694C85.0713 10.7802 85.041 10.855 84.9811 10.9195C84.9205 10.9844 84.8436 11.016 84.7497 11.016H81.4371C81.1612 11.016 80.966 11.0788 80.8496 11.2032C80.7341 11.328 80.6768 11.5198 80.6768 11.7777V12.0997H84.7497C84.8436 12.0997 84.9205 12.1305 84.9811 12.1908C85.041 12.2508 85.0713 12.3285 85.0713 12.423V18.4876C85.0713 18.5737 85.041 18.649 84.9811 18.7135C84.9205 18.7784 84.8436 18.8099 84.7497 18.8099H83.1757C83.0818 18.8099 83.0028 18.7805 82.938 18.7197C82.874 18.6598 82.8416 18.5824 82.8416 18.4876V13.8553H80.6768V18.4876C80.6768 18.5737 80.6464 18.649 80.5866 18.7135C80.5255 18.7784 80.4478 18.8099 80.3535 18.8099H78.7811C78.6868 18.8099 78.607 18.7805 78.543 18.7197C78.4782 18.6598 78.4471 18.5824 78.4471 18.4876V13.8553H77.4793C77.3854 13.8553 77.3051 13.8254 77.2416 13.765C77.1764 13.7043 77.1452 13.6273 77.1452 13.5325V12.423C77.1452 12.3285 77.1764 12.2508 77.2416 12.1908C77.3051 12.1305 77.3854 12.0997 77.4793 12.0997H78.4471V11.7128C78.4471 10.853 78.6951 10.2294 79.1933 9.84247C79.692 9.45475 80.4046 9.26172 81.3332 9.26172H84.7497ZM97.4941 13.7652C97.1077 13.7652 96.8301 13.8787 96.6633 14.1067C96.4958 14.3347 96.3989 14.6505 96.3725 15.0548L96.36 15.455L96.3725 15.8552C96.3989 16.2595 96.4958 16.5757 96.6633 16.8033C96.8301 17.0317 97.1077 17.1461 97.4941 17.1461C97.8627 17.1461 98.139 17.0275 98.3196 16.7908C98.5003 16.5541 98.5986 16.2554 98.615 15.8943C98.6328 15.653 98.6414 15.4895 98.6414 15.4034C98.6414 15.309 98.6328 15.1501 98.615 14.9267C98.5986 14.5909 98.4977 14.313 98.313 14.0938C98.1278 13.8746 97.8548 13.7652 97.4941 13.7652ZM65.467 13.7648C65.0977 13.7648 64.823 13.883 64.6426 14.1197C64.4623 14.356 64.3638 14.6555 64.346 15.0166C64.3387 15.1098 64.3349 15.2386 64.3338 15.4037L64.3335 15.5071C64.3335 15.7134 64.3373 15.8727 64.346 15.9842C64.3638 16.3199 64.4644 16.597 64.6489 16.8162C64.8338 17.0359 65.1064 17.1457 65.467 17.1457C65.8543 17.1457 66.131 17.0317 66.2989 16.8033C66.4663 16.5758 66.5632 16.2592 66.5881 15.8553C66.5968 15.7695 66.6018 15.6356 66.6018 15.4551C66.6018 15.2741 66.5968 15.141 66.5881 15.0548C66.5632 14.6505 66.4663 14.3343 66.2989 14.1068C66.131 13.8788 65.8543 13.7648 65.467 13.7648ZM89.6718 13.4295C89.3452 13.4295 89.0939 13.5435 88.9185 13.7711C88.7423 13.999 88.6542 14.3198 88.6542 14.7325V14.7583H90.7025V14.7325C90.7025 14.3198 90.6128 13.999 90.4321 13.7711C90.2515 13.5435 89.9989 13.4295 89.6718 13.4295ZM48.3913 9.30012C48.4857 9.30012 48.5658 9.33257 48.6294 9.39705C48.6934 9.46153 48.7263 9.54099 48.7263 9.63542V10.8356C48.7263 10.9309 48.6934 11.0099 48.6294 11.0744C48.5658 11.1389 48.4857 11.1713 48.3913 11.1713H46.7804C46.6848 11.1713 46.6083 11.1389 46.5472 11.0744C46.4878 11.0099 46.4575 10.9309 46.4575 10.8356V9.63542C46.4575 9.54099 46.4899 9.46153 46.5547 9.39705C46.6187 9.33257 46.6943 9.30012 46.7804 9.30012H48.3913ZM75.8686 9.30012C75.9629 9.30012 76.0426 9.33257 76.1067 9.39705C76.1706 9.46153 76.2035 9.54099 76.2035 9.63542V10.8356C76.2035 10.9309 76.1706 11.0099 76.1067 11.0744C76.0426 11.1389 75.9629 11.1713 75.8686 11.1713H74.2576C74.162 11.1713 74.0855 11.1389 74.0245 11.0744C73.9651 11.0099 73.9347 10.9309 73.9347 10.8356V9.63542C73.9347 9.54099 73.9671 9.46153 74.0319 9.39705C74.096 9.33257 74.1716 9.30012 74.2576 9.30012H75.8686Z" fill="white"/>
<circle cx="15" cy="15.2617" r="15" fill="#070906"/>
<path fill-rule="evenodd" clip-rule="evenodd" d="M21.3497 12.9197V18.2729L21.0156 18.6074L18.3419 21.2847L16.6711 22.9574C15.9324 23.6965 14.7357 23.6965 13.9975 22.9574C13.2592 22.2183 13.2592 21.0197 13.9975 20.2806L15.6682 18.6074L18.3419 15.9311L18.676 15.5965L21.3497 12.9197ZM20.6815 12.2505L18.0078 14.9273L17.6736 15.2619L15 17.9387L14.6659 18.2732H9.31855L12.3264 15.2619L15 12.5851L15.3342 12.2505H20.6815ZM13.3289 7.56605C14.0672 6.82694 15.2644 6.82694 16.0026 7.56605C16.7409 8.30517 16.7409 9.50374 16.0026 10.2429L11.3236 14.9274L8.65039 17.6037V12.2506L8.98454 11.9156L11.6577 9.23923L13.3289 7.56605Z" fill="#FFAD00"/>
</svg>
