<svg width="201" height="201" viewBox="0 0 201 201" fill="none" xmlns="http://www.w3.org/2000/svg">
<path d="M102.737 17.3249L104.121 0.625L114.906 1.51864L114.689 4.1396L106.699 3.47753L106.358 7.59452L112.956 8.14127L112.739 10.7622L106.141 10.2155L105.749 14.9355L113.74 15.5976L113.523 18.2185L102.737 17.3249Z" fill="white"/>
<path d="M115.019 18.452L121.004 13.3842L118.12 6.2723L121.328 7.06392L123.112 11.6391L126.774 8.40743L129.983 9.19905L124.122 14.1535L127.085 21.4289L123.877 20.6373L122.059 15.9098L118.228 19.2436L115.019 18.452Z" fill="white"/>
<path d="M134.113 24.785C132.987 24.3015 132.157 23.6288 131.624 22.7667C131.091 21.9046 130.829 20.9311 130.839 19.8463C130.851 18.7543 131.104 17.6344 131.597 16.4866C132.095 15.3246 132.735 14.3664 133.514 13.6119C134.294 12.8575 135.168 12.3757 136.136 12.1663C137.114 11.953 138.152 12.0819 139.249 12.5531C140.34 13.0212 141.17 13.694 141.739 14.5714C142.318 15.4447 142.631 16.436 142.679 17.5454C142.729 18.6476 142.503 19.7833 142.001 20.9524C141.506 22.1073 140.843 23.0513 140.014 23.7843C139.184 24.5173 138.259 24.9813 137.238 25.1763C136.217 25.3713 135.176 25.2409 134.113 24.785ZM126.477 27.2058L133.637 10.5239L135.914 11.5015L132.435 19.6072L132.756 19.7449L129.075 28.3211L126.477 27.2058ZM134.709 22.3054C135.379 22.593 136.004 22.6626 136.582 22.5142C137.161 22.3658 137.676 22.0508 138.128 21.5692C138.589 21.0835 138.972 20.4878 139.275 19.782C139.574 19.0834 139.74 18.403 139.771 17.7409C139.805 17.0717 139.669 16.4731 139.364 15.9453C139.062 15.4103 138.565 14.9944 137.873 14.6976C137.217 14.4161 136.614 14.3471 136.063 14.4904C135.514 14.6266 135.018 14.937 134.574 15.4217C134.14 15.9022 133.76 16.5204 133.436 17.276C133.115 18.0246 132.928 18.7253 132.876 19.3783C132.83 20.0343 132.949 20.6129 133.232 21.1143C133.525 21.6115 134.018 22.0086 134.709 22.3054Z" fill="white"/>
<path d="M141.723 28.211L150.313 13.418L152.739 14.8263L144.149 29.6193L141.723 28.211Z" fill="white"/>
<path d="M150.784 34.6058C149.78 33.8495 149.074 32.9628 148.665 31.9456C148.256 30.9284 148.142 29.8669 148.325 28.761C148.518 27.6536 149.004 26.5825 149.784 25.5477C150.578 24.4944 151.484 23.7299 152.503 23.2542C153.522 22.7785 154.574 22.6001 155.66 22.7188C156.746 22.8375 157.781 23.268 158.766 24.0103C159.776 24.7712 160.486 25.6602 160.895 26.6774C161.304 27.6946 161.415 28.7592 161.228 29.8713C161.045 30.9772 160.564 32.0475 159.785 33.0823C159 34.1232 158.097 34.8847 157.073 35.3665C156.06 35.8469 155.009 36.0308 153.918 35.9182C152.832 35.7995 151.788 35.362 150.784 34.6058ZM152.366 32.5053C153.259 33.1775 154.146 33.3796 155.027 33.1115C155.909 32.8434 156.705 32.2385 157.415 31.2967C158.148 30.3239 158.511 29.3836 158.505 28.4759C158.504 27.5621 158.064 26.7737 157.184 26.1108C156.583 25.658 155.984 25.4208 155.389 25.3993C154.804 25.3764 154.236 25.5365 153.686 25.8797C153.141 26.2168 152.63 26.7013 152.154 27.3334C151.421 28.3062 151.055 29.2495 151.056 30.1634C151.068 31.0757 151.505 31.8564 152.366 32.5053Z" fill="white"/>
<path d="M157.611 39.8617L166.465 30.9425L168.224 32.6887L166.068 34.8607L166.132 34.3668C166.537 34.1788 166.951 34.0538 167.373 33.992C167.806 33.93 168.231 33.9477 168.649 34.0449C169.017 34.1149 169.374 34.2397 169.72 34.4195C170.077 34.5992 170.404 34.8202 170.701 35.0824C171.004 35.3391 171.266 35.6207 171.486 35.9271L169.642 37.7853C169.454 37.4458 169.173 37.1177 168.799 36.8009C168.43 36.4896 168.026 36.2799 167.587 36.1718C167.164 36.0471 166.75 36.013 166.344 36.0693C165.944 36.1311 165.555 36.2697 165.177 36.485C164.805 36.6948 164.449 36.9704 164.11 37.3118L159.609 41.8457L157.611 39.8617Z" fill="white"/>
<path d="M166.851 50.6986C166.077 49.6888 165.616 48.6347 165.468 47.5361C165.319 46.4375 165.468 45.3754 165.914 44.3497C166.364 43.3302 167.094 42.4334 168.103 41.6594C169.193 40.824 170.299 40.3088 171.42 40.114C172.548 39.9144 173.619 40.0172 174.633 40.4223C175.647 40.8275 176.53 41.5196 177.28 42.4986C178.073 43.533 178.502 44.5968 178.568 45.69C178.645 46.7847 178.378 47.845 177.766 48.8709C177.155 49.8967 176.219 50.8244 174.958 51.6538L173.266 49.4465L174.079 48.8235C175.158 47.9867 175.803 47.1893 176.014 46.4314C176.224 45.6735 176.021 44.8913 175.402 44.0847C174.704 43.1735 173.901 42.7133 172.995 42.7042C172.095 42.6904 171.103 43.0988 170.019 43.9295C169.01 44.7035 168.398 45.5246 168.183 46.3927C167.969 47.2607 168.188 48.1196 168.839 48.9693C169.259 49.5173 169.74 49.8963 170.282 50.1063C170.835 50.3177 171.425 50.3541 172.052 50.2157L173.072 52.9235C171.881 53.2308 170.729 53.1754 169.616 52.7573C168.509 52.3453 167.587 51.6591 166.851 50.6986ZM168.863 43.7019L170.544 42.4134L175.804 49.2755L174.123 50.564L168.863 43.7019Z" fill="white"/>
<path d="M177.009 68.2409C176.348 66.7011 176.117 65.2384 176.316 63.8529C176.522 62.4643 177.1 61.2156 178.051 60.1068C179.005 59.0051 180.277 58.1131 181.867 57.4307C183.456 56.7483 184.979 56.4409 186.435 56.5083C187.894 56.5829 189.194 57.0253 190.335 57.8355C191.484 58.6427 192.388 59.8162 193.049 61.3561C193.71 62.8959 193.938 64.3601 193.732 65.7487C193.536 67.1413 192.961 68.3885 192.007 69.4902C191.056 70.599 189.786 71.4946 188.196 72.177C186.606 72.8593 185.082 73.1632 183.623 73.0887C182.168 73.0212 180.864 72.5803 179.712 71.766C178.571 70.9558 177.67 69.7808 177.009 68.2409ZM179.436 67.199C179.873 68.2358 180.47 68.9969 181.227 69.4824C181.987 69.975 182.861 70.2119 183.849 70.193C184.841 70.1812 185.899 69.9336 187.026 69.4501C188.152 68.9667 189.054 68.3728 189.731 67.6685C190.418 66.9683 190.845 66.173 191.011 65.2826C191.181 64.3993 191.051 63.4378 190.622 62.398C190.185 61.3612 189.588 60.6001 188.831 60.1146C188.074 59.6291 187.2 59.3923 186.209 59.404C185.221 59.4229 184.163 59.6741 183.037 60.1575C181.911 60.641 181.004 61.2328 180.317 61.933C179.637 62.6302 179.212 63.4204 179.042 64.3037C178.876 65.1941 179.007 66.1592 179.436 67.199Z" fill="white"/>
<path d="M181.575 82.489C181.378 81.579 181.368 80.7955 181.543 80.1385C181.719 79.4816 182.004 78.9279 182.399 78.4775C182.794 78.0272 183.239 77.6613 183.733 77.3798C184.228 77.0984 184.705 76.8803 185.164 76.7257C185.631 76.5771 186.013 76.4708 186.309 76.4069L193.168 74.9258L193.767 77.7012L187.852 78.9785C187.473 79.0604 187.051 79.1794 186.584 79.3357C186.126 79.4903 185.697 79.7099 185.298 79.9944C184.908 80.2849 184.614 80.65 184.415 81.0898C184.218 81.5371 184.19 82.0869 184.331 82.739C184.406 83.0878 184.538 83.4206 184.725 83.7373C184.913 84.0539 185.172 84.3193 185.504 84.5333C185.845 84.7533 186.277 84.8943 186.798 84.9564C187.319 85.0184 187.952 84.9692 188.695 84.8087L188.352 86.5851C187.306 86.8111 186.314 86.811 185.376 86.5849C184.44 86.3664 183.633 85.9177 182.954 85.2388C182.283 84.5582 181.824 83.6416 181.575 82.489ZM182.794 86.4281L186.605 85.6052L186.534 85.2754L195.008 83.4454L195.602 86.1981L183.318 88.8509L182.794 86.4281Z" fill="white"/>
<path d="M183.495 91.751L196.028 90.8132L196.213 93.285L193.161 93.5133L193.533 93.1821C193.962 93.3056 194.357 93.4822 194.716 93.712C195.084 93.949 195.394 94.2409 195.645 94.5877C195.877 94.8816 196.065 95.2098 196.209 95.5725C196.361 95.9423 196.464 96.3236 196.516 96.7164C196.577 97.1086 196.59 97.4927 196.556 97.8687L193.945 98.0641C194.025 97.6847 194.028 97.2527 193.953 96.7682C193.878 96.2914 193.711 95.8683 193.45 95.4989C193.212 95.1277 192.921 94.8305 192.578 94.6072C192.235 94.3917 191.85 94.2416 191.424 94.1568C191.005 94.0714 190.556 94.0467 190.076 94.0826L183.705 94.5593L183.495 91.751Z" fill="white"/>
<path d="M182.839 111.68C182.992 110.464 183.341 109.394 183.888 108.469C184.433 107.553 185.138 106.828 186.002 106.296C186.873 105.772 187.862 105.493 188.969 105.461L189.045 108.402C188.029 108.525 187.203 108.933 186.569 109.627C185.933 110.329 185.552 111.181 185.427 112.181C185.352 112.774 185.374 113.344 185.493 113.89C185.612 114.437 185.828 114.894 186.142 115.262C186.454 115.638 186.868 115.858 187.384 115.922C187.615 115.952 187.832 115.94 188.034 115.887C188.243 115.835 188.435 115.742 188.608 115.607C188.781 115.48 188.943 115.305 189.097 115.082C189.256 114.868 189.402 114.612 189.533 114.316L191.343 110.181C191.497 109.825 191.69 109.442 191.921 109.033C192.159 108.633 192.46 108.261 192.824 107.915C193.195 107.579 193.642 107.318 194.165 107.134C194.696 106.958 195.326 106.916 196.058 107.008C197.128 107.143 197.99 107.525 198.646 108.155C199.309 108.793 199.763 109.593 200.01 110.554C200.256 111.524 200.304 112.57 200.155 113.692C200.004 114.831 199.68 115.822 199.183 116.667C198.694 117.512 198.05 118.19 197.251 118.699C196.452 119.208 195.525 119.522 194.47 119.64L194.326 116.584C194.927 116.534 195.453 116.358 195.906 116.055C196.365 115.761 196.734 115.374 197.014 114.893C197.292 114.419 197.475 113.899 197.562 113.331C197.639 112.778 197.619 112.252 197.502 111.752C197.392 111.261 197.193 110.849 196.907 110.516C196.619 110.191 196.26 110.001 195.829 109.947C195.421 109.896 195.071 109.977 194.778 110.19C194.493 110.404 194.251 110.683 194.051 111.025C193.859 111.376 193.689 111.734 193.541 112.099L192.336 114.973C192.176 115.368 191.973 115.807 191.724 116.292C191.476 116.777 191.156 117.233 190.766 117.661C190.376 118.089 189.893 118.419 189.316 118.652C188.739 118.892 188.034 118.96 187.203 118.855C186.341 118.747 185.606 118.471 184.997 118.027C184.395 117.591 183.916 117.043 183.562 116.38C183.207 115.718 182.971 114.981 182.855 114.169C182.737 113.364 182.732 112.535 182.839 111.68Z" fill="white"/>
<path d="M179.769 125.477C180.142 124.277 180.738 123.313 181.558 122.585C182.377 121.856 183.338 121.391 184.44 121.189C185.548 120.997 186.72 121.093 187.958 121.478C189.217 121.869 190.243 122.464 191.035 123.262C191.826 124.06 192.35 124.991 192.605 126.053C192.86 127.115 192.804 128.235 192.438 129.413C192.063 130.621 191.466 131.589 190.646 132.317C189.827 133.046 188.863 133.51 187.753 133.709C186.65 133.911 185.48 133.82 184.243 133.435C182.998 133.049 181.976 132.455 181.177 131.654C180.383 130.863 179.855 129.935 179.592 128.871C179.338 127.809 179.396 126.678 179.769 125.477ZM182.281 126.258C181.949 127.325 182.059 128.228 182.609 128.967C183.159 129.707 183.997 130.252 185.123 130.601C186.286 130.963 187.294 130.987 188.147 130.675C189.006 130.366 189.6 129.685 189.927 128.633C190.15 127.914 190.171 127.271 189.99 126.703C189.814 126.145 189.472 125.664 188.963 125.263C188.461 124.863 187.833 124.546 187.077 124.311C185.914 123.95 184.903 123.924 184.043 124.234C183.188 124.553 182.601 125.228 182.281 126.258Z" fill="white"/>
<path d="M177.03 133.809L192.639 140.809L191.491 143.368L175.882 136.368L177.03 133.809Z" fill="white"/>
<path d="M172.026 142.779C172.507 141.982 173.036 141.404 173.614 141.046C174.192 140.687 174.779 140.48 175.375 140.422C175.971 140.365 176.546 140.403 177.099 140.537C177.653 140.671 178.149 140.839 178.589 141.041C179.032 141.253 179.383 141.437 179.642 141.594L185.652 145.215L184.187 147.647L179.004 144.524C178.672 144.324 178.282 144.121 177.836 143.915C177.396 143.714 176.933 143.58 176.447 143.514C175.964 143.458 175.5 143.522 175.054 143.707C174.604 143.897 174.207 144.278 173.862 144.85C173.678 145.156 173.546 145.488 173.465 145.847C173.385 146.206 173.392 146.577 173.487 146.961C173.585 147.355 173.802 147.753 174.14 148.155C174.477 148.558 174.971 148.955 175.622 149.348L174.155 150.407C173.238 149.854 172.516 149.174 171.988 148.367C171.456 147.566 171.175 146.686 171.147 145.727C171.124 144.772 171.418 143.789 172.026 142.779ZM170.215 146.484L173.554 148.496L173.728 148.206L181.154 152.681L179.701 155.093L168.936 148.607L170.215 146.484Z" fill="white"/>
<path d="M162.382 156.608C162.788 155.867 163.253 155.195 163.778 154.592C164.291 153.989 164.852 153.531 165.46 153.217C166.074 152.908 166.716 152.816 167.385 152.943C167.987 153.065 168.511 153.299 168.959 153.646C169.407 153.993 169.907 154.393 170.46 154.845L178.913 161.768L177.144 163.929L168.816 157.109C168.426 156.789 168.081 156.512 167.782 156.277C167.478 156.048 167.187 155.915 166.907 155.876C166.37 155.797 165.887 155.978 165.456 156.418C165.026 156.857 164.607 157.417 164.201 158.097L162.382 156.608ZM175.956 156.398L177.658 157.792L172.105 164.571L170.404 163.177L175.956 156.398Z" fill="white"/>
<path d="M170.931 168.496L172.764 170.301L170.796 172.299L168.963 170.494L170.931 168.496ZM160.618 158.338L169.572 167.157L167.604 169.155L158.65 160.336L160.618 158.338Z" fill="white"/>
<path d="M152.169 165.525C153.151 164.741 154.185 164.277 155.272 164.134C156.359 163.991 157.416 164.145 158.441 164.597C159.466 165.059 160.383 165.797 161.191 166.809C162.014 167.84 162.529 168.907 162.737 170.013C162.944 171.118 162.855 172.181 162.47 173.204C162.085 174.226 161.411 175.122 160.447 175.892C159.459 176.681 158.421 177.147 157.334 177.29C156.247 177.433 155.189 177.276 154.158 176.818C153.132 176.367 152.215 175.635 151.407 174.622C150.593 173.604 150.081 172.539 149.868 171.428C149.655 170.328 149.738 169.263 150.118 168.235C150.503 167.213 151.187 166.31 152.169 165.525ZM153.81 167.58C152.937 168.277 152.521 169.086 152.561 170.007C152.602 170.928 152.99 171.849 153.725 172.771C154.485 173.722 155.306 174.308 156.186 174.528C157.072 174.755 157.945 174.524 158.806 173.837C159.394 173.367 159.772 172.846 159.941 172.275C160.109 171.714 160.095 171.124 159.899 170.506C159.708 169.894 159.366 169.279 158.872 168.661C158.112 167.709 157.289 167.12 156.404 166.894C155.517 166.679 154.653 166.907 153.81 167.58Z" fill="white"/>
<path d="M137.738 175.186L140.651 180.49C140.841 180.837 141.076 181.208 141.355 181.604C141.634 181.999 141.968 182.342 142.358 182.633C142.744 182.934 143.18 183.115 143.665 183.176C144.143 183.241 144.675 183.113 145.26 182.792C145.572 182.62 145.854 182.399 146.104 182.129C146.354 181.859 146.536 181.529 146.649 181.14C146.76 180.76 146.77 180.312 146.681 179.795C146.595 179.284 146.368 178.692 145.998 178.019L147.798 177.84C148.313 178.779 148.6 179.728 148.658 180.687C148.709 181.651 148.504 182.551 148.043 183.388C147.586 184.232 146.84 184.938 145.807 185.505C144.99 185.953 144.243 186.187 143.563 186.206C142.883 186.225 142.271 186.11 141.727 185.86C141.182 185.61 140.705 185.288 140.294 184.894C139.883 184.5 139.539 184.1 139.263 183.694C138.984 183.299 138.772 182.968 138.626 182.703L135.249 176.552L137.738 175.186ZM145.379 170.991L151.427 182.008L149.234 183.212L147.358 179.795L147.062 179.957L142.89 172.358L145.379 170.991Z" fill="white"/>
<path d="M127.946 178.845C129.409 178.329 130.714 178.239 131.861 178.575C133.007 178.912 133.89 179.641 134.507 180.764L131.954 182.133C131.609 181.596 131.139 181.244 130.545 181.075C129.951 180.906 129.292 180.949 128.567 181.204C127.931 181.429 127.484 181.726 127.228 182.096C126.967 182.475 126.914 182.885 127.069 183.324C127.164 183.595 127.306 183.787 127.494 183.902C127.678 184.026 128.013 184.089 128.499 184.091C128.985 184.092 129.715 184.053 130.69 183.973C131.778 183.885 132.668 183.888 133.359 183.982C134.052 184.083 134.601 184.297 135.004 184.624C135.407 184.951 135.713 185.411 135.922 186.003C136.182 186.742 136.215 187.454 136.021 188.14C135.826 188.825 135.433 189.437 134.841 189.974C134.252 190.519 133.485 190.958 132.541 191.291C131.619 191.616 130.753 191.76 129.943 191.725C129.125 191.693 128.404 191.49 127.779 191.118C127.155 190.746 126.666 190.223 126.314 189.549L128.843 188.115C129.087 188.597 129.458 188.914 129.956 189.068C130.447 189.224 131.025 189.205 131.689 189.012C132.324 188.83 132.791 188.558 133.092 188.197C133.395 187.844 133.476 187.466 133.334 187.063C133.254 186.836 133.109 186.67 132.899 186.563C132.688 186.456 132.324 186.403 131.806 186.405C131.281 186.409 130.517 186.456 129.512 186.547C128.483 186.638 127.632 186.625 126.957 186.509C126.278 186.403 125.738 186.178 125.338 185.834C124.929 185.493 124.617 185.015 124.4 184.4C123.98 183.207 124.085 182.117 124.716 181.13C125.34 180.145 126.416 179.383 127.946 178.845Z" fill="white"/>
<path d="M115.121 191.11L117.317 192.27L115.865 194.554L118.579 194.889L118.148 197.335L115.503 196.662L116.059 199.357L113.593 199.704L113.383 196.96L111.039 198.337L109.949 196.105L112.454 195.035L110.438 193.239L112.229 191.517L113.987 193.573L115.121 191.11Z" fill="white"/>
<path d="M100.365 183.902L99.293 200.625L88.4928 199.933L88.6611 197.308L96.6625 197.821L96.9267 193.698L90.3189 193.275L90.4872 190.65L97.095 191.074L97.398 186.347L89.3966 185.834L89.5648 183.21L100.365 183.902Z" fill="white"/>
<path d="M88.0691 183.005L82.1818 188.185L85.2002 195.241L81.9771 194.511L80.1068 189.97L76.5069 193.271L73.2838 192.54L79.0495 187.475L75.9484 180.258L79.1715 180.988L81.0791 185.68L84.846 182.274L88.0691 183.005Z" fill="white"/>
<path d="M68.8382 177.033C69.9734 177.495 70.8157 178.152 71.3651 179.004C71.9145 179.856 72.1944 180.824 72.205 181.909C72.2126 183.001 71.9809 184.126 71.5099 185.282C71.033 186.453 70.4118 187.423 69.6464 188.192C68.881 188.961 68.0164 189.459 67.0526 189.687C66.0788 189.918 65.0386 189.809 63.9321 189.358C62.8328 188.911 61.9905 188.254 61.4052 187.387C60.8098 186.525 60.478 185.54 60.41 184.431C60.339 183.33 60.5434 182.19 61.0233 181.012C61.4973 179.848 62.1421 178.892 62.9578 178.144C63.7735 177.395 64.6899 176.914 65.7069 176.7C66.7238 176.486 67.7676 176.597 68.8382 177.033ZM76.4282 174.469L69.5819 191.282L67.2862 190.347L70.6129 182.178L70.2895 182.046L73.8093 173.403L76.4282 174.469ZM68.289 179.523C67.6136 179.248 66.988 179.19 66.4122 179.349C65.8364 179.508 65.3273 179.833 64.8849 180.323C64.4323 180.817 64.0612 181.42 63.7716 182.131C63.4848 182.835 63.3322 183.519 63.3137 184.181C63.2923 184.851 63.4391 185.447 63.7543 185.969C64.0665 186.498 64.5711 186.905 65.268 187.188C65.929 187.458 66.5338 187.515 67.0822 187.362C67.6276 187.215 68.118 186.896 68.5532 186.403C68.9784 185.914 69.346 185.289 69.6561 184.527C69.9633 183.773 70.137 183.069 70.177 182.415C70.2099 181.758 70.0802 181.182 69.788 180.686C69.4856 180.194 68.9859 179.807 68.289 179.523Z" fill="white"/>
<path d="M61.1712 173.744L52.8594 188.695L50.4082 187.333L58.7201 172.382L61.1712 173.744Z" fill="white"/>
<path d="M51.9958 167.525C53.0135 168.262 53.7363 169.135 54.1641 170.145C54.592 171.154 54.7251 172.213 54.5633 173.322C54.3908 174.433 53.9244 175.513 53.1643 176.562C52.3905 177.63 51.4986 178.412 50.4888 178.906C49.479 179.401 48.4301 179.599 47.3423 179.5C46.2544 179.402 45.211 178.991 44.2121 178.267C43.1881 177.525 42.4622 176.649 42.0343 175.64C41.6065 174.631 41.4757 173.568 41.642 172.453C41.8037 171.344 42.2646 170.265 43.0248 169.216C43.7895 168.16 44.679 167.382 45.6934 166.881C46.697 166.382 47.7449 166.179 48.8374 166.271C49.9253 166.369 50.9781 166.787 51.9958 167.525ZM50.4527 169.654C49.5481 168.999 48.6574 168.813 47.7806 169.098C46.9039 169.382 46.1196 170.002 45.4277 170.957C44.7131 171.943 44.3671 172.89 44.3899 173.797C44.408 174.711 44.8631 175.491 45.7552 176.137C46.3646 176.579 46.9673 176.805 47.5634 176.815C48.1486 176.827 48.713 176.657 49.2565 176.303C49.7954 175.956 50.297 175.462 50.7613 174.821C51.476 173.835 51.8242 172.885 51.806 171.971C51.777 171.059 51.3259 170.287 50.4527 169.654Z" fill="white"/>
<path d="M45.0689 162.393L36.3818 171.475L34.5906 169.761L36.706 167.55L36.6512 168.045C36.2495 168.24 35.8382 168.373 35.4172 168.443C34.9853 168.513 34.5598 168.503 34.1408 168.413C33.7718 168.35 33.4125 168.232 33.063 168.059C32.7025 167.886 32.3712 167.671 32.0692 167.414C31.7619 167.163 31.4951 166.886 31.2689 166.584L33.0787 164.692C33.2727 165.028 33.5597 165.351 33.9397 165.661C34.3141 165.965 34.7219 166.167 35.1631 166.267C35.5882 166.384 36.0031 166.41 36.4077 166.346C36.8067 166.277 37.193 166.131 37.5667 165.909C37.935 165.692 38.2854 165.41 38.6179 165.063L43.0338 160.446L45.0689 162.393Z" fill="white"/>
<path d="M35.6315 151.735C36.4242 152.73 36.9048 153.775 37.0733 154.871C37.2419 155.967 37.113 157.031 36.6868 158.065C36.2557 159.093 35.5426 160.003 34.5474 160.796C33.4734 161.651 32.3776 162.187 31.2601 162.403C30.1365 162.623 29.0638 162.541 28.042 162.154C27.0202 161.768 26.1251 161.093 25.3565 160.128C24.5445 159.108 24.0954 158.053 24.0093 156.961C23.9122 155.868 24.1598 154.803 24.752 153.766C25.3442 152.729 26.2628 151.784 27.5077 150.931L29.2405 153.106L28.4395 153.744C27.3764 154.601 26.7465 155.41 26.5498 156.172C26.3531 156.934 26.5714 157.712 27.2046 158.507C27.92 159.405 28.7308 159.85 29.6371 159.842C30.5373 159.839 31.5214 159.413 32.5894 158.562C33.5845 157.769 34.1812 156.937 34.3793 156.065C34.5774 155.193 34.3429 154.338 33.6759 153.501C33.2457 152.961 32.7576 152.591 32.2116 152.391C31.6547 152.19 31.0641 152.165 30.4398 152.315L29.3696 149.626C30.5552 149.297 31.708 149.331 32.8278 149.728C33.9429 150.119 34.8774 150.788 35.6315 151.735ZM33.7502 158.768L32.0937 160.087L26.7066 153.325L28.3632 152.005L33.7502 158.768Z" fill="white"/>
<path d="M25.1488 134.389C25.8387 135.916 26.0974 137.374 25.9247 138.763C25.745 140.155 25.1903 141.415 24.2607 142.542C23.3278 143.661 22.0731 144.577 20.4965 145.289C18.9199 146.002 17.4033 146.338 15.9466 146.298C14.4866 146.251 13.1784 145.833 12.022 145.045C10.8584 144.259 9.93168 143.103 9.24173 141.576C8.55177 140.049 8.29665 138.589 8.47637 137.197C8.64583 135.801 9.19699 134.543 10.1299 133.424C11.0595 132.297 12.3127 131.378 13.8892 130.665C15.4658 129.953 16.984 129.62 18.444 129.667C19.9007 129.707 21.2124 130.123 22.3791 130.916C23.5356 131.704 24.4588 132.862 25.1488 134.389ZM22.7415 135.477C22.2854 134.448 21.6743 133.699 20.9081 133.228C20.1387 132.75 19.2603 132.529 18.2727 132.567C17.2819 132.597 16.2281 132.865 15.111 133.37C13.994 133.874 13.1037 134.485 12.4401 135.202C11.7663 135.915 11.3545 136.718 11.2048 137.612C11.0519 138.498 11.2 139.457 11.649 140.489C12.1051 141.517 12.7162 142.267 13.4824 142.738C14.2486 143.209 15.1271 143.429 16.1178 143.398C17.1054 143.361 18.1577 143.09 19.2747 142.585C20.3917 142.08 21.2872 141.472 21.961 140.758C22.6278 140.049 23.0376 139.25 23.1905 138.364C23.3402 137.471 23.1905 136.508 22.7415 135.477Z" fill="white"/>
<path d="M20.3166 120.241C20.5304 121.147 20.5557 121.93 20.3927 122.591C20.2296 123.251 19.9549 123.81 19.5687 124.268C19.1826 124.725 18.7448 125.1 18.2554 125.39C17.7661 125.681 17.2936 125.908 16.8379 126.072C16.3729 126.229 15.9932 126.343 15.6987 126.412L8.86914 128.023L8.21715 125.26L14.1066 123.87C14.4842 123.781 14.9045 123.654 15.3678 123.489C15.8234 123.326 16.248 123.098 16.6414 122.806C17.0254 122.508 17.3126 122.138 17.5029 121.694C17.6914 121.243 17.7091 120.693 17.5559 120.044C17.474 119.696 17.3363 119.366 17.1429 119.053C16.9494 118.74 16.6847 118.48 16.3488 118.272C16.0035 118.058 15.5697 117.926 15.0472 117.874C14.5248 117.821 13.8936 117.883 13.1536 118.057L13.4624 116.275C14.5044 116.029 15.4963 116.01 16.4382 116.218C17.3783 116.419 18.1939 116.852 18.885 117.518C19.5687 118.186 20.0458 119.094 20.3166 120.241ZM19.0223 116.326L15.2281 117.221L15.3056 117.55L6.86774 119.54L6.22109 116.799L18.4531 113.914L19.0223 116.326Z" fill="white"/>
<path d="M18.2195 111.003L5.70632 112.174L5.47532 109.706L8.5225 109.421L8.15676 109.759C7.7252 109.643 7.32755 109.474 6.96383 109.251C6.59166 109.021 6.27659 108.735 6.0186 108.393C5.78113 108.103 5.58711 107.779 5.43654 107.419C5.27753 107.052 5.168 106.673 5.10795 106.281C5.04018 105.89 5.01984 105.506 5.04693 105.129L7.65383 104.885C7.5804 105.266 7.58577 105.698 7.66994 106.181C7.75339 106.657 7.92905 107.076 8.19692 107.441C8.44163 107.808 8.73775 108.099 9.0853 108.316C9.43213 108.525 9.81952 108.668 10.2475 108.745C10.6677 108.823 11.1173 108.839 11.5962 108.794L17.957 108.199L18.2195 111.003Z" fill="white"/>
<path d="M18.5059 91.0569C18.3757 92.2757 18.0462 93.3523 17.5172 94.2867C16.9891 95.2133 16.2979 95.9509 15.4435 96.4994C14.5822 97.0393 13.5986 97.3361 12.4928 97.3896L12.3621 94.4499C13.3759 94.3085 14.1936 93.8848 14.8151 93.1788C15.4375 92.4651 15.8023 91.6068 15.9094 90.604C15.9729 90.01 15.94 89.4408 15.8109 88.8965C15.6818 88.3522 15.4572 87.8991 15.1369 87.5372C14.8175 87.1676 14.3994 86.9552 13.8825 86.8999C13.6511 86.8752 13.4349 86.8911 13.2338 86.9477C13.025 87.0034 12.8352 87.1001 12.6644 87.2379C12.4945 87.368 12.335 87.546 12.1861 87.772C12.0302 87.9894 11.8895 88.2474 11.764 88.5461L10.0313 92.7146C9.88379 93.0733 9.69823 93.4592 9.47466 93.8722C9.2442 94.2767 8.95023 94.6549 8.59276 95.0068C8.22839 95.3502 7.78617 95.619 7.2661 95.8131C6.73914 95.9986 6.10925 96.0523 5.37642 95.974C4.30417 95.8595 3.43432 95.4935 2.76689 94.876C2.09257 94.25 1.62315 93.4587 1.35866 92.502C1.09499 91.5376 1.02716 90.4927 1.15519 89.3672C1.28486 88.2264 1.59035 87.2292 2.07164 86.3755C2.54522 85.5211 3.1767 84.8317 3.9661 84.3075C4.75549 83.7833 5.67636 83.4525 6.72869 83.3153L6.92924 86.3678C6.32979 86.4286 5.80669 86.6146 5.35994 86.9258C4.9063 87.2284 4.54429 87.6227 4.27391 88.1088C4.00436 88.5871 3.83137 89.1109 3.75497 89.6801C3.68792 90.2347 3.71756 90.7606 3.84389 91.2578C3.96333 91.7465 4.16939 92.1547 4.46207 92.4824C4.75557 92.8025 5.11831 92.9855 5.55029 93.0317C5.95914 93.0754 6.30788 92.9878 6.59653 92.769C6.87746 92.5493 7.11443 92.2664 7.30745 91.9204C7.49357 91.5657 7.65696 91.2048 7.79762 90.8375L8.94964 87.9412C9.10131 87.5439 9.29691 87.1006 9.53644 86.6112C9.77596 86.1219 10.0867 85.6596 10.4687 85.2245C10.8506 84.7894 11.3277 84.4502 11.8998 84.2071C12.4728 83.9562 13.1758 83.8753 14.0089 83.9643C14.8729 84.0566 15.6133 84.319 16.2303 84.7516C16.8404 85.1757 17.3289 85.7155 17.6957 86.371C18.0626 87.0266 18.312 87.7593 18.444 88.5692C18.5767 89.3714 18.5974 90.2006 18.5059 91.0569Z" fill="white"/>
<path d="M21.3148 77.2098C20.9646 78.4168 20.3869 79.3922 19.5814 80.136C18.776 80.8798 17.8241 81.3629 16.7255 81.5855C15.6218 81.7984 14.4477 81.7244 13.2034 81.3635C11.9368 80.9961 10.9001 80.4207 10.0934 79.6374C9.28664 78.8541 8.7458 77.9339 8.47086 76.8768C8.19592 75.8196 8.23027 74.6987 8.57391 73.514C8.9262 72.2995 9.50505 71.3204 10.3105 70.5766C11.1159 69.8329 12.0716 69.3508 13.1775 69.1304C14.276 68.9078 15.4474 68.977 16.6917 69.3379C17.9434 69.701 18.9764 70.2753 19.7906 71.0608C20.5995 71.8366 21.1451 72.7542 21.4275 73.8135C21.7025 74.8707 21.6649 76.0028 21.3148 77.2098ZM18.7889 76.4771C19.1002 75.4042 18.9738 74.5032 18.4098 73.7742C17.8458 73.0452 16.9976 72.5164 15.865 72.1879C14.6953 71.8485 13.6872 71.8429 12.8408 72.1709C11.987 72.4967 11.4066 73.1887 11.0997 74.2467C10.8901 74.9694 10.8811 75.613 11.0728 76.1775C11.2592 76.7324 11.6105 77.2059 12.1268 77.598C12.6357 77.9879 13.2701 78.2931 14.0301 78.5136C15.1999 78.8529 16.2117 78.8596 17.0655 78.5338C17.914 78.1983 18.4885 77.5128 18.7889 76.4771Z" fill="white"/>
<path d="M23.8945 68.8357L8.15625 62.1328L9.25516 59.5526L24.9934 66.2555L23.8945 68.8357Z" fill="white"/>
<path d="M28.7338 59.7591C28.2683 60.5653 27.75 61.1529 27.1787 61.5218C26.6074 61.8907 26.0242 62.1094 25.4293 62.178C24.8343 62.2466 24.259 62.219 23.7033 62.0953C23.1477 61.9716 22.648 61.813 22.2043 61.6195C21.7578 61.4155 21.4035 61.2378 21.1415 61.0865L15.0645 57.5781L16.4841 55.1191L21.7246 58.1446C22.0606 58.3385 22.4537 58.5342 22.9042 58.7315C23.3479 58.925 23.8131 59.0502 24.2997 59.1072C24.7835 59.1536 25.2467 59.0806 25.6892 58.8882C26.1356 58.6891 26.5256 58.3006 26.8592 57.7228C27.0376 57.4137 27.1637 57.079 27.2375 56.7184C27.3113 56.3579 27.297 55.9869 27.1948 55.6054C27.0897 55.2133 26.8649 54.8192 26.5202 54.4231C26.1755 54.0271 25.674 53.639 25.0156 53.2589L26.4623 52.1726C27.3895 52.7079 28.1246 53.3742 28.6676 54.1714C29.2146 54.9619 29.5114 55.8365 29.5581 56.7951C29.5982 57.7499 29.3234 58.7378 28.7338 59.7591ZM30.4752 56.0212L27.0991 54.0721L26.9304 54.3643L19.4223 50.0297L20.8303 47.5909L31.7145 53.8746L30.4752 56.0212Z" fill="white"/>
<path d="M38.1161 45.7565C37.7241 46.5044 37.2715 47.1849 36.7585 47.798C36.2564 48.4098 35.7042 48.8784 35.102 49.2038C34.4936 49.5243 33.854 49.6276 33.1832 49.5137C32.579 49.4029 32.0497 49.1783 31.5954 48.8398C31.141 48.5014 30.6336 48.1112 30.0731 47.6693L21.4922 40.9042L23.2213 38.711L31.6743 45.3753C32.0703 45.6875 32.42 45.9582 32.7233 46.1874C33.0314 46.4106 33.3255 46.5388 33.6057 46.5719C34.1441 46.6408 34.6244 46.4514 35.0465 46.0037C35.4686 45.556 35.8765 44.9885 36.2702 44.3011L38.1161 45.7565ZM24.5488 46.2184L22.8216 44.8567L28.2467 37.9755L29.9738 39.3372L24.5488 46.2184Z" fill="white"/>
<path d="M29.3499 34.032L27.4844 32.2617L29.4149 30.2274L31.2803 31.9977L29.3499 34.032ZM39.8506 43.9968L30.7342 35.3457L32.6647 33.3114L41.7811 41.9625L39.8506 43.9968Z" fill="white"/>
<path d="M48.1621 36.6545C47.1948 37.4569 46.1691 37.9398 45.085 38.1032C44.0009 38.2666 42.9419 38.1321 41.9078 37.6996C40.8748 37.2563 39.9447 36.536 39.1176 35.5388C38.2756 34.5238 37.7406 33.4657 37.5127 32.3646C37.2847 31.2635 37.3537 30.1983 37.7196 29.1691C38.0855 28.1399 38.7431 27.2315 39.6925 26.444C40.6658 25.6366 41.6944 25.1513 42.7785 24.9879C43.8626 24.8244 44.9241 24.9619 45.9631 25.4003C46.9971 25.8328 47.9277 26.5476 48.7549 27.5448C49.587 28.5479 50.1195 29.603 50.3524 30.7101C50.5863 31.8062 50.5228 32.8719 50.1619 33.9071C49.796 34.9363 49.1294 35.8521 48.1621 36.6545ZM46.483 34.6303C47.3428 33.9171 47.744 33.1005 47.6865 32.1806C47.629 31.2606 47.2238 30.3469 46.4709 29.4393C45.6933 28.5018 44.8622 27.9313 43.9777 27.7276C43.0881 27.518 42.2194 27.7648 41.3715 28.4682C40.7924 28.9486 40.4236 29.4762 40.2654 30.051C40.1082 30.6148 40.1331 31.2039 40.3403 31.8182C40.5426 32.4266 40.8963 33.0353 41.4015 33.6443C42.1791 34.5818 43.0127 35.1553 43.9022 35.3649C44.7928 35.5636 45.653 35.3188 46.483 34.6303Z" fill="white"/>
<path d="M62.4112 26.7256L59.4004 21.4766C59.2036 21.1334 58.9619 20.7667 58.6755 20.3765C58.3891 19.9863 58.0484 19.6496 57.6534 19.3663C57.2612 19.0725 56.8222 18.8996 56.3362 18.8474C55.8569 18.7914 55.3278 18.9294 54.7491 19.2614C54.4396 19.439 54.1623 19.6651 53.9174 19.9397C53.6725 20.2143 53.4969 20.5476 53.3908 20.9394C53.2875 21.3206 53.2853 21.769 53.3843 22.2846C53.4794 22.7935 53.7181 23.381 54.1002 24.0473L52.3035 24.2595C51.7709 23.3308 51.4667 22.3873 51.391 21.4291C51.3221 20.4669 51.5102 19.5631 51.9553 18.7175C52.3965 17.8652 53.1286 17.1456 54.1515 16.5589C54.959 16.0957 55.7024 15.8482 56.3817 15.8163C57.061 15.7844 57.6751 15.8882 58.224 16.1279C58.7729 16.3676 59.2564 16.6805 59.6747 17.0666C60.0929 17.4528 60.4438 17.8462 60.7274 18.247C61.0138 18.6372 61.2323 18.9636 61.3828 19.226L64.8742 25.3128L62.4112 26.7256ZM54.8507 31.0623L48.5975 20.1606L50.7677 18.9157L52.7074 22.2973L53.0001 22.1294L57.3137 29.6495L54.8507 31.0623Z" fill="white"/>
<path d="M72.1394 22.879C70.6859 23.422 69.3828 23.5362 68.23 23.2215C67.0773 22.9068 66.1815 22.1939 65.5427 21.0826L68.0696 19.6665C68.4249 20.1963 68.9012 20.5401 69.4984 20.6979C70.0957 20.8557 70.7541 20.8003 71.4735 20.5315C72.1058 20.2952 72.5465 19.9898 72.7958 19.6151C73.0496 19.2304 73.095 18.8201 72.9321 18.384C72.8317 18.1151 72.6862 17.9252 72.4956 17.8142C72.3097 17.6932 71.9738 17.6365 71.488 17.644C71.0022 17.6516 70.2726 17.7048 69.2991 17.8034C68.213 17.9111 67.3236 17.9245 66.6309 17.8437C65.9354 17.7557 65.3832 17.5521 64.9741 17.2329C64.5649 16.9137 64.2504 16.4598 64.0305 15.8711C63.7563 15.1371 63.7099 14.4256 63.8915 13.7367C64.073 13.0477 64.4547 12.429 65.0365 11.8803C65.6156 11.3244 66.3738 10.8714 67.3113 10.5211C68.227 10.179 69.0902 10.018 69.9011 10.0381C70.7191 10.0554 71.4439 10.2443 72.0755 10.6046C72.707 10.965 73.2053 11.4786 73.5704 12.1455L71.068 13.627C70.8152 13.15 70.4383 12.8395 69.9373 12.6954C69.4435 12.5486 68.8665 12.5778 68.2061 12.7831C67.5748 12.9776 67.1123 13.258 66.8185 13.6245C66.5221 13.9837 66.4485 14.3632 66.5979 14.7629C66.682 14.9882 66.8303 15.1522 67.0426 15.2551C67.255 15.358 67.6199 15.4038 68.1375 15.3926C68.6624 15.3788 69.4261 15.317 70.4286 15.2075C71.4557 15.0971 72.3074 15.0936 72.9837 15.197C73.6646 15.2905 74.2087 15.5054 74.616 15.8419C75.0305 16.1756 75.3518 16.6477 75.5799 17.2582C76.0224 18.4428 75.9376 19.5345 75.3253 20.5335C74.7202 21.5297 73.6583 22.3115 72.1394 22.879Z" fill="white"/>
<path d="M84.7392 10.3764L82.5217 9.25774L83.9317 6.94648L81.2112 6.66248L81.5968 4.20858L84.2538 4.83269L83.6479 2.14837L86.107 1.7553L86.3681 4.49473L88.6867 3.07529L89.818 5.28673L87.3331 6.4028L89.3818 8.16119L87.6235 9.91532L85.8271 7.89268L84.7392 10.3764Z" fill="white"/>
</svg>
