<svg width="31" height="31" viewBox="0 0 31 31" fill="none" xmlns="http://www.w3.org/2000/svg">
<g clip-path="url(#clip0_20_577)">
<path d="M8.74189 4.21094C12.7347 4.21094 15.6169 7.50725 15.6168 12.388C15.5912 19.4794 10.2602 24.4932 2.56953 25.4561C1.85602 25.5454 1.5809 24.557 2.23795 24.2649C5.18894 22.9527 6.67934 21.2876 6.87185 19.6395C7.01568 18.4081 6.34631 17.3295 5.5058 17.1276C3.32683 16.604 1.86689 13.8904 1.86689 11.0859C1.86689 7.28898 4.94493 4.21094 8.74189 4.21094Z" fill="url(#paint0_linear_20_577)"/>
<path d="M23.7419 4.21094C27.7347 4.21094 30.6169 7.50725 30.6168 12.388C30.5912 19.4794 25.2602 24.4932 17.5695 25.4561C16.856 25.5454 16.5809 24.557 17.238 24.2649C20.1889 22.9527 21.6793 21.2876 21.8719 19.6395C22.0157 18.4081 21.3463 17.3295 20.5058 17.1276C18.3268 16.604 16.8669 13.8904 16.8669 11.0859C16.8669 7.28898 19.9449 4.21094 23.7419 4.21094Z" fill="url(#paint1_linear_20_577)"/>
</g>
<defs>
<linearGradient id="paint0_linear_20_577" x1="1.90017" y1="14.8221" x2="15.6168" y2="14.8232" gradientUnits="userSpaceOnUse">
<stop stop-color="#A93E17"/>
<stop offset="1" stop-color="#15399A"/>
</linearGradient>
<linearGradient id="paint1_linear_20_577" x1="16.9002" y1="14.8221" x2="30.6168" y2="14.8232" gradientUnits="userSpaceOnUse">
<stop stop-color="#A93E17"/>
<stop offset="1" stop-color="#15399A"/>
</linearGradient>
<clipPath id="clip0_20_577">
<rect width="30" height="30" fill="white" transform="translate(0.617188 0.460938)"/>
</clipPath>
</defs>
</svg>
